G04 MADE WITH FRITZING*
G04 WWW.FRITZING.ORG*
G04 DOUBLE SIDED*
G04 HOLES PLATED*
G04 CONTOUR ON CENTER OF CONTOUR VECTOR*
%ASAXBY*%
%FSLAX23Y23*%
%MOIN*%
%OFA0B0*%
%SFA1.0B1.0*%
%ADD10C,0.053937*%
%LNPASTEMASK1*%
G90*
G70*
G54D10*
X331Y488D03*
X331Y111D03*
X331Y488D03*
X331Y111D03*
X331Y888D03*
X331Y511D03*
X331Y888D03*
X331Y511D03*
X331Y1788D03*
X331Y1411D03*
X331Y1788D03*
X331Y1411D03*
X501Y341D03*
X879Y341D03*
X501Y341D03*
X879Y341D03*
X331Y1388D03*
X331Y1011D03*
X331Y1388D03*
X331Y1011D03*
G36*
X131Y233D02*
X249Y233D01*
X249Y166D01*
X131Y166D01*
X131Y233D01*
G37*
D02*
G36*
X131Y333D02*
X249Y333D01*
X249Y266D01*
X131Y266D01*
X131Y333D01*
G37*
D02*
G36*
X131Y433D02*
X249Y433D01*
X249Y366D01*
X131Y366D01*
X131Y433D01*
G37*
D02*
G36*
X131Y633D02*
X249Y633D01*
X249Y566D01*
X131Y566D01*
X131Y633D01*
G37*
D02*
G36*
X131Y733D02*
X249Y733D01*
X249Y666D01*
X131Y666D01*
X131Y733D01*
G37*
D02*
G36*
X131Y833D02*
X249Y833D01*
X249Y766D01*
X131Y766D01*
X131Y833D01*
G37*
D02*
G36*
X131Y1533D02*
X249Y1533D01*
X249Y1466D01*
X131Y1466D01*
X131Y1533D01*
G37*
D02*
G36*
X131Y1633D02*
X249Y1633D01*
X249Y1566D01*
X131Y1566D01*
X131Y1633D01*
G37*
D02*
G36*
X131Y1733D02*
X249Y1733D01*
X249Y1666D01*
X131Y1666D01*
X131Y1733D01*
G37*
D02*
G36*
X557Y141D02*
X557Y259D01*
X624Y259D01*
X624Y141D01*
X557Y141D01*
G37*
D02*
G36*
X657Y141D02*
X657Y259D01*
X724Y259D01*
X724Y141D01*
X657Y141D01*
G37*
D02*
G36*
X757Y141D02*
X757Y259D01*
X824Y259D01*
X824Y141D01*
X757Y141D01*
G37*
D02*
G36*
X131Y1333D02*
X249Y1333D01*
X249Y1266D01*
X131Y1266D01*
X131Y1333D01*
G37*
D02*
G36*
X131Y1233D02*
X249Y1233D01*
X249Y1166D01*
X131Y1166D01*
X131Y1233D01*
G37*
D02*
G36*
X131Y1133D02*
X249Y1133D01*
X249Y1066D01*
X131Y1066D01*
X131Y1133D01*
G37*
D02*
G04 End of PasteMask1*
M02*