G04 MADE WITH FRITZING*
G04 WWW.FRITZING.ORG*
G04 DOUBLE SIDED*
G04 HOLES PLATED*
G04 CONTOUR ON CENTER OF CONTOUR VECTOR*
%ASAXBY*%
%FSLAX23Y23*%
%MOIN*%
%OFA0B0*%
%SFA1.0B1.0*%
%ADD10C,0.075000*%
%ADD11C,0.074000*%
%ADD12C,0.078000*%
%ADD13C,0.039370*%
%ADD14C,0.055990*%
%ADD15C,0.065993*%
%ADD16C,0.065965*%
%ADD17C,0.024000*%
%ADD18C,0.020000*%
%ADD19R,0.001000X0.001000*%
%LNCOPPER0*%
G90*
G70*
G54D10*
X1190Y600D03*
X1590Y600D03*
X1190Y1300D03*
X1590Y1300D03*
X2390Y1300D03*
X2390Y1200D03*
X2390Y1100D03*
X1890Y1300D03*
X2290Y1300D03*
X2690Y900D03*
X3090Y900D03*
G54D11*
X290Y2000D03*
X190Y2010D03*
X90Y2000D03*
G54D10*
X1590Y900D03*
X1190Y900D03*
G54D12*
X1890Y1900D03*
X1890Y1500D03*
X2690Y700D03*
X3090Y700D03*
G54D13*
X1589Y1498D03*
X1289Y1900D03*
G54D14*
X3290Y100D03*
X1690Y100D03*
X3390Y100D03*
X3490Y100D03*
X3590Y100D03*
X3690Y100D03*
G54D15*
X3990Y1500D03*
G54D14*
X3790Y100D03*
X3890Y100D03*
X1730Y2000D03*
X2290Y100D03*
X2390Y100D03*
X2490Y100D03*
X2590Y100D03*
G54D15*
X3990Y700D03*
G54D14*
X2690Y100D03*
X2790Y100D03*
X2890Y100D03*
X2990Y100D03*
X2490Y2000D03*
G54D15*
X3990Y1900D03*
X3990Y1100D03*
X3990Y300D03*
G54D14*
X1330Y2000D03*
X2090Y100D03*
X2090Y2000D03*
G54D15*
X3990Y1700D03*
X3990Y1300D03*
G54D16*
X3990Y900D03*
G54D14*
X3690Y2000D03*
G54D15*
X3990Y500D03*
G54D14*
X3590Y2000D03*
X3490Y2000D03*
X3390Y2000D03*
X3290Y2000D03*
X3190Y2000D03*
X3090Y2000D03*
X2990Y2000D03*
X1130Y2000D03*
X1530Y2000D03*
X1930Y2000D03*
X1490Y100D03*
X1890Y100D03*
X2690Y2000D03*
X2290Y2000D03*
G54D15*
X3990Y2000D03*
X3990Y1800D03*
X3990Y1600D03*
X3990Y1400D03*
X3990Y1200D03*
X3990Y1000D03*
X3990Y800D03*
X3990Y600D03*
G54D16*
X3990Y400D03*
G54D14*
X1030Y2000D03*
X1230Y2000D03*
X1430Y2000D03*
X1630Y2000D03*
X1830Y2000D03*
X1390Y100D03*
X1590Y100D03*
X1790Y100D03*
X1990Y100D03*
X2790Y2000D03*
X2590Y2000D03*
X2390Y2000D03*
X2190Y2000D03*
G54D15*
X4090Y2000D03*
X4090Y1900D03*
X4090Y1800D03*
X4090Y1700D03*
X4090Y1600D03*
X4090Y1500D03*
X4090Y1400D03*
X4090Y1300D03*
X4090Y1200D03*
X4090Y1100D03*
X4090Y1000D03*
G54D16*
X4090Y900D03*
G54D15*
X4090Y800D03*
X4090Y700D03*
X4090Y600D03*
X4090Y500D03*
G54D16*
X4090Y400D03*
G54D15*
X4090Y300D03*
G54D14*
X3190Y100D03*
G54D13*
X1192Y1699D03*
X390Y1500D03*
X389Y1299D03*
X390Y1100D03*
X989Y1299D03*
X3389Y599D03*
X1289Y1200D03*
X591Y300D03*
X591Y801D03*
X390Y200D03*
X390Y499D03*
X3090Y299D03*
X3090Y501D03*
X2391Y301D03*
X2390Y501D03*
X3540Y1396D03*
X3428Y1398D03*
G54D17*
X1190Y1400D02*
X3409Y1398D01*
D02*
X1190Y1328D02*
X1190Y1400D01*
D02*
X1301Y1884D02*
X1589Y1498D01*
D02*
X1589Y1498D02*
X1592Y1479D01*
D02*
X490Y1899D02*
X590Y1800D01*
D02*
X890Y1800D02*
X1174Y1705D01*
D02*
X590Y1800D02*
X890Y1800D01*
D02*
X90Y1899D02*
X490Y1899D01*
D02*
X90Y1969D02*
X90Y1899D01*
D02*
X409Y1500D02*
X1190Y1499D01*
D02*
X1190Y1499D02*
X1190Y1328D01*
D02*
X790Y1300D02*
X408Y1299D01*
D02*
X790Y900D02*
X790Y1300D01*
D02*
X1161Y900D02*
X790Y900D01*
D02*
X691Y1099D02*
X408Y1100D01*
D02*
X691Y800D02*
X691Y1099D01*
D02*
X2190Y799D02*
X691Y800D01*
D02*
X2191Y599D02*
X2190Y799D01*
D02*
X3371Y599D02*
X2191Y599D01*
D02*
X990Y999D02*
X989Y1280D01*
D02*
X3491Y1001D02*
X990Y999D01*
D02*
X3490Y1972D02*
X3491Y1001D01*
D02*
X1308Y1200D02*
X2361Y1200D01*
D02*
X591Y782D02*
X591Y319D01*
D02*
X390Y219D02*
X390Y480D01*
D02*
X3090Y318D02*
X3090Y482D01*
D02*
X2391Y320D02*
X2390Y482D01*
D02*
X3559Y1396D02*
X3790Y1400D01*
D02*
X3690Y1599D02*
X3690Y1972D01*
D02*
X3790Y1599D02*
X3690Y1599D01*
D02*
X3790Y1400D02*
X3790Y1599D01*
G54D18*
X2418Y1072D02*
X2363Y1072D01*
X2363Y1127D01*
X2418Y1127D01*
X2418Y1072D01*
D02*
G54D19*
X0Y2045D02*
X1Y2045D01*
X0Y2044D02*
X3Y2044D01*
X0Y2043D02*
X5Y2043D01*
X0Y2042D02*
X7Y2042D01*
X0Y2041D02*
X8Y2041D01*
X0Y2040D02*
X10Y2040D01*
X0Y2039D02*
X11Y2039D01*
X0Y2038D02*
X12Y2038D01*
X0Y2037D02*
X14Y2037D01*
X253Y2037D02*
X326Y2037D01*
X0Y2036D02*
X15Y2036D01*
X253Y2036D02*
X326Y2036D01*
X0Y2035D02*
X16Y2035D01*
X253Y2035D02*
X326Y2035D01*
X0Y2034D02*
X16Y2034D01*
X253Y2034D02*
X326Y2034D01*
X0Y2033D02*
X17Y2033D01*
X253Y2033D02*
X326Y2033D01*
X0Y2032D02*
X18Y2032D01*
X253Y2032D02*
X326Y2032D01*
X0Y2031D02*
X19Y2031D01*
X253Y2031D02*
X326Y2031D01*
X0Y2030D02*
X20Y2030D01*
X253Y2030D02*
X326Y2030D01*
X0Y2029D02*
X20Y2029D01*
X253Y2029D02*
X326Y2029D01*
X0Y2028D02*
X21Y2028D01*
X253Y2028D02*
X326Y2028D01*
X2Y2027D02*
X21Y2027D01*
X253Y2027D02*
X326Y2027D01*
X3Y2026D02*
X22Y2026D01*
X253Y2026D02*
X326Y2026D01*
X4Y2025D02*
X22Y2025D01*
X253Y2025D02*
X326Y2025D01*
X5Y2024D02*
X23Y2024D01*
X253Y2024D02*
X326Y2024D01*
X6Y2023D02*
X23Y2023D01*
X253Y2023D02*
X326Y2023D01*
X7Y2022D02*
X24Y2022D01*
X253Y2022D02*
X326Y2022D01*
X7Y2021D02*
X24Y2021D01*
X253Y2021D02*
X326Y2021D01*
X8Y2020D02*
X24Y2020D01*
X253Y2020D02*
X287Y2020D01*
X292Y2020D02*
X326Y2020D01*
X8Y2019D02*
X25Y2019D01*
X253Y2019D02*
X283Y2019D01*
X297Y2019D02*
X326Y2019D01*
X9Y2018D02*
X25Y2018D01*
X253Y2018D02*
X280Y2018D01*
X299Y2018D02*
X326Y2018D01*
X9Y2017D02*
X25Y2017D01*
X253Y2017D02*
X278Y2017D01*
X301Y2017D02*
X326Y2017D01*
X9Y2016D02*
X25Y2016D01*
X253Y2016D02*
X277Y2016D01*
X302Y2016D02*
X326Y2016D01*
X10Y2015D02*
X26Y2015D01*
X253Y2015D02*
X276Y2015D01*
X303Y2015D02*
X326Y2015D01*
X10Y2014D02*
X26Y2014D01*
X253Y2014D02*
X275Y2014D01*
X304Y2014D02*
X326Y2014D01*
X10Y2013D02*
X26Y2013D01*
X253Y2013D02*
X274Y2013D01*
X305Y2013D02*
X326Y2013D01*
X10Y2012D02*
X26Y2012D01*
X253Y2012D02*
X273Y2012D01*
X306Y2012D02*
X326Y2012D01*
X10Y2011D02*
X26Y2011D01*
X253Y2011D02*
X272Y2011D01*
X307Y2011D02*
X326Y2011D01*
X10Y2010D02*
X26Y2010D01*
X253Y2010D02*
X272Y2010D01*
X307Y2010D02*
X326Y2010D01*
X10Y2009D02*
X26Y2009D01*
X253Y2009D02*
X271Y2009D01*
X308Y2009D02*
X326Y2009D01*
X10Y2008D02*
X26Y2008D01*
X253Y2008D02*
X271Y2008D01*
X308Y2008D02*
X326Y2008D01*
X10Y2007D02*
X26Y2007D01*
X253Y2007D02*
X270Y2007D01*
X309Y2007D02*
X326Y2007D01*
X10Y2006D02*
X26Y2006D01*
X253Y2006D02*
X270Y2006D01*
X309Y2006D02*
X326Y2006D01*
X10Y2005D02*
X26Y2005D01*
X253Y2005D02*
X270Y2005D01*
X309Y2005D02*
X326Y2005D01*
X9Y2004D02*
X25Y2004D01*
X253Y2004D02*
X269Y2004D01*
X310Y2004D02*
X326Y2004D01*
X9Y2003D02*
X25Y2003D01*
X253Y2003D02*
X269Y2003D01*
X310Y2003D02*
X326Y2003D01*
X9Y2002D02*
X25Y2002D01*
X253Y2002D02*
X269Y2002D01*
X310Y2002D02*
X326Y2002D01*
X8Y2001D02*
X25Y2001D01*
X253Y2001D02*
X269Y2001D01*
X310Y2001D02*
X326Y2001D01*
X8Y2000D02*
X24Y2000D01*
X253Y2000D02*
X269Y2000D01*
X310Y2000D02*
X326Y2000D01*
X7Y1999D02*
X24Y1999D01*
X253Y1999D02*
X269Y1999D01*
X310Y1999D02*
X326Y1999D01*
X7Y1998D02*
X24Y1998D01*
X253Y1998D02*
X269Y1998D01*
X310Y1998D02*
X326Y1998D01*
X6Y1997D02*
X23Y1997D01*
X253Y1997D02*
X269Y1997D01*
X310Y1997D02*
X326Y1997D01*
X5Y1996D02*
X23Y1996D01*
X253Y1996D02*
X269Y1996D01*
X310Y1996D02*
X326Y1996D01*
X4Y1995D02*
X22Y1995D01*
X253Y1995D02*
X270Y1995D01*
X309Y1995D02*
X326Y1995D01*
X3Y1994D02*
X22Y1994D01*
X253Y1994D02*
X270Y1994D01*
X309Y1994D02*
X326Y1994D01*
X1Y1993D02*
X21Y1993D01*
X253Y1993D02*
X270Y1993D01*
X309Y1993D02*
X326Y1993D01*
X0Y1992D02*
X21Y1992D01*
X253Y1992D02*
X271Y1992D01*
X308Y1992D02*
X326Y1992D01*
X0Y1991D02*
X20Y1991D01*
X253Y1991D02*
X271Y1991D01*
X308Y1991D02*
X326Y1991D01*
X0Y1990D02*
X19Y1990D01*
X253Y1990D02*
X272Y1990D01*
X307Y1990D02*
X326Y1990D01*
X0Y1989D02*
X19Y1989D01*
X253Y1989D02*
X272Y1989D01*
X307Y1989D02*
X326Y1989D01*
X0Y1988D02*
X18Y1988D01*
X253Y1988D02*
X273Y1988D01*
X306Y1988D02*
X326Y1988D01*
X0Y1987D02*
X17Y1987D01*
X253Y1987D02*
X274Y1987D01*
X305Y1987D02*
X326Y1987D01*
X0Y1986D02*
X16Y1986D01*
X253Y1986D02*
X275Y1986D01*
X304Y1986D02*
X326Y1986D01*
X0Y1985D02*
X15Y1985D01*
X253Y1985D02*
X276Y1985D01*
X303Y1985D02*
X326Y1985D01*
X0Y1984D02*
X14Y1984D01*
X253Y1984D02*
X277Y1984D01*
X302Y1984D02*
X326Y1984D01*
X0Y1983D02*
X13Y1983D01*
X253Y1983D02*
X279Y1983D01*
X300Y1983D02*
X326Y1983D01*
X0Y1982D02*
X12Y1982D01*
X253Y1982D02*
X281Y1982D01*
X299Y1982D02*
X326Y1982D01*
X0Y1981D02*
X11Y1981D01*
X253Y1981D02*
X283Y1981D01*
X296Y1981D02*
X326Y1981D01*
X0Y1980D02*
X10Y1980D01*
X253Y1980D02*
X326Y1980D01*
X0Y1979D02*
X8Y1979D01*
X253Y1979D02*
X326Y1979D01*
X0Y1978D02*
X7Y1978D01*
X253Y1978D02*
X326Y1978D01*
X0Y1977D02*
X5Y1977D01*
X253Y1977D02*
X326Y1977D01*
X0Y1976D02*
X3Y1976D01*
X253Y1976D02*
X326Y1976D01*
X0Y1975D02*
X0Y1975D01*
X253Y1975D02*
X326Y1975D01*
X253Y1974D02*
X326Y1974D01*
X253Y1973D02*
X326Y1973D01*
X253Y1972D02*
X326Y1972D01*
X253Y1971D02*
X326Y1971D01*
X253Y1970D02*
X326Y1970D01*
X253Y1969D02*
X326Y1969D01*
X253Y1968D02*
X326Y1968D01*
X253Y1967D02*
X326Y1967D01*
X253Y1966D02*
X326Y1966D01*
X253Y1965D02*
X326Y1965D01*
X253Y1964D02*
X326Y1964D01*
D02*
G04 End of Copper0*
M02*