; NON-PLATED HOLES START AT T1
; THROUGH (PLATED) HOLES START AT T100
M48
INCH
T1C0.053937
T100C0.037368
T101C0.033454
T102C0.015748
T103C0.035000
T104C0.039370
T105C0.037396
T106C0.040000
%
T1
X008786Y003410
X005014Y003410
X003314Y010111
X003314Y014111
X003314Y001111
X003314Y013883
X003314Y004883
X003314Y005111
X003314Y017883
X003314Y008883
T100
X039900Y003997
X040900Y008997
X040900Y003997
X039900Y008997
T101
X033900Y019997
X035900Y000997
X027900Y019997
X018300Y019997
X036900Y019997
X032900Y000997
X013300Y019997
X026900Y000997
X031900Y019997
X037900Y000997
X025900Y019997
X013900Y000997
X016300Y019997
X034900Y000997
X011300Y019997
X024900Y019997
X028900Y000997
X022900Y019997
X029900Y019997
X023900Y000997
X030900Y019997
X010300Y019997
X015900Y000997
X036900Y000997
X017300Y019997
X035900Y019997
X017900Y000997
X034900Y019997
X038900Y000997
X014900Y000997
X015300Y019997
X020900Y000997
X031900Y000997
X023900Y019997
X014300Y019997
X019900Y000997
X025900Y000997
X032900Y019997
X026900Y019997
X022900Y000997
X033900Y000997
X021900Y019997
X012300Y019997
X027900Y000997
X019300Y019997
X024900Y000997
X029900Y000997
X016900Y000997
X020900Y019997
X018900Y000997
T102
X034282Y013980
X009890Y012992
X023895Y005005
X005908Y008005
X003895Y011000
X003899Y002003
X003893Y012992
X030900Y002993
X012892Y018995
X012891Y012002
X003899Y004987
X035398Y013961
X023906Y003008
X033894Y005988
X015892Y014981
X011920Y016991
X005908Y003001
X003899Y015000
X030903Y005005
T103
X030900Y008997
X015900Y008997
X011900Y005997
X018900Y012997
X022900Y012997
X015900Y005997
X023900Y010997
X023900Y011997
X011900Y012997
X026900Y008997
X015900Y012997
X011900Y008997
X023900Y012997
T104
X030900Y006997
X018900Y018997
X026900Y006997
X018900Y014997
T105
X039900Y009997
X040900Y015997
X040900Y006997
X039900Y018997
X039900Y010997
X040900Y018997
X040900Y005997
X039900Y017997
X039900Y004997
X040900Y010997
X040900Y017997
X039900Y006997
X039900Y012997
X040900Y007997
X039900Y019997
X039900Y005997
X040900Y012997
X039900Y011997
X040900Y019997
X040900Y011997
X040900Y002997
X039900Y014997
X040900Y009997
X039900Y007997
X040900Y014997
X039900Y016997
X039900Y013997
X040900Y016997
X040900Y013997
X039900Y015997
X040900Y004997
X039900Y002997
T106
X001900Y020097
X002900Y019997
X000900Y019997
T00
M30
