G04 MADE WITH FRITZING*
G04 WWW.FRITZING.ORG*
G04 DOUBLE SIDED*
G04 HOLES PLATED*
G04 CONTOUR ON CENTER OF CONTOUR VECTOR*
%ASAXBY*%
%FSLAX23Y23*%
%MOIN*%
%OFA0B0*%
%SFA1.0B1.0*%
%ADD10R,0.001000X0.001000*%
%LNSILK0*%
G90*
G70*
G54D10*
X0Y2109D02*
X4195Y2109D01*
X0Y2108D02*
X4195Y2108D01*
X0Y2107D02*
X4195Y2107D01*
X0Y2106D02*
X4195Y2106D01*
X0Y2105D02*
X4195Y2105D01*
X0Y2104D02*
X4195Y2104D01*
X0Y2103D02*
X4195Y2103D01*
X0Y2102D02*
X4195Y2102D01*
X0Y2101D02*
X7Y2101D01*
X4188Y2101D02*
X4195Y2101D01*
X0Y2100D02*
X7Y2100D01*
X4188Y2100D02*
X4195Y2100D01*
X0Y2099D02*
X7Y2099D01*
X4188Y2099D02*
X4195Y2099D01*
X0Y2098D02*
X7Y2098D01*
X4188Y2098D02*
X4195Y2098D01*
X0Y2097D02*
X7Y2097D01*
X4188Y2097D02*
X4195Y2097D01*
X0Y2096D02*
X7Y2096D01*
X4188Y2096D02*
X4195Y2096D01*
X0Y2095D02*
X7Y2095D01*
X4188Y2095D02*
X4195Y2095D01*
X0Y2094D02*
X7Y2094D01*
X4188Y2094D02*
X4195Y2094D01*
X0Y2093D02*
X7Y2093D01*
X4188Y2093D02*
X4195Y2093D01*
X0Y2092D02*
X7Y2092D01*
X4188Y2092D02*
X4195Y2092D01*
X0Y2091D02*
X7Y2091D01*
X4188Y2091D02*
X4195Y2091D01*
X0Y2090D02*
X7Y2090D01*
X4188Y2090D02*
X4195Y2090D01*
X0Y2089D02*
X7Y2089D01*
X4188Y2089D02*
X4195Y2089D01*
X0Y2088D02*
X7Y2088D01*
X4188Y2088D02*
X4195Y2088D01*
X0Y2087D02*
X7Y2087D01*
X4188Y2087D02*
X4195Y2087D01*
X0Y2086D02*
X7Y2086D01*
X4188Y2086D02*
X4195Y2086D01*
X0Y2085D02*
X7Y2085D01*
X4188Y2085D02*
X4195Y2085D01*
X0Y2084D02*
X7Y2084D01*
X4188Y2084D02*
X4195Y2084D01*
X0Y2083D02*
X7Y2083D01*
X4188Y2083D02*
X4195Y2083D01*
X0Y2082D02*
X7Y2082D01*
X4188Y2082D02*
X4195Y2082D01*
X0Y2081D02*
X7Y2081D01*
X4188Y2081D02*
X4195Y2081D01*
X0Y2080D02*
X7Y2080D01*
X4188Y2080D02*
X4195Y2080D01*
X0Y2079D02*
X7Y2079D01*
X4188Y2079D02*
X4195Y2079D01*
X0Y2078D02*
X7Y2078D01*
X4188Y2078D02*
X4195Y2078D01*
X0Y2077D02*
X7Y2077D01*
X4188Y2077D02*
X4195Y2077D01*
X0Y2076D02*
X7Y2076D01*
X4188Y2076D02*
X4195Y2076D01*
X0Y2075D02*
X7Y2075D01*
X4188Y2075D02*
X4195Y2075D01*
X0Y2074D02*
X7Y2074D01*
X4188Y2074D02*
X4195Y2074D01*
X0Y2073D02*
X7Y2073D01*
X4188Y2073D02*
X4195Y2073D01*
X0Y2072D02*
X7Y2072D01*
X4188Y2072D02*
X4195Y2072D01*
X0Y2071D02*
X7Y2071D01*
X4188Y2071D02*
X4195Y2071D01*
X0Y2070D02*
X7Y2070D01*
X4188Y2070D02*
X4195Y2070D01*
X0Y2069D02*
X7Y2069D01*
X4188Y2069D02*
X4195Y2069D01*
X0Y2068D02*
X7Y2068D01*
X4188Y2068D02*
X4195Y2068D01*
X0Y2067D02*
X7Y2067D01*
X4188Y2067D02*
X4195Y2067D01*
X0Y2066D02*
X7Y2066D01*
X4188Y2066D02*
X4195Y2066D01*
X0Y2065D02*
X7Y2065D01*
X4188Y2065D02*
X4195Y2065D01*
X0Y2064D02*
X7Y2064D01*
X4188Y2064D02*
X4195Y2064D01*
X0Y2063D02*
X7Y2063D01*
X4188Y2063D02*
X4195Y2063D01*
X0Y2062D02*
X7Y2062D01*
X4188Y2062D02*
X4195Y2062D01*
X0Y2061D02*
X7Y2061D01*
X4188Y2061D02*
X4195Y2061D01*
X0Y2060D02*
X7Y2060D01*
X4188Y2060D02*
X4195Y2060D01*
X0Y2059D02*
X7Y2059D01*
X4188Y2059D02*
X4195Y2059D01*
X0Y2058D02*
X7Y2058D01*
X4188Y2058D02*
X4195Y2058D01*
X0Y2057D02*
X7Y2057D01*
X4188Y2057D02*
X4195Y2057D01*
X0Y2056D02*
X7Y2056D01*
X4188Y2056D02*
X4195Y2056D01*
X0Y2055D02*
X7Y2055D01*
X4188Y2055D02*
X4195Y2055D01*
X0Y2054D02*
X7Y2054D01*
X4188Y2054D02*
X4195Y2054D01*
X0Y2053D02*
X7Y2053D01*
X4188Y2053D02*
X4195Y2053D01*
X0Y2052D02*
X7Y2052D01*
X4188Y2052D02*
X4195Y2052D01*
X0Y2051D02*
X7Y2051D01*
X4188Y2051D02*
X4195Y2051D01*
X2Y2050D02*
X7Y2050D01*
X4188Y2050D02*
X4195Y2050D01*
X5Y2049D02*
X7Y2049D01*
X4188Y2049D02*
X4195Y2049D01*
X7Y2048D02*
X7Y2048D01*
X4188Y2048D02*
X4195Y2048D01*
X4188Y2047D02*
X4195Y2047D01*
X4188Y2046D02*
X4195Y2046D01*
X4188Y2045D02*
X4195Y2045D01*
X4188Y2044D02*
X4195Y2044D01*
X4188Y2043D02*
X4195Y2043D01*
X4188Y2042D02*
X4195Y2042D01*
X4188Y2041D02*
X4195Y2041D01*
X4188Y2040D02*
X4195Y2040D01*
X4188Y2039D02*
X4195Y2039D01*
X4188Y2038D02*
X4195Y2038D01*
X4188Y2037D02*
X4195Y2037D01*
X4188Y2036D02*
X4195Y2036D01*
X4188Y2035D02*
X4195Y2035D01*
X4188Y2034D02*
X4195Y2034D01*
X4188Y2033D02*
X4195Y2033D01*
X4188Y2032D02*
X4195Y2032D01*
X4188Y2031D02*
X4195Y2031D01*
X4188Y2030D02*
X4195Y2030D01*
X4188Y2029D02*
X4195Y2029D01*
X4188Y2028D02*
X4195Y2028D01*
X4188Y2027D02*
X4195Y2027D01*
X4188Y2026D02*
X4195Y2026D01*
X4188Y2025D02*
X4195Y2025D01*
X4188Y2024D02*
X4195Y2024D01*
X4188Y2023D02*
X4195Y2023D01*
X4188Y2022D02*
X4195Y2022D01*
X4188Y2021D02*
X4195Y2021D01*
X4188Y2020D02*
X4195Y2020D01*
X4188Y2019D02*
X4195Y2019D01*
X4188Y2018D02*
X4195Y2018D01*
X4188Y2017D02*
X4195Y2017D01*
X4188Y2016D02*
X4195Y2016D01*
X4188Y2015D02*
X4195Y2015D01*
X4188Y2014D02*
X4195Y2014D01*
X4188Y2013D02*
X4195Y2013D01*
X4188Y2012D02*
X4195Y2012D01*
X4188Y2011D02*
X4195Y2011D01*
X4188Y2010D02*
X4195Y2010D01*
X4188Y2009D02*
X4195Y2009D01*
X4188Y2008D02*
X4195Y2008D01*
X4188Y2007D02*
X4195Y2007D01*
X4188Y2006D02*
X4195Y2006D01*
X4188Y2005D02*
X4195Y2005D01*
X4188Y2004D02*
X4195Y2004D01*
X4188Y2003D02*
X4195Y2003D01*
X4188Y2002D02*
X4195Y2002D01*
X4188Y2001D02*
X4195Y2001D01*
X4188Y2000D02*
X4195Y2000D01*
X4188Y1999D02*
X4195Y1999D01*
X4188Y1998D02*
X4195Y1998D01*
X4188Y1997D02*
X4195Y1997D01*
X4188Y1996D02*
X4195Y1996D01*
X4188Y1995D02*
X4195Y1995D01*
X4188Y1994D02*
X4195Y1994D01*
X4188Y1993D02*
X4195Y1993D01*
X4188Y1992D02*
X4195Y1992D01*
X4188Y1991D02*
X4195Y1991D01*
X4188Y1990D02*
X4195Y1990D01*
X4188Y1989D02*
X4195Y1989D01*
X4188Y1988D02*
X4195Y1988D01*
X4188Y1987D02*
X4195Y1987D01*
X4188Y1986D02*
X4195Y1986D01*
X4188Y1985D02*
X4195Y1985D01*
X4188Y1984D02*
X4195Y1984D01*
X4188Y1983D02*
X4195Y1983D01*
X4188Y1982D02*
X4195Y1982D01*
X4188Y1981D02*
X4195Y1981D01*
X4188Y1980D02*
X4195Y1980D01*
X4188Y1979D02*
X4195Y1979D01*
X4188Y1978D02*
X4195Y1978D01*
X4188Y1977D02*
X4195Y1977D01*
X4188Y1976D02*
X4195Y1976D01*
X4188Y1975D02*
X4195Y1975D01*
X4188Y1974D02*
X4195Y1974D01*
X4188Y1973D02*
X4195Y1973D01*
X6Y1972D02*
X7Y1972D01*
X4188Y1972D02*
X4195Y1972D01*
X4Y1971D02*
X7Y1971D01*
X4188Y1971D02*
X4195Y1971D01*
X0Y1970D02*
X7Y1970D01*
X4188Y1970D02*
X4195Y1970D01*
X0Y1969D02*
X7Y1969D01*
X4188Y1969D02*
X4195Y1969D01*
X0Y1968D02*
X7Y1968D01*
X4188Y1968D02*
X4195Y1968D01*
X0Y1967D02*
X7Y1967D01*
X4188Y1967D02*
X4195Y1967D01*
X0Y1966D02*
X7Y1966D01*
X4188Y1966D02*
X4195Y1966D01*
X0Y1965D02*
X7Y1965D01*
X4188Y1965D02*
X4195Y1965D01*
X0Y1964D02*
X7Y1964D01*
X4188Y1964D02*
X4195Y1964D01*
X0Y1963D02*
X7Y1963D01*
X4188Y1963D02*
X4195Y1963D01*
X0Y1962D02*
X7Y1962D01*
X4188Y1962D02*
X4195Y1962D01*
X0Y1961D02*
X7Y1961D01*
X4188Y1961D02*
X4195Y1961D01*
X0Y1960D02*
X7Y1960D01*
X4188Y1960D02*
X4195Y1960D01*
X0Y1959D02*
X7Y1959D01*
X4188Y1959D02*
X4195Y1959D01*
X0Y1958D02*
X7Y1958D01*
X4188Y1958D02*
X4195Y1958D01*
X0Y1957D02*
X7Y1957D01*
X4188Y1957D02*
X4195Y1957D01*
X0Y1956D02*
X7Y1956D01*
X4188Y1956D02*
X4195Y1956D01*
X0Y1955D02*
X7Y1955D01*
X4188Y1955D02*
X4195Y1955D01*
X0Y1954D02*
X7Y1954D01*
X4188Y1954D02*
X4195Y1954D01*
X0Y1953D02*
X7Y1953D01*
X4188Y1953D02*
X4195Y1953D01*
X0Y1952D02*
X7Y1952D01*
X4188Y1952D02*
X4195Y1952D01*
X0Y1951D02*
X7Y1951D01*
X4188Y1951D02*
X4195Y1951D01*
X0Y1950D02*
X7Y1950D01*
X4188Y1950D02*
X4195Y1950D01*
X0Y1949D02*
X7Y1949D01*
X4188Y1949D02*
X4195Y1949D01*
X0Y1948D02*
X7Y1948D01*
X4188Y1948D02*
X4195Y1948D01*
X0Y1947D02*
X7Y1947D01*
X4188Y1947D02*
X4195Y1947D01*
X0Y1946D02*
X7Y1946D01*
X4188Y1946D02*
X4195Y1946D01*
X0Y1945D02*
X7Y1945D01*
X4188Y1945D02*
X4195Y1945D01*
X0Y1944D02*
X7Y1944D01*
X4188Y1944D02*
X4195Y1944D01*
X0Y1943D02*
X7Y1943D01*
X4188Y1943D02*
X4195Y1943D01*
X0Y1942D02*
X7Y1942D01*
X4188Y1942D02*
X4195Y1942D01*
X0Y1941D02*
X7Y1941D01*
X4188Y1941D02*
X4195Y1941D01*
X0Y1940D02*
X7Y1940D01*
X4188Y1940D02*
X4195Y1940D01*
X0Y1939D02*
X7Y1939D01*
X4188Y1939D02*
X4195Y1939D01*
X0Y1938D02*
X7Y1938D01*
X4188Y1938D02*
X4195Y1938D01*
X0Y1937D02*
X7Y1937D01*
X4188Y1937D02*
X4195Y1937D01*
X0Y1936D02*
X7Y1936D01*
X4188Y1936D02*
X4195Y1936D01*
X0Y1935D02*
X7Y1935D01*
X4188Y1935D02*
X4195Y1935D01*
X0Y1934D02*
X7Y1934D01*
X4188Y1934D02*
X4195Y1934D01*
X0Y1933D02*
X7Y1933D01*
X4188Y1933D02*
X4195Y1933D01*
X0Y1932D02*
X7Y1932D01*
X4188Y1932D02*
X4195Y1932D01*
X0Y1931D02*
X7Y1931D01*
X4188Y1931D02*
X4195Y1931D01*
X0Y1930D02*
X7Y1930D01*
X4188Y1930D02*
X4195Y1930D01*
X0Y1929D02*
X7Y1929D01*
X4188Y1929D02*
X4195Y1929D01*
X0Y1928D02*
X7Y1928D01*
X4188Y1928D02*
X4195Y1928D01*
X0Y1927D02*
X7Y1927D01*
X4188Y1927D02*
X4195Y1927D01*
X0Y1926D02*
X7Y1926D01*
X4188Y1926D02*
X4195Y1926D01*
X0Y1925D02*
X7Y1925D01*
X4188Y1925D02*
X4195Y1925D01*
X0Y1924D02*
X7Y1924D01*
X4188Y1924D02*
X4195Y1924D01*
X0Y1923D02*
X7Y1923D01*
X4188Y1923D02*
X4195Y1923D01*
X0Y1922D02*
X7Y1922D01*
X4188Y1922D02*
X4195Y1922D01*
X0Y1921D02*
X7Y1921D01*
X4188Y1921D02*
X4195Y1921D01*
X0Y1920D02*
X7Y1920D01*
X4188Y1920D02*
X4195Y1920D01*
X0Y1919D02*
X7Y1919D01*
X4188Y1919D02*
X4195Y1919D01*
X0Y1918D02*
X7Y1918D01*
X4188Y1918D02*
X4195Y1918D01*
X0Y1917D02*
X7Y1917D01*
X4188Y1917D02*
X4195Y1917D01*
X0Y1916D02*
X7Y1916D01*
X4188Y1916D02*
X4195Y1916D01*
X0Y1915D02*
X7Y1915D01*
X4188Y1915D02*
X4195Y1915D01*
X0Y1914D02*
X7Y1914D01*
X4188Y1914D02*
X4195Y1914D01*
X0Y1913D02*
X7Y1913D01*
X4188Y1913D02*
X4195Y1913D01*
X0Y1912D02*
X7Y1912D01*
X4188Y1912D02*
X4195Y1912D01*
X0Y1911D02*
X7Y1911D01*
X4188Y1911D02*
X4195Y1911D01*
X0Y1910D02*
X7Y1910D01*
X4188Y1910D02*
X4195Y1910D01*
X0Y1909D02*
X7Y1909D01*
X4188Y1909D02*
X4195Y1909D01*
X0Y1908D02*
X7Y1908D01*
X4188Y1908D02*
X4195Y1908D01*
X0Y1907D02*
X7Y1907D01*
X4188Y1907D02*
X4195Y1907D01*
X0Y1906D02*
X7Y1906D01*
X4188Y1906D02*
X4195Y1906D01*
X0Y1905D02*
X7Y1905D01*
X4188Y1905D02*
X4195Y1905D01*
X0Y1904D02*
X7Y1904D01*
X4188Y1904D02*
X4195Y1904D01*
X0Y1903D02*
X7Y1903D01*
X4188Y1903D02*
X4195Y1903D01*
X0Y1902D02*
X7Y1902D01*
X4188Y1902D02*
X4195Y1902D01*
X0Y1901D02*
X7Y1901D01*
X4188Y1901D02*
X4195Y1901D01*
X0Y1900D02*
X7Y1900D01*
X4188Y1900D02*
X4195Y1900D01*
X0Y1899D02*
X7Y1899D01*
X4188Y1899D02*
X4195Y1899D01*
X0Y1898D02*
X7Y1898D01*
X4188Y1898D02*
X4195Y1898D01*
X0Y1897D02*
X7Y1897D01*
X4188Y1897D02*
X4195Y1897D01*
X0Y1896D02*
X7Y1896D01*
X4188Y1896D02*
X4195Y1896D01*
X0Y1895D02*
X7Y1895D01*
X4188Y1895D02*
X4195Y1895D01*
X0Y1894D02*
X7Y1894D01*
X4188Y1894D02*
X4195Y1894D01*
X0Y1893D02*
X7Y1893D01*
X4188Y1893D02*
X4195Y1893D01*
X0Y1892D02*
X7Y1892D01*
X4188Y1892D02*
X4195Y1892D01*
X0Y1891D02*
X7Y1891D01*
X4188Y1891D02*
X4195Y1891D01*
X0Y1890D02*
X7Y1890D01*
X4188Y1890D02*
X4195Y1890D01*
X0Y1889D02*
X7Y1889D01*
X4188Y1889D02*
X4195Y1889D01*
X0Y1888D02*
X7Y1888D01*
X4188Y1888D02*
X4195Y1888D01*
X0Y1887D02*
X7Y1887D01*
X4188Y1887D02*
X4195Y1887D01*
X0Y1886D02*
X7Y1886D01*
X4188Y1886D02*
X4195Y1886D01*
X0Y1885D02*
X7Y1885D01*
X4188Y1885D02*
X4195Y1885D01*
X0Y1884D02*
X7Y1884D01*
X4188Y1884D02*
X4195Y1884D01*
X0Y1883D02*
X7Y1883D01*
X4188Y1883D02*
X4195Y1883D01*
X0Y1882D02*
X7Y1882D01*
X4188Y1882D02*
X4195Y1882D01*
X0Y1881D02*
X7Y1881D01*
X4188Y1881D02*
X4195Y1881D01*
X0Y1880D02*
X7Y1880D01*
X4188Y1880D02*
X4195Y1880D01*
X0Y1879D02*
X7Y1879D01*
X4188Y1879D02*
X4195Y1879D01*
X0Y1878D02*
X7Y1878D01*
X4188Y1878D02*
X4195Y1878D01*
X0Y1877D02*
X7Y1877D01*
X4188Y1877D02*
X4195Y1877D01*
X0Y1876D02*
X7Y1876D01*
X4188Y1876D02*
X4195Y1876D01*
X0Y1875D02*
X7Y1875D01*
X4188Y1875D02*
X4195Y1875D01*
X0Y1874D02*
X7Y1874D01*
X4188Y1874D02*
X4195Y1874D01*
X0Y1873D02*
X7Y1873D01*
X4188Y1873D02*
X4195Y1873D01*
X0Y1872D02*
X7Y1872D01*
X4188Y1872D02*
X4195Y1872D01*
X0Y1871D02*
X7Y1871D01*
X4188Y1871D02*
X4195Y1871D01*
X0Y1870D02*
X7Y1870D01*
X4188Y1870D02*
X4195Y1870D01*
X0Y1869D02*
X7Y1869D01*
X4188Y1869D02*
X4195Y1869D01*
X0Y1868D02*
X7Y1868D01*
X4188Y1868D02*
X4195Y1868D01*
X0Y1867D02*
X7Y1867D01*
X4188Y1867D02*
X4195Y1867D01*
X0Y1866D02*
X7Y1866D01*
X4188Y1866D02*
X4195Y1866D01*
X0Y1865D02*
X7Y1865D01*
X4188Y1865D02*
X4195Y1865D01*
X0Y1864D02*
X7Y1864D01*
X4188Y1864D02*
X4195Y1864D01*
X0Y1863D02*
X7Y1863D01*
X4188Y1863D02*
X4195Y1863D01*
X0Y1862D02*
X7Y1862D01*
X4188Y1862D02*
X4195Y1862D01*
X0Y1861D02*
X7Y1861D01*
X4188Y1861D02*
X4195Y1861D01*
X0Y1860D02*
X7Y1860D01*
X4188Y1860D02*
X4195Y1860D01*
X0Y1859D02*
X7Y1859D01*
X4188Y1859D02*
X4195Y1859D01*
X0Y1858D02*
X7Y1858D01*
X4188Y1858D02*
X4195Y1858D01*
X0Y1857D02*
X7Y1857D01*
X4188Y1857D02*
X4195Y1857D01*
X0Y1856D02*
X7Y1856D01*
X4188Y1856D02*
X4195Y1856D01*
X0Y1855D02*
X7Y1855D01*
X4188Y1855D02*
X4195Y1855D01*
X0Y1854D02*
X7Y1854D01*
X4188Y1854D02*
X4195Y1854D01*
X0Y1853D02*
X7Y1853D01*
X4188Y1853D02*
X4195Y1853D01*
X0Y1852D02*
X7Y1852D01*
X4188Y1852D02*
X4195Y1852D01*
X0Y1851D02*
X7Y1851D01*
X4188Y1851D02*
X4195Y1851D01*
X0Y1850D02*
X7Y1850D01*
X4188Y1850D02*
X4195Y1850D01*
X0Y1849D02*
X7Y1849D01*
X4188Y1849D02*
X4195Y1849D01*
X0Y1848D02*
X7Y1848D01*
X4188Y1848D02*
X4195Y1848D01*
X0Y1847D02*
X7Y1847D01*
X4188Y1847D02*
X4195Y1847D01*
X0Y1846D02*
X7Y1846D01*
X4188Y1846D02*
X4195Y1846D01*
X0Y1845D02*
X7Y1845D01*
X4188Y1845D02*
X4195Y1845D01*
X0Y1844D02*
X7Y1844D01*
X4188Y1844D02*
X4195Y1844D01*
X0Y1843D02*
X7Y1843D01*
X4188Y1843D02*
X4195Y1843D01*
X0Y1842D02*
X7Y1842D01*
X4188Y1842D02*
X4195Y1842D01*
X0Y1841D02*
X7Y1841D01*
X4188Y1841D02*
X4195Y1841D01*
X0Y1840D02*
X7Y1840D01*
X4188Y1840D02*
X4195Y1840D01*
X0Y1839D02*
X7Y1839D01*
X4188Y1839D02*
X4195Y1839D01*
X0Y1838D02*
X7Y1838D01*
X4188Y1838D02*
X4195Y1838D01*
X0Y1837D02*
X7Y1837D01*
X4188Y1837D02*
X4195Y1837D01*
X0Y1836D02*
X7Y1836D01*
X4188Y1836D02*
X4195Y1836D01*
X0Y1835D02*
X7Y1835D01*
X4188Y1835D02*
X4195Y1835D01*
X0Y1834D02*
X7Y1834D01*
X4188Y1834D02*
X4195Y1834D01*
X0Y1833D02*
X7Y1833D01*
X4188Y1833D02*
X4195Y1833D01*
X0Y1832D02*
X7Y1832D01*
X4188Y1832D02*
X4195Y1832D01*
X0Y1831D02*
X7Y1831D01*
X4188Y1831D02*
X4195Y1831D01*
X0Y1830D02*
X7Y1830D01*
X4188Y1830D02*
X4195Y1830D01*
X0Y1829D02*
X7Y1829D01*
X4188Y1829D02*
X4195Y1829D01*
X0Y1828D02*
X7Y1828D01*
X4188Y1828D02*
X4195Y1828D01*
X0Y1827D02*
X7Y1827D01*
X4188Y1827D02*
X4195Y1827D01*
X0Y1826D02*
X7Y1826D01*
X4188Y1826D02*
X4195Y1826D01*
X0Y1825D02*
X7Y1825D01*
X4188Y1825D02*
X4195Y1825D01*
X0Y1824D02*
X7Y1824D01*
X4188Y1824D02*
X4195Y1824D01*
X0Y1823D02*
X7Y1823D01*
X4188Y1823D02*
X4195Y1823D01*
X0Y1822D02*
X7Y1822D01*
X4188Y1822D02*
X4195Y1822D01*
X0Y1821D02*
X7Y1821D01*
X4188Y1821D02*
X4195Y1821D01*
X0Y1820D02*
X7Y1820D01*
X4188Y1820D02*
X4195Y1820D01*
X0Y1819D02*
X7Y1819D01*
X4188Y1819D02*
X4195Y1819D01*
X0Y1818D02*
X7Y1818D01*
X4188Y1818D02*
X4195Y1818D01*
X0Y1817D02*
X7Y1817D01*
X4188Y1817D02*
X4195Y1817D01*
X0Y1816D02*
X7Y1816D01*
X4188Y1816D02*
X4195Y1816D01*
X0Y1815D02*
X7Y1815D01*
X4188Y1815D02*
X4195Y1815D01*
X0Y1814D02*
X7Y1814D01*
X4188Y1814D02*
X4195Y1814D01*
X0Y1813D02*
X7Y1813D01*
X4188Y1813D02*
X4195Y1813D01*
X0Y1812D02*
X7Y1812D01*
X4188Y1812D02*
X4195Y1812D01*
X0Y1811D02*
X7Y1811D01*
X4188Y1811D02*
X4195Y1811D01*
X0Y1810D02*
X7Y1810D01*
X4188Y1810D02*
X4195Y1810D01*
X0Y1809D02*
X7Y1809D01*
X4188Y1809D02*
X4195Y1809D01*
X0Y1808D02*
X7Y1808D01*
X4188Y1808D02*
X4195Y1808D01*
X0Y1807D02*
X7Y1807D01*
X4188Y1807D02*
X4195Y1807D01*
X0Y1806D02*
X7Y1806D01*
X4188Y1806D02*
X4195Y1806D01*
X0Y1805D02*
X7Y1805D01*
X4188Y1805D02*
X4195Y1805D01*
X0Y1804D02*
X7Y1804D01*
X4188Y1804D02*
X4195Y1804D01*
X0Y1803D02*
X7Y1803D01*
X4188Y1803D02*
X4195Y1803D01*
X0Y1802D02*
X7Y1802D01*
X4188Y1802D02*
X4195Y1802D01*
X0Y1801D02*
X7Y1801D01*
X4188Y1801D02*
X4195Y1801D01*
X0Y1800D02*
X7Y1800D01*
X4188Y1800D02*
X4195Y1800D01*
X0Y1799D02*
X7Y1799D01*
X4188Y1799D02*
X4195Y1799D01*
X0Y1798D02*
X7Y1798D01*
X4188Y1798D02*
X4195Y1798D01*
X0Y1797D02*
X7Y1797D01*
X4188Y1797D02*
X4195Y1797D01*
X0Y1796D02*
X7Y1796D01*
X4188Y1796D02*
X4195Y1796D01*
X0Y1795D02*
X7Y1795D01*
X4188Y1795D02*
X4195Y1795D01*
X0Y1794D02*
X7Y1794D01*
X4188Y1794D02*
X4195Y1794D01*
X0Y1793D02*
X7Y1793D01*
X4188Y1793D02*
X4195Y1793D01*
X0Y1792D02*
X7Y1792D01*
X4188Y1792D02*
X4195Y1792D01*
X0Y1791D02*
X7Y1791D01*
X4188Y1791D02*
X4195Y1791D01*
X0Y1790D02*
X7Y1790D01*
X4188Y1790D02*
X4195Y1790D01*
X0Y1789D02*
X7Y1789D01*
X4188Y1789D02*
X4195Y1789D01*
X0Y1788D02*
X7Y1788D01*
X4188Y1788D02*
X4195Y1788D01*
X0Y1787D02*
X7Y1787D01*
X4188Y1787D02*
X4195Y1787D01*
X0Y1786D02*
X7Y1786D01*
X4188Y1786D02*
X4195Y1786D01*
X0Y1785D02*
X7Y1785D01*
X4188Y1785D02*
X4195Y1785D01*
X0Y1784D02*
X7Y1784D01*
X4188Y1784D02*
X4195Y1784D01*
X0Y1783D02*
X7Y1783D01*
X4188Y1783D02*
X4195Y1783D01*
X0Y1782D02*
X7Y1782D01*
X4188Y1782D02*
X4195Y1782D01*
X0Y1781D02*
X7Y1781D01*
X4188Y1781D02*
X4195Y1781D01*
X0Y1780D02*
X7Y1780D01*
X4188Y1780D02*
X4195Y1780D01*
X0Y1779D02*
X7Y1779D01*
X4188Y1779D02*
X4195Y1779D01*
X0Y1778D02*
X7Y1778D01*
X4188Y1778D02*
X4195Y1778D01*
X0Y1777D02*
X7Y1777D01*
X4188Y1777D02*
X4195Y1777D01*
X0Y1776D02*
X7Y1776D01*
X4188Y1776D02*
X4195Y1776D01*
X0Y1775D02*
X7Y1775D01*
X4188Y1775D02*
X4195Y1775D01*
X0Y1774D02*
X7Y1774D01*
X4188Y1774D02*
X4195Y1774D01*
X0Y1773D02*
X7Y1773D01*
X4188Y1773D02*
X4195Y1773D01*
X0Y1772D02*
X7Y1772D01*
X4188Y1772D02*
X4195Y1772D01*
X0Y1771D02*
X7Y1771D01*
X4188Y1771D02*
X4195Y1771D01*
X0Y1770D02*
X7Y1770D01*
X4188Y1770D02*
X4195Y1770D01*
X0Y1769D02*
X7Y1769D01*
X4188Y1769D02*
X4195Y1769D01*
X0Y1768D02*
X7Y1768D01*
X4188Y1768D02*
X4195Y1768D01*
X0Y1767D02*
X7Y1767D01*
X4188Y1767D02*
X4195Y1767D01*
X0Y1766D02*
X7Y1766D01*
X4188Y1766D02*
X4195Y1766D01*
X0Y1765D02*
X7Y1765D01*
X4188Y1765D02*
X4195Y1765D01*
X0Y1764D02*
X7Y1764D01*
X4188Y1764D02*
X4195Y1764D01*
X0Y1763D02*
X7Y1763D01*
X4188Y1763D02*
X4195Y1763D01*
X0Y1762D02*
X7Y1762D01*
X4188Y1762D02*
X4195Y1762D01*
X0Y1761D02*
X7Y1761D01*
X4188Y1761D02*
X4195Y1761D01*
X0Y1760D02*
X7Y1760D01*
X4188Y1760D02*
X4195Y1760D01*
X0Y1759D02*
X7Y1759D01*
X4188Y1759D02*
X4195Y1759D01*
X0Y1758D02*
X7Y1758D01*
X4188Y1758D02*
X4195Y1758D01*
X0Y1757D02*
X7Y1757D01*
X4188Y1757D02*
X4195Y1757D01*
X0Y1756D02*
X7Y1756D01*
X4188Y1756D02*
X4195Y1756D01*
X0Y1755D02*
X7Y1755D01*
X4188Y1755D02*
X4195Y1755D01*
X0Y1754D02*
X7Y1754D01*
X4188Y1754D02*
X4195Y1754D01*
X0Y1753D02*
X7Y1753D01*
X4188Y1753D02*
X4195Y1753D01*
X0Y1752D02*
X7Y1752D01*
X4188Y1752D02*
X4195Y1752D01*
X0Y1751D02*
X7Y1751D01*
X4188Y1751D02*
X4195Y1751D01*
X0Y1750D02*
X7Y1750D01*
X4188Y1750D02*
X4195Y1750D01*
X0Y1749D02*
X7Y1749D01*
X4188Y1749D02*
X4195Y1749D01*
X0Y1748D02*
X7Y1748D01*
X4188Y1748D02*
X4195Y1748D01*
X0Y1747D02*
X7Y1747D01*
X4188Y1747D02*
X4195Y1747D01*
X0Y1746D02*
X7Y1746D01*
X4188Y1746D02*
X4195Y1746D01*
X0Y1745D02*
X7Y1745D01*
X4188Y1745D02*
X4195Y1745D01*
X0Y1744D02*
X7Y1744D01*
X4188Y1744D02*
X4195Y1744D01*
X0Y1743D02*
X7Y1743D01*
X4188Y1743D02*
X4195Y1743D01*
X0Y1742D02*
X7Y1742D01*
X4188Y1742D02*
X4195Y1742D01*
X0Y1741D02*
X7Y1741D01*
X4188Y1741D02*
X4195Y1741D01*
X0Y1740D02*
X7Y1740D01*
X4188Y1740D02*
X4195Y1740D01*
X0Y1739D02*
X7Y1739D01*
X4188Y1739D02*
X4195Y1739D01*
X0Y1738D02*
X7Y1738D01*
X4188Y1738D02*
X4195Y1738D01*
X0Y1737D02*
X7Y1737D01*
X4188Y1737D02*
X4195Y1737D01*
X0Y1736D02*
X7Y1736D01*
X4188Y1736D02*
X4195Y1736D01*
X0Y1735D02*
X7Y1735D01*
X4188Y1735D02*
X4195Y1735D01*
X0Y1734D02*
X7Y1734D01*
X4188Y1734D02*
X4195Y1734D01*
X0Y1733D02*
X7Y1733D01*
X4188Y1733D02*
X4195Y1733D01*
X0Y1732D02*
X7Y1732D01*
X4188Y1732D02*
X4195Y1732D01*
X0Y1731D02*
X7Y1731D01*
X4188Y1731D02*
X4195Y1731D01*
X0Y1730D02*
X7Y1730D01*
X4188Y1730D02*
X4195Y1730D01*
X0Y1729D02*
X7Y1729D01*
X4188Y1729D02*
X4195Y1729D01*
X0Y1728D02*
X7Y1728D01*
X4188Y1728D02*
X4195Y1728D01*
X0Y1727D02*
X7Y1727D01*
X4188Y1727D02*
X4195Y1727D01*
X0Y1726D02*
X7Y1726D01*
X4188Y1726D02*
X4195Y1726D01*
X0Y1725D02*
X7Y1725D01*
X4188Y1725D02*
X4195Y1725D01*
X0Y1724D02*
X7Y1724D01*
X4188Y1724D02*
X4195Y1724D01*
X0Y1723D02*
X7Y1723D01*
X4188Y1723D02*
X4195Y1723D01*
X0Y1722D02*
X7Y1722D01*
X4188Y1722D02*
X4195Y1722D01*
X0Y1721D02*
X7Y1721D01*
X4188Y1721D02*
X4195Y1721D01*
X0Y1720D02*
X7Y1720D01*
X4188Y1720D02*
X4195Y1720D01*
X0Y1719D02*
X7Y1719D01*
X4188Y1719D02*
X4195Y1719D01*
X0Y1718D02*
X7Y1718D01*
X4188Y1718D02*
X4195Y1718D01*
X0Y1717D02*
X7Y1717D01*
X4188Y1717D02*
X4195Y1717D01*
X0Y1716D02*
X7Y1716D01*
X4188Y1716D02*
X4195Y1716D01*
X0Y1715D02*
X7Y1715D01*
X4188Y1715D02*
X4195Y1715D01*
X0Y1714D02*
X7Y1714D01*
X4188Y1714D02*
X4195Y1714D01*
X0Y1713D02*
X7Y1713D01*
X4188Y1713D02*
X4195Y1713D01*
X0Y1712D02*
X7Y1712D01*
X4188Y1712D02*
X4195Y1712D01*
X0Y1711D02*
X7Y1711D01*
X4188Y1711D02*
X4195Y1711D01*
X0Y1710D02*
X7Y1710D01*
X4188Y1710D02*
X4195Y1710D01*
X0Y1709D02*
X7Y1709D01*
X4188Y1709D02*
X4195Y1709D01*
X0Y1708D02*
X7Y1708D01*
X4188Y1708D02*
X4195Y1708D01*
X0Y1707D02*
X7Y1707D01*
X4188Y1707D02*
X4195Y1707D01*
X0Y1706D02*
X7Y1706D01*
X4188Y1706D02*
X4195Y1706D01*
X0Y1705D02*
X7Y1705D01*
X4188Y1705D02*
X4195Y1705D01*
X0Y1704D02*
X7Y1704D01*
X4188Y1704D02*
X4195Y1704D01*
X0Y1703D02*
X7Y1703D01*
X4188Y1703D02*
X4195Y1703D01*
X0Y1702D02*
X7Y1702D01*
X4188Y1702D02*
X4195Y1702D01*
X0Y1701D02*
X7Y1701D01*
X4188Y1701D02*
X4195Y1701D01*
X0Y1700D02*
X7Y1700D01*
X4188Y1700D02*
X4195Y1700D01*
X0Y1699D02*
X7Y1699D01*
X4188Y1699D02*
X4195Y1699D01*
X0Y1698D02*
X7Y1698D01*
X4188Y1698D02*
X4195Y1698D01*
X0Y1697D02*
X7Y1697D01*
X4188Y1697D02*
X4195Y1697D01*
X0Y1696D02*
X7Y1696D01*
X4188Y1696D02*
X4195Y1696D01*
X0Y1695D02*
X7Y1695D01*
X4188Y1695D02*
X4195Y1695D01*
X0Y1694D02*
X7Y1694D01*
X4188Y1694D02*
X4195Y1694D01*
X0Y1693D02*
X7Y1693D01*
X4188Y1693D02*
X4195Y1693D01*
X0Y1692D02*
X7Y1692D01*
X4188Y1692D02*
X4195Y1692D01*
X0Y1691D02*
X7Y1691D01*
X4188Y1691D02*
X4195Y1691D01*
X0Y1690D02*
X7Y1690D01*
X4188Y1690D02*
X4195Y1690D01*
X0Y1689D02*
X7Y1689D01*
X4188Y1689D02*
X4195Y1689D01*
X0Y1688D02*
X7Y1688D01*
X4188Y1688D02*
X4195Y1688D01*
X0Y1687D02*
X7Y1687D01*
X4188Y1687D02*
X4195Y1687D01*
X0Y1686D02*
X7Y1686D01*
X4188Y1686D02*
X4195Y1686D01*
X0Y1685D02*
X7Y1685D01*
X4188Y1685D02*
X4195Y1685D01*
X0Y1684D02*
X7Y1684D01*
X4188Y1684D02*
X4195Y1684D01*
X0Y1683D02*
X7Y1683D01*
X4188Y1683D02*
X4195Y1683D01*
X0Y1682D02*
X7Y1682D01*
X4188Y1682D02*
X4195Y1682D01*
X0Y1681D02*
X7Y1681D01*
X4188Y1681D02*
X4195Y1681D01*
X0Y1680D02*
X7Y1680D01*
X4188Y1680D02*
X4195Y1680D01*
X0Y1679D02*
X7Y1679D01*
X4188Y1679D02*
X4195Y1679D01*
X0Y1678D02*
X7Y1678D01*
X4188Y1678D02*
X4195Y1678D01*
X0Y1677D02*
X7Y1677D01*
X4188Y1677D02*
X4195Y1677D01*
X0Y1676D02*
X7Y1676D01*
X4188Y1676D02*
X4195Y1676D01*
X0Y1675D02*
X7Y1675D01*
X4188Y1675D02*
X4195Y1675D01*
X0Y1674D02*
X7Y1674D01*
X4188Y1674D02*
X4195Y1674D01*
X0Y1673D02*
X7Y1673D01*
X4188Y1673D02*
X4195Y1673D01*
X0Y1672D02*
X7Y1672D01*
X4188Y1672D02*
X4195Y1672D01*
X0Y1671D02*
X7Y1671D01*
X4188Y1671D02*
X4195Y1671D01*
X0Y1670D02*
X7Y1670D01*
X4188Y1670D02*
X4195Y1670D01*
X0Y1669D02*
X7Y1669D01*
X4188Y1669D02*
X4195Y1669D01*
X0Y1668D02*
X7Y1668D01*
X4188Y1668D02*
X4195Y1668D01*
X0Y1667D02*
X7Y1667D01*
X4188Y1667D02*
X4195Y1667D01*
X0Y1666D02*
X7Y1666D01*
X4188Y1666D02*
X4195Y1666D01*
X0Y1665D02*
X7Y1665D01*
X4188Y1665D02*
X4195Y1665D01*
X0Y1664D02*
X7Y1664D01*
X4188Y1664D02*
X4195Y1664D01*
X0Y1663D02*
X7Y1663D01*
X4188Y1663D02*
X4195Y1663D01*
X0Y1662D02*
X7Y1662D01*
X4188Y1662D02*
X4195Y1662D01*
X0Y1661D02*
X7Y1661D01*
X4188Y1661D02*
X4195Y1661D01*
X0Y1660D02*
X7Y1660D01*
X4188Y1660D02*
X4195Y1660D01*
X0Y1659D02*
X7Y1659D01*
X4188Y1659D02*
X4195Y1659D01*
X0Y1658D02*
X7Y1658D01*
X4188Y1658D02*
X4195Y1658D01*
X0Y1657D02*
X7Y1657D01*
X4188Y1657D02*
X4195Y1657D01*
X0Y1656D02*
X7Y1656D01*
X4188Y1656D02*
X4195Y1656D01*
X0Y1655D02*
X7Y1655D01*
X4188Y1655D02*
X4195Y1655D01*
X0Y1654D02*
X7Y1654D01*
X4188Y1654D02*
X4195Y1654D01*
X0Y1653D02*
X7Y1653D01*
X4188Y1653D02*
X4195Y1653D01*
X0Y1652D02*
X7Y1652D01*
X4188Y1652D02*
X4195Y1652D01*
X0Y1651D02*
X7Y1651D01*
X4188Y1651D02*
X4195Y1651D01*
X0Y1650D02*
X7Y1650D01*
X4188Y1650D02*
X4195Y1650D01*
X0Y1649D02*
X7Y1649D01*
X4188Y1649D02*
X4195Y1649D01*
X0Y1648D02*
X7Y1648D01*
X4188Y1648D02*
X4195Y1648D01*
X0Y1647D02*
X7Y1647D01*
X4188Y1647D02*
X4195Y1647D01*
X0Y1646D02*
X7Y1646D01*
X4188Y1646D02*
X4195Y1646D01*
X0Y1645D02*
X7Y1645D01*
X4188Y1645D02*
X4195Y1645D01*
X0Y1644D02*
X7Y1644D01*
X4188Y1644D02*
X4195Y1644D01*
X0Y1643D02*
X7Y1643D01*
X4188Y1643D02*
X4195Y1643D01*
X0Y1642D02*
X7Y1642D01*
X4188Y1642D02*
X4195Y1642D01*
X0Y1641D02*
X7Y1641D01*
X4188Y1641D02*
X4195Y1641D01*
X0Y1640D02*
X7Y1640D01*
X4188Y1640D02*
X4195Y1640D01*
X0Y1639D02*
X7Y1639D01*
X4188Y1639D02*
X4195Y1639D01*
X0Y1638D02*
X7Y1638D01*
X4188Y1638D02*
X4195Y1638D01*
X0Y1637D02*
X7Y1637D01*
X4188Y1637D02*
X4195Y1637D01*
X0Y1636D02*
X7Y1636D01*
X4188Y1636D02*
X4195Y1636D01*
X0Y1635D02*
X7Y1635D01*
X4188Y1635D02*
X4195Y1635D01*
X0Y1634D02*
X7Y1634D01*
X4188Y1634D02*
X4195Y1634D01*
X0Y1633D02*
X7Y1633D01*
X4188Y1633D02*
X4195Y1633D01*
X0Y1632D02*
X7Y1632D01*
X4188Y1632D02*
X4195Y1632D01*
X0Y1631D02*
X7Y1631D01*
X4188Y1631D02*
X4195Y1631D01*
X0Y1630D02*
X7Y1630D01*
X4188Y1630D02*
X4195Y1630D01*
X0Y1629D02*
X7Y1629D01*
X4188Y1629D02*
X4195Y1629D01*
X0Y1628D02*
X7Y1628D01*
X4188Y1628D02*
X4195Y1628D01*
X0Y1627D02*
X7Y1627D01*
X4188Y1627D02*
X4195Y1627D01*
X0Y1626D02*
X7Y1626D01*
X4188Y1626D02*
X4195Y1626D01*
X0Y1625D02*
X7Y1625D01*
X4188Y1625D02*
X4195Y1625D01*
X0Y1624D02*
X7Y1624D01*
X4188Y1624D02*
X4195Y1624D01*
X0Y1623D02*
X7Y1623D01*
X4188Y1623D02*
X4195Y1623D01*
X0Y1622D02*
X7Y1622D01*
X4188Y1622D02*
X4195Y1622D01*
X0Y1621D02*
X7Y1621D01*
X4188Y1621D02*
X4195Y1621D01*
X0Y1620D02*
X7Y1620D01*
X4188Y1620D02*
X4195Y1620D01*
X0Y1619D02*
X7Y1619D01*
X4188Y1619D02*
X4195Y1619D01*
X0Y1618D02*
X7Y1618D01*
X4188Y1618D02*
X4195Y1618D01*
X0Y1617D02*
X7Y1617D01*
X4188Y1617D02*
X4195Y1617D01*
X0Y1616D02*
X7Y1616D01*
X4188Y1616D02*
X4195Y1616D01*
X0Y1615D02*
X7Y1615D01*
X4188Y1615D02*
X4195Y1615D01*
X0Y1614D02*
X7Y1614D01*
X4188Y1614D02*
X4195Y1614D01*
X0Y1613D02*
X7Y1613D01*
X4188Y1613D02*
X4195Y1613D01*
X0Y1612D02*
X7Y1612D01*
X4188Y1612D02*
X4195Y1612D01*
X0Y1611D02*
X7Y1611D01*
X4188Y1611D02*
X4195Y1611D01*
X0Y1610D02*
X7Y1610D01*
X4188Y1610D02*
X4195Y1610D01*
X0Y1609D02*
X7Y1609D01*
X4188Y1609D02*
X4195Y1609D01*
X0Y1608D02*
X7Y1608D01*
X4188Y1608D02*
X4195Y1608D01*
X0Y1607D02*
X7Y1607D01*
X4188Y1607D02*
X4195Y1607D01*
X0Y1606D02*
X7Y1606D01*
X4188Y1606D02*
X4195Y1606D01*
X0Y1605D02*
X7Y1605D01*
X4188Y1605D02*
X4195Y1605D01*
X0Y1604D02*
X7Y1604D01*
X4188Y1604D02*
X4195Y1604D01*
X0Y1603D02*
X7Y1603D01*
X4188Y1603D02*
X4195Y1603D01*
X0Y1602D02*
X7Y1602D01*
X4188Y1602D02*
X4195Y1602D01*
X0Y1601D02*
X7Y1601D01*
X4188Y1601D02*
X4195Y1601D01*
X0Y1600D02*
X7Y1600D01*
X4188Y1600D02*
X4195Y1600D01*
X0Y1599D02*
X7Y1599D01*
X4188Y1599D02*
X4195Y1599D01*
X0Y1598D02*
X7Y1598D01*
X4188Y1598D02*
X4195Y1598D01*
X0Y1597D02*
X7Y1597D01*
X4188Y1597D02*
X4195Y1597D01*
X0Y1596D02*
X7Y1596D01*
X4188Y1596D02*
X4195Y1596D01*
X0Y1595D02*
X7Y1595D01*
X4188Y1595D02*
X4195Y1595D01*
X0Y1594D02*
X7Y1594D01*
X4188Y1594D02*
X4195Y1594D01*
X0Y1593D02*
X7Y1593D01*
X4188Y1593D02*
X4195Y1593D01*
X0Y1592D02*
X7Y1592D01*
X4188Y1592D02*
X4195Y1592D01*
X0Y1591D02*
X7Y1591D01*
X4188Y1591D02*
X4195Y1591D01*
X0Y1590D02*
X7Y1590D01*
X4188Y1590D02*
X4195Y1590D01*
X0Y1589D02*
X7Y1589D01*
X4188Y1589D02*
X4195Y1589D01*
X0Y1588D02*
X7Y1588D01*
X4188Y1588D02*
X4195Y1588D01*
X0Y1587D02*
X7Y1587D01*
X4188Y1587D02*
X4195Y1587D01*
X0Y1586D02*
X7Y1586D01*
X4188Y1586D02*
X4195Y1586D01*
X0Y1585D02*
X7Y1585D01*
X4188Y1585D02*
X4195Y1585D01*
X0Y1584D02*
X7Y1584D01*
X4188Y1584D02*
X4195Y1584D01*
X0Y1583D02*
X7Y1583D01*
X4188Y1583D02*
X4195Y1583D01*
X0Y1582D02*
X7Y1582D01*
X4188Y1582D02*
X4195Y1582D01*
X0Y1581D02*
X7Y1581D01*
X4188Y1581D02*
X4195Y1581D01*
X0Y1580D02*
X7Y1580D01*
X4188Y1580D02*
X4195Y1580D01*
X0Y1579D02*
X7Y1579D01*
X4188Y1579D02*
X4195Y1579D01*
X0Y1578D02*
X7Y1578D01*
X4188Y1578D02*
X4195Y1578D01*
X0Y1577D02*
X7Y1577D01*
X4188Y1577D02*
X4195Y1577D01*
X0Y1576D02*
X7Y1576D01*
X4188Y1576D02*
X4195Y1576D01*
X0Y1575D02*
X7Y1575D01*
X4188Y1575D02*
X4195Y1575D01*
X0Y1574D02*
X7Y1574D01*
X4188Y1574D02*
X4195Y1574D01*
X0Y1573D02*
X7Y1573D01*
X4188Y1573D02*
X4195Y1573D01*
X0Y1572D02*
X7Y1572D01*
X4188Y1572D02*
X4195Y1572D01*
X0Y1571D02*
X7Y1571D01*
X4188Y1571D02*
X4195Y1571D01*
X0Y1570D02*
X7Y1570D01*
X4188Y1570D02*
X4195Y1570D01*
X0Y1569D02*
X7Y1569D01*
X4188Y1569D02*
X4195Y1569D01*
X0Y1568D02*
X7Y1568D01*
X4188Y1568D02*
X4195Y1568D01*
X0Y1567D02*
X7Y1567D01*
X4188Y1567D02*
X4195Y1567D01*
X0Y1566D02*
X7Y1566D01*
X4188Y1566D02*
X4195Y1566D01*
X0Y1565D02*
X7Y1565D01*
X4188Y1565D02*
X4195Y1565D01*
X0Y1564D02*
X7Y1564D01*
X4188Y1564D02*
X4195Y1564D01*
X0Y1563D02*
X7Y1563D01*
X4188Y1563D02*
X4195Y1563D01*
X0Y1562D02*
X7Y1562D01*
X4188Y1562D02*
X4195Y1562D01*
X0Y1561D02*
X7Y1561D01*
X4188Y1561D02*
X4195Y1561D01*
X0Y1560D02*
X7Y1560D01*
X4188Y1560D02*
X4195Y1560D01*
X0Y1559D02*
X7Y1559D01*
X4188Y1559D02*
X4195Y1559D01*
X0Y1558D02*
X7Y1558D01*
X4188Y1558D02*
X4195Y1558D01*
X0Y1557D02*
X7Y1557D01*
X4188Y1557D02*
X4195Y1557D01*
X0Y1556D02*
X7Y1556D01*
X4188Y1556D02*
X4195Y1556D01*
X0Y1555D02*
X7Y1555D01*
X4188Y1555D02*
X4195Y1555D01*
X0Y1554D02*
X7Y1554D01*
X4188Y1554D02*
X4195Y1554D01*
X0Y1553D02*
X7Y1553D01*
X4188Y1553D02*
X4195Y1553D01*
X0Y1552D02*
X7Y1552D01*
X4188Y1552D02*
X4195Y1552D01*
X0Y1551D02*
X7Y1551D01*
X4188Y1551D02*
X4195Y1551D01*
X0Y1550D02*
X7Y1550D01*
X4188Y1550D02*
X4195Y1550D01*
X0Y1549D02*
X7Y1549D01*
X4188Y1549D02*
X4195Y1549D01*
X0Y1548D02*
X7Y1548D01*
X4188Y1548D02*
X4195Y1548D01*
X0Y1547D02*
X7Y1547D01*
X4188Y1547D02*
X4195Y1547D01*
X0Y1546D02*
X7Y1546D01*
X4188Y1546D02*
X4195Y1546D01*
X0Y1545D02*
X7Y1545D01*
X4188Y1545D02*
X4195Y1545D01*
X0Y1544D02*
X7Y1544D01*
X4188Y1544D02*
X4195Y1544D01*
X0Y1543D02*
X7Y1543D01*
X4188Y1543D02*
X4195Y1543D01*
X0Y1542D02*
X7Y1542D01*
X4188Y1542D02*
X4195Y1542D01*
X0Y1541D02*
X7Y1541D01*
X4188Y1541D02*
X4195Y1541D01*
X0Y1540D02*
X7Y1540D01*
X4188Y1540D02*
X4195Y1540D01*
X0Y1539D02*
X7Y1539D01*
X4188Y1539D02*
X4195Y1539D01*
X0Y1538D02*
X7Y1538D01*
X4188Y1538D02*
X4195Y1538D01*
X0Y1537D02*
X7Y1537D01*
X4188Y1537D02*
X4195Y1537D01*
X0Y1536D02*
X7Y1536D01*
X4188Y1536D02*
X4195Y1536D01*
X0Y1535D02*
X7Y1535D01*
X4188Y1535D02*
X4195Y1535D01*
X0Y1534D02*
X7Y1534D01*
X4188Y1534D02*
X4195Y1534D01*
X0Y1533D02*
X7Y1533D01*
X4188Y1533D02*
X4195Y1533D01*
X0Y1532D02*
X7Y1532D01*
X4188Y1532D02*
X4195Y1532D01*
X0Y1531D02*
X7Y1531D01*
X4188Y1531D02*
X4195Y1531D01*
X0Y1530D02*
X7Y1530D01*
X4188Y1530D02*
X4195Y1530D01*
X0Y1529D02*
X7Y1529D01*
X4188Y1529D02*
X4195Y1529D01*
X0Y1528D02*
X7Y1528D01*
X4188Y1528D02*
X4195Y1528D01*
X0Y1527D02*
X7Y1527D01*
X4188Y1527D02*
X4195Y1527D01*
X0Y1526D02*
X7Y1526D01*
X4188Y1526D02*
X4195Y1526D01*
X0Y1525D02*
X7Y1525D01*
X4188Y1525D02*
X4195Y1525D01*
X0Y1524D02*
X7Y1524D01*
X4188Y1524D02*
X4195Y1524D01*
X0Y1523D02*
X7Y1523D01*
X4188Y1523D02*
X4195Y1523D01*
X0Y1522D02*
X7Y1522D01*
X4188Y1522D02*
X4195Y1522D01*
X0Y1521D02*
X7Y1521D01*
X4188Y1521D02*
X4195Y1521D01*
X0Y1520D02*
X7Y1520D01*
X4188Y1520D02*
X4195Y1520D01*
X0Y1519D02*
X7Y1519D01*
X4188Y1519D02*
X4195Y1519D01*
X0Y1518D02*
X7Y1518D01*
X4188Y1518D02*
X4195Y1518D01*
X0Y1517D02*
X7Y1517D01*
X4188Y1517D02*
X4195Y1517D01*
X0Y1516D02*
X7Y1516D01*
X4188Y1516D02*
X4195Y1516D01*
X0Y1515D02*
X7Y1515D01*
X4188Y1515D02*
X4195Y1515D01*
X0Y1514D02*
X7Y1514D01*
X4188Y1514D02*
X4195Y1514D01*
X0Y1513D02*
X7Y1513D01*
X4188Y1513D02*
X4195Y1513D01*
X0Y1512D02*
X7Y1512D01*
X4188Y1512D02*
X4195Y1512D01*
X0Y1511D02*
X7Y1511D01*
X4188Y1511D02*
X4195Y1511D01*
X0Y1510D02*
X7Y1510D01*
X4188Y1510D02*
X4195Y1510D01*
X0Y1509D02*
X7Y1509D01*
X4188Y1509D02*
X4195Y1509D01*
X0Y1508D02*
X7Y1508D01*
X4188Y1508D02*
X4195Y1508D01*
X0Y1507D02*
X7Y1507D01*
X4188Y1507D02*
X4195Y1507D01*
X0Y1506D02*
X7Y1506D01*
X4188Y1506D02*
X4195Y1506D01*
X0Y1505D02*
X7Y1505D01*
X4188Y1505D02*
X4195Y1505D01*
X0Y1504D02*
X7Y1504D01*
X4188Y1504D02*
X4195Y1504D01*
X0Y1503D02*
X7Y1503D01*
X4188Y1503D02*
X4195Y1503D01*
X0Y1502D02*
X7Y1502D01*
X4188Y1502D02*
X4195Y1502D01*
X0Y1501D02*
X7Y1501D01*
X4188Y1501D02*
X4195Y1501D01*
X0Y1500D02*
X7Y1500D01*
X4188Y1500D02*
X4195Y1500D01*
X0Y1499D02*
X7Y1499D01*
X4188Y1499D02*
X4195Y1499D01*
X0Y1498D02*
X7Y1498D01*
X4188Y1498D02*
X4195Y1498D01*
X0Y1497D02*
X7Y1497D01*
X4188Y1497D02*
X4195Y1497D01*
X0Y1496D02*
X7Y1496D01*
X4188Y1496D02*
X4195Y1496D01*
X0Y1495D02*
X7Y1495D01*
X4188Y1495D02*
X4195Y1495D01*
X0Y1494D02*
X7Y1494D01*
X4188Y1494D02*
X4195Y1494D01*
X0Y1493D02*
X7Y1493D01*
X4188Y1493D02*
X4195Y1493D01*
X0Y1492D02*
X7Y1492D01*
X4188Y1492D02*
X4195Y1492D01*
X0Y1491D02*
X7Y1491D01*
X4188Y1491D02*
X4195Y1491D01*
X0Y1490D02*
X7Y1490D01*
X4188Y1490D02*
X4195Y1490D01*
X0Y1489D02*
X7Y1489D01*
X4188Y1489D02*
X4195Y1489D01*
X0Y1488D02*
X7Y1488D01*
X4188Y1488D02*
X4195Y1488D01*
X0Y1487D02*
X7Y1487D01*
X4188Y1487D02*
X4195Y1487D01*
X0Y1486D02*
X7Y1486D01*
X4188Y1486D02*
X4195Y1486D01*
X0Y1485D02*
X7Y1485D01*
X4188Y1485D02*
X4195Y1485D01*
X0Y1484D02*
X7Y1484D01*
X4188Y1484D02*
X4195Y1484D01*
X0Y1483D02*
X7Y1483D01*
X4188Y1483D02*
X4195Y1483D01*
X0Y1482D02*
X7Y1482D01*
X4188Y1482D02*
X4195Y1482D01*
X0Y1481D02*
X7Y1481D01*
X4188Y1481D02*
X4195Y1481D01*
X0Y1480D02*
X7Y1480D01*
X4188Y1480D02*
X4195Y1480D01*
X0Y1479D02*
X7Y1479D01*
X4188Y1479D02*
X4195Y1479D01*
X0Y1478D02*
X7Y1478D01*
X4188Y1478D02*
X4195Y1478D01*
X0Y1477D02*
X7Y1477D01*
X4188Y1477D02*
X4195Y1477D01*
X0Y1476D02*
X7Y1476D01*
X4188Y1476D02*
X4195Y1476D01*
X0Y1475D02*
X7Y1475D01*
X4188Y1475D02*
X4195Y1475D01*
X0Y1474D02*
X7Y1474D01*
X4188Y1474D02*
X4195Y1474D01*
X0Y1473D02*
X7Y1473D01*
X4188Y1473D02*
X4195Y1473D01*
X0Y1472D02*
X7Y1472D01*
X4188Y1472D02*
X4195Y1472D01*
X0Y1471D02*
X7Y1471D01*
X4188Y1471D02*
X4195Y1471D01*
X0Y1470D02*
X7Y1470D01*
X4188Y1470D02*
X4195Y1470D01*
X0Y1469D02*
X7Y1469D01*
X4188Y1469D02*
X4195Y1469D01*
X0Y1468D02*
X7Y1468D01*
X4188Y1468D02*
X4195Y1468D01*
X0Y1467D02*
X7Y1467D01*
X4188Y1467D02*
X4195Y1467D01*
X0Y1466D02*
X7Y1466D01*
X4188Y1466D02*
X4195Y1466D01*
X0Y1465D02*
X7Y1465D01*
X4188Y1465D02*
X4195Y1465D01*
X0Y1464D02*
X7Y1464D01*
X4188Y1464D02*
X4195Y1464D01*
X0Y1463D02*
X7Y1463D01*
X4188Y1463D02*
X4195Y1463D01*
X0Y1462D02*
X7Y1462D01*
X4188Y1462D02*
X4195Y1462D01*
X0Y1461D02*
X7Y1461D01*
X4188Y1461D02*
X4195Y1461D01*
X0Y1460D02*
X7Y1460D01*
X4188Y1460D02*
X4195Y1460D01*
X0Y1459D02*
X7Y1459D01*
X4188Y1459D02*
X4195Y1459D01*
X0Y1458D02*
X7Y1458D01*
X4188Y1458D02*
X4195Y1458D01*
X0Y1457D02*
X7Y1457D01*
X4188Y1457D02*
X4195Y1457D01*
X0Y1456D02*
X7Y1456D01*
X4188Y1456D02*
X4195Y1456D01*
X0Y1455D02*
X7Y1455D01*
X4188Y1455D02*
X4195Y1455D01*
X0Y1454D02*
X7Y1454D01*
X4188Y1454D02*
X4195Y1454D01*
X0Y1453D02*
X7Y1453D01*
X4188Y1453D02*
X4195Y1453D01*
X0Y1452D02*
X7Y1452D01*
X4188Y1452D02*
X4195Y1452D01*
X0Y1451D02*
X7Y1451D01*
X4188Y1451D02*
X4195Y1451D01*
X0Y1450D02*
X7Y1450D01*
X4188Y1450D02*
X4195Y1450D01*
X0Y1449D02*
X7Y1449D01*
X4188Y1449D02*
X4195Y1449D01*
X0Y1448D02*
X7Y1448D01*
X4188Y1448D02*
X4195Y1448D01*
X0Y1447D02*
X7Y1447D01*
X4188Y1447D02*
X4195Y1447D01*
X0Y1446D02*
X7Y1446D01*
X4188Y1446D02*
X4195Y1446D01*
X0Y1445D02*
X7Y1445D01*
X4188Y1445D02*
X4195Y1445D01*
X0Y1444D02*
X7Y1444D01*
X4188Y1444D02*
X4195Y1444D01*
X0Y1443D02*
X7Y1443D01*
X4188Y1443D02*
X4195Y1443D01*
X0Y1442D02*
X7Y1442D01*
X4188Y1442D02*
X4195Y1442D01*
X0Y1441D02*
X7Y1441D01*
X4188Y1441D02*
X4195Y1441D01*
X0Y1440D02*
X7Y1440D01*
X4188Y1440D02*
X4195Y1440D01*
X0Y1439D02*
X7Y1439D01*
X4188Y1439D02*
X4195Y1439D01*
X0Y1438D02*
X7Y1438D01*
X4188Y1438D02*
X4195Y1438D01*
X0Y1437D02*
X7Y1437D01*
X4188Y1437D02*
X4195Y1437D01*
X0Y1436D02*
X7Y1436D01*
X4188Y1436D02*
X4195Y1436D01*
X0Y1435D02*
X7Y1435D01*
X4188Y1435D02*
X4195Y1435D01*
X0Y1434D02*
X7Y1434D01*
X4188Y1434D02*
X4195Y1434D01*
X0Y1433D02*
X7Y1433D01*
X4188Y1433D02*
X4195Y1433D01*
X0Y1432D02*
X7Y1432D01*
X4188Y1432D02*
X4195Y1432D01*
X0Y1431D02*
X7Y1431D01*
X4188Y1431D02*
X4195Y1431D01*
X0Y1430D02*
X7Y1430D01*
X4188Y1430D02*
X4195Y1430D01*
X0Y1429D02*
X7Y1429D01*
X4188Y1429D02*
X4195Y1429D01*
X0Y1428D02*
X7Y1428D01*
X4188Y1428D02*
X4195Y1428D01*
X0Y1427D02*
X7Y1427D01*
X4188Y1427D02*
X4195Y1427D01*
X0Y1426D02*
X7Y1426D01*
X4188Y1426D02*
X4195Y1426D01*
X0Y1425D02*
X7Y1425D01*
X4188Y1425D02*
X4195Y1425D01*
X0Y1424D02*
X7Y1424D01*
X4188Y1424D02*
X4195Y1424D01*
X0Y1423D02*
X7Y1423D01*
X4188Y1423D02*
X4195Y1423D01*
X0Y1422D02*
X7Y1422D01*
X4188Y1422D02*
X4195Y1422D01*
X0Y1421D02*
X7Y1421D01*
X4188Y1421D02*
X4195Y1421D01*
X0Y1420D02*
X7Y1420D01*
X4188Y1420D02*
X4195Y1420D01*
X0Y1419D02*
X7Y1419D01*
X4188Y1419D02*
X4195Y1419D01*
X0Y1418D02*
X7Y1418D01*
X4188Y1418D02*
X4195Y1418D01*
X0Y1417D02*
X7Y1417D01*
X4188Y1417D02*
X4195Y1417D01*
X0Y1416D02*
X7Y1416D01*
X4188Y1416D02*
X4195Y1416D01*
X0Y1415D02*
X7Y1415D01*
X4188Y1415D02*
X4195Y1415D01*
X0Y1414D02*
X7Y1414D01*
X4188Y1414D02*
X4195Y1414D01*
X0Y1413D02*
X7Y1413D01*
X4188Y1413D02*
X4195Y1413D01*
X0Y1412D02*
X7Y1412D01*
X4188Y1412D02*
X4195Y1412D01*
X0Y1411D02*
X7Y1411D01*
X4188Y1411D02*
X4195Y1411D01*
X0Y1410D02*
X7Y1410D01*
X4188Y1410D02*
X4195Y1410D01*
X0Y1409D02*
X7Y1409D01*
X4188Y1409D02*
X4195Y1409D01*
X0Y1408D02*
X7Y1408D01*
X4188Y1408D02*
X4195Y1408D01*
X0Y1407D02*
X7Y1407D01*
X4188Y1407D02*
X4195Y1407D01*
X0Y1406D02*
X7Y1406D01*
X4188Y1406D02*
X4195Y1406D01*
X0Y1405D02*
X7Y1405D01*
X4188Y1405D02*
X4195Y1405D01*
X0Y1404D02*
X7Y1404D01*
X4188Y1404D02*
X4195Y1404D01*
X0Y1403D02*
X7Y1403D01*
X4188Y1403D02*
X4195Y1403D01*
X0Y1402D02*
X7Y1402D01*
X4188Y1402D02*
X4195Y1402D01*
X0Y1401D02*
X7Y1401D01*
X4188Y1401D02*
X4195Y1401D01*
X0Y1400D02*
X7Y1400D01*
X4188Y1400D02*
X4195Y1400D01*
X0Y1399D02*
X7Y1399D01*
X4188Y1399D02*
X4195Y1399D01*
X0Y1398D02*
X7Y1398D01*
X4188Y1398D02*
X4195Y1398D01*
X0Y1397D02*
X7Y1397D01*
X4188Y1397D02*
X4195Y1397D01*
X0Y1396D02*
X7Y1396D01*
X4188Y1396D02*
X4195Y1396D01*
X0Y1395D02*
X7Y1395D01*
X4188Y1395D02*
X4195Y1395D01*
X0Y1394D02*
X7Y1394D01*
X4188Y1394D02*
X4195Y1394D01*
X0Y1393D02*
X7Y1393D01*
X4188Y1393D02*
X4195Y1393D01*
X0Y1392D02*
X7Y1392D01*
X4188Y1392D02*
X4195Y1392D01*
X0Y1391D02*
X7Y1391D01*
X4188Y1391D02*
X4195Y1391D01*
X0Y1390D02*
X7Y1390D01*
X4188Y1390D02*
X4195Y1390D01*
X0Y1389D02*
X7Y1389D01*
X4188Y1389D02*
X4195Y1389D01*
X0Y1388D02*
X7Y1388D01*
X4188Y1388D02*
X4195Y1388D01*
X0Y1387D02*
X7Y1387D01*
X4188Y1387D02*
X4195Y1387D01*
X0Y1386D02*
X7Y1386D01*
X4188Y1386D02*
X4195Y1386D01*
X0Y1385D02*
X7Y1385D01*
X4188Y1385D02*
X4195Y1385D01*
X0Y1384D02*
X7Y1384D01*
X4188Y1384D02*
X4195Y1384D01*
X0Y1383D02*
X7Y1383D01*
X4188Y1383D02*
X4195Y1383D01*
X0Y1382D02*
X7Y1382D01*
X4188Y1382D02*
X4195Y1382D01*
X0Y1381D02*
X7Y1381D01*
X4188Y1381D02*
X4195Y1381D01*
X0Y1380D02*
X7Y1380D01*
X4188Y1380D02*
X4195Y1380D01*
X0Y1379D02*
X7Y1379D01*
X4188Y1379D02*
X4195Y1379D01*
X0Y1378D02*
X7Y1378D01*
X4188Y1378D02*
X4195Y1378D01*
X0Y1377D02*
X7Y1377D01*
X4188Y1377D02*
X4195Y1377D01*
X0Y1376D02*
X7Y1376D01*
X4188Y1376D02*
X4195Y1376D01*
X0Y1375D02*
X7Y1375D01*
X4188Y1375D02*
X4195Y1375D01*
X0Y1374D02*
X7Y1374D01*
X4188Y1374D02*
X4195Y1374D01*
X0Y1373D02*
X7Y1373D01*
X4188Y1373D02*
X4195Y1373D01*
X0Y1372D02*
X7Y1372D01*
X4188Y1372D02*
X4195Y1372D01*
X0Y1371D02*
X7Y1371D01*
X4188Y1371D02*
X4195Y1371D01*
X0Y1370D02*
X7Y1370D01*
X4188Y1370D02*
X4195Y1370D01*
X0Y1369D02*
X7Y1369D01*
X4188Y1369D02*
X4195Y1369D01*
X0Y1368D02*
X7Y1368D01*
X4188Y1368D02*
X4195Y1368D01*
X0Y1367D02*
X7Y1367D01*
X4188Y1367D02*
X4195Y1367D01*
X0Y1366D02*
X7Y1366D01*
X4188Y1366D02*
X4195Y1366D01*
X0Y1365D02*
X7Y1365D01*
X4188Y1365D02*
X4195Y1365D01*
X0Y1364D02*
X7Y1364D01*
X4188Y1364D02*
X4195Y1364D01*
X0Y1363D02*
X7Y1363D01*
X4188Y1363D02*
X4195Y1363D01*
X0Y1362D02*
X7Y1362D01*
X4188Y1362D02*
X4195Y1362D01*
X0Y1361D02*
X7Y1361D01*
X4188Y1361D02*
X4195Y1361D01*
X0Y1360D02*
X7Y1360D01*
X4188Y1360D02*
X4195Y1360D01*
X0Y1359D02*
X7Y1359D01*
X4188Y1359D02*
X4195Y1359D01*
X0Y1358D02*
X7Y1358D01*
X4188Y1358D02*
X4195Y1358D01*
X0Y1357D02*
X7Y1357D01*
X4188Y1357D02*
X4195Y1357D01*
X0Y1356D02*
X7Y1356D01*
X4188Y1356D02*
X4195Y1356D01*
X0Y1355D02*
X7Y1355D01*
X4188Y1355D02*
X4195Y1355D01*
X0Y1354D02*
X7Y1354D01*
X4188Y1354D02*
X4195Y1354D01*
X0Y1353D02*
X7Y1353D01*
X4188Y1353D02*
X4195Y1353D01*
X0Y1352D02*
X7Y1352D01*
X4188Y1352D02*
X4195Y1352D01*
X0Y1351D02*
X7Y1351D01*
X4188Y1351D02*
X4195Y1351D01*
X0Y1350D02*
X7Y1350D01*
X4188Y1350D02*
X4195Y1350D01*
X0Y1349D02*
X7Y1349D01*
X4188Y1349D02*
X4195Y1349D01*
X0Y1348D02*
X7Y1348D01*
X4188Y1348D02*
X4195Y1348D01*
X0Y1347D02*
X7Y1347D01*
X4188Y1347D02*
X4195Y1347D01*
X0Y1346D02*
X7Y1346D01*
X4188Y1346D02*
X4195Y1346D01*
X0Y1345D02*
X7Y1345D01*
X4188Y1345D02*
X4195Y1345D01*
X0Y1344D02*
X7Y1344D01*
X4188Y1344D02*
X4195Y1344D01*
X0Y1343D02*
X7Y1343D01*
X4188Y1343D02*
X4195Y1343D01*
X0Y1342D02*
X7Y1342D01*
X4188Y1342D02*
X4195Y1342D01*
X0Y1341D02*
X7Y1341D01*
X4188Y1341D02*
X4195Y1341D01*
X0Y1340D02*
X7Y1340D01*
X4188Y1340D02*
X4195Y1340D01*
X0Y1339D02*
X7Y1339D01*
X4188Y1339D02*
X4195Y1339D01*
X0Y1338D02*
X7Y1338D01*
X4188Y1338D02*
X4195Y1338D01*
X0Y1337D02*
X7Y1337D01*
X4188Y1337D02*
X4195Y1337D01*
X0Y1336D02*
X7Y1336D01*
X4188Y1336D02*
X4195Y1336D01*
X0Y1335D02*
X7Y1335D01*
X4188Y1335D02*
X4195Y1335D01*
X0Y1334D02*
X7Y1334D01*
X4188Y1334D02*
X4195Y1334D01*
X0Y1333D02*
X7Y1333D01*
X4188Y1333D02*
X4195Y1333D01*
X0Y1332D02*
X7Y1332D01*
X4188Y1332D02*
X4195Y1332D01*
X0Y1331D02*
X7Y1331D01*
X4188Y1331D02*
X4195Y1331D01*
X0Y1330D02*
X7Y1330D01*
X4188Y1330D02*
X4195Y1330D01*
X0Y1329D02*
X7Y1329D01*
X4188Y1329D02*
X4195Y1329D01*
X0Y1328D02*
X7Y1328D01*
X4188Y1328D02*
X4195Y1328D01*
X0Y1327D02*
X7Y1327D01*
X4188Y1327D02*
X4195Y1327D01*
X0Y1326D02*
X7Y1326D01*
X4188Y1326D02*
X4195Y1326D01*
X0Y1325D02*
X7Y1325D01*
X4188Y1325D02*
X4195Y1325D01*
X0Y1324D02*
X7Y1324D01*
X4188Y1324D02*
X4195Y1324D01*
X0Y1323D02*
X7Y1323D01*
X4188Y1323D02*
X4195Y1323D01*
X0Y1322D02*
X7Y1322D01*
X4188Y1322D02*
X4195Y1322D01*
X0Y1321D02*
X7Y1321D01*
X4188Y1321D02*
X4195Y1321D01*
X0Y1320D02*
X7Y1320D01*
X4188Y1320D02*
X4195Y1320D01*
X0Y1319D02*
X7Y1319D01*
X4188Y1319D02*
X4195Y1319D01*
X0Y1318D02*
X7Y1318D01*
X4188Y1318D02*
X4195Y1318D01*
X0Y1317D02*
X7Y1317D01*
X4188Y1317D02*
X4195Y1317D01*
X0Y1316D02*
X7Y1316D01*
X4188Y1316D02*
X4195Y1316D01*
X0Y1315D02*
X7Y1315D01*
X4188Y1315D02*
X4195Y1315D01*
X0Y1314D02*
X7Y1314D01*
X4188Y1314D02*
X4195Y1314D01*
X0Y1313D02*
X7Y1313D01*
X4188Y1313D02*
X4195Y1313D01*
X0Y1312D02*
X7Y1312D01*
X4188Y1312D02*
X4195Y1312D01*
X0Y1311D02*
X7Y1311D01*
X4188Y1311D02*
X4195Y1311D01*
X0Y1310D02*
X7Y1310D01*
X4188Y1310D02*
X4195Y1310D01*
X0Y1309D02*
X7Y1309D01*
X4188Y1309D02*
X4195Y1309D01*
X0Y1308D02*
X7Y1308D01*
X4188Y1308D02*
X4195Y1308D01*
X0Y1307D02*
X7Y1307D01*
X4188Y1307D02*
X4195Y1307D01*
X0Y1306D02*
X7Y1306D01*
X4188Y1306D02*
X4195Y1306D01*
X0Y1305D02*
X7Y1305D01*
X4188Y1305D02*
X4195Y1305D01*
X0Y1304D02*
X7Y1304D01*
X4188Y1304D02*
X4195Y1304D01*
X0Y1303D02*
X7Y1303D01*
X4188Y1303D02*
X4195Y1303D01*
X0Y1302D02*
X7Y1302D01*
X4188Y1302D02*
X4195Y1302D01*
X0Y1301D02*
X7Y1301D01*
X4188Y1301D02*
X4195Y1301D01*
X0Y1300D02*
X7Y1300D01*
X4188Y1300D02*
X4195Y1300D01*
X0Y1299D02*
X7Y1299D01*
X4188Y1299D02*
X4195Y1299D01*
X0Y1298D02*
X7Y1298D01*
X4188Y1298D02*
X4195Y1298D01*
X0Y1297D02*
X7Y1297D01*
X4188Y1297D02*
X4195Y1297D01*
X0Y1296D02*
X7Y1296D01*
X4188Y1296D02*
X4195Y1296D01*
X0Y1295D02*
X7Y1295D01*
X4188Y1295D02*
X4195Y1295D01*
X0Y1294D02*
X7Y1294D01*
X4188Y1294D02*
X4195Y1294D01*
X0Y1293D02*
X7Y1293D01*
X4188Y1293D02*
X4195Y1293D01*
X0Y1292D02*
X7Y1292D01*
X4188Y1292D02*
X4195Y1292D01*
X0Y1291D02*
X7Y1291D01*
X4188Y1291D02*
X4195Y1291D01*
X0Y1290D02*
X7Y1290D01*
X4188Y1290D02*
X4195Y1290D01*
X0Y1289D02*
X7Y1289D01*
X4188Y1289D02*
X4195Y1289D01*
X0Y1288D02*
X7Y1288D01*
X4188Y1288D02*
X4195Y1288D01*
X0Y1287D02*
X7Y1287D01*
X4188Y1287D02*
X4195Y1287D01*
X0Y1286D02*
X7Y1286D01*
X4188Y1286D02*
X4195Y1286D01*
X0Y1285D02*
X7Y1285D01*
X4188Y1285D02*
X4195Y1285D01*
X0Y1284D02*
X7Y1284D01*
X4188Y1284D02*
X4195Y1284D01*
X0Y1283D02*
X7Y1283D01*
X4188Y1283D02*
X4195Y1283D01*
X0Y1282D02*
X7Y1282D01*
X4188Y1282D02*
X4195Y1282D01*
X0Y1281D02*
X7Y1281D01*
X4188Y1281D02*
X4195Y1281D01*
X0Y1280D02*
X7Y1280D01*
X4188Y1280D02*
X4195Y1280D01*
X0Y1279D02*
X7Y1279D01*
X4188Y1279D02*
X4195Y1279D01*
X0Y1278D02*
X7Y1278D01*
X4188Y1278D02*
X4195Y1278D01*
X0Y1277D02*
X7Y1277D01*
X4188Y1277D02*
X4195Y1277D01*
X0Y1276D02*
X7Y1276D01*
X4188Y1276D02*
X4195Y1276D01*
X0Y1275D02*
X7Y1275D01*
X4188Y1275D02*
X4195Y1275D01*
X0Y1274D02*
X7Y1274D01*
X4188Y1274D02*
X4195Y1274D01*
X0Y1273D02*
X7Y1273D01*
X4188Y1273D02*
X4195Y1273D01*
X0Y1272D02*
X7Y1272D01*
X4188Y1272D02*
X4195Y1272D01*
X0Y1271D02*
X7Y1271D01*
X4188Y1271D02*
X4195Y1271D01*
X0Y1270D02*
X7Y1270D01*
X4188Y1270D02*
X4195Y1270D01*
X0Y1269D02*
X7Y1269D01*
X4188Y1269D02*
X4195Y1269D01*
X0Y1268D02*
X7Y1268D01*
X4188Y1268D02*
X4195Y1268D01*
X0Y1267D02*
X7Y1267D01*
X4188Y1267D02*
X4195Y1267D01*
X0Y1266D02*
X7Y1266D01*
X4188Y1266D02*
X4195Y1266D01*
X0Y1265D02*
X7Y1265D01*
X4188Y1265D02*
X4195Y1265D01*
X0Y1264D02*
X7Y1264D01*
X4188Y1264D02*
X4195Y1264D01*
X0Y1263D02*
X7Y1263D01*
X4188Y1263D02*
X4195Y1263D01*
X0Y1262D02*
X7Y1262D01*
X4188Y1262D02*
X4195Y1262D01*
X0Y1261D02*
X7Y1261D01*
X4188Y1261D02*
X4195Y1261D01*
X0Y1260D02*
X7Y1260D01*
X4188Y1260D02*
X4195Y1260D01*
X0Y1259D02*
X7Y1259D01*
X4188Y1259D02*
X4195Y1259D01*
X0Y1258D02*
X7Y1258D01*
X4188Y1258D02*
X4195Y1258D01*
X0Y1257D02*
X7Y1257D01*
X4188Y1257D02*
X4195Y1257D01*
X0Y1256D02*
X7Y1256D01*
X4188Y1256D02*
X4195Y1256D01*
X0Y1255D02*
X7Y1255D01*
X4188Y1255D02*
X4195Y1255D01*
X0Y1254D02*
X7Y1254D01*
X4188Y1254D02*
X4195Y1254D01*
X0Y1253D02*
X7Y1253D01*
X4188Y1253D02*
X4195Y1253D01*
X0Y1252D02*
X7Y1252D01*
X4188Y1252D02*
X4195Y1252D01*
X0Y1251D02*
X7Y1251D01*
X4188Y1251D02*
X4195Y1251D01*
X0Y1250D02*
X7Y1250D01*
X4188Y1250D02*
X4195Y1250D01*
X0Y1249D02*
X7Y1249D01*
X4188Y1249D02*
X4195Y1249D01*
X0Y1248D02*
X7Y1248D01*
X4188Y1248D02*
X4195Y1248D01*
X0Y1247D02*
X7Y1247D01*
X4188Y1247D02*
X4195Y1247D01*
X0Y1246D02*
X7Y1246D01*
X4188Y1246D02*
X4195Y1246D01*
X0Y1245D02*
X7Y1245D01*
X4188Y1245D02*
X4195Y1245D01*
X0Y1244D02*
X7Y1244D01*
X4188Y1244D02*
X4195Y1244D01*
X0Y1243D02*
X7Y1243D01*
X4188Y1243D02*
X4195Y1243D01*
X0Y1242D02*
X7Y1242D01*
X4188Y1242D02*
X4195Y1242D01*
X0Y1241D02*
X7Y1241D01*
X4188Y1241D02*
X4195Y1241D01*
X0Y1240D02*
X7Y1240D01*
X4188Y1240D02*
X4195Y1240D01*
X0Y1239D02*
X7Y1239D01*
X4188Y1239D02*
X4195Y1239D01*
X0Y1238D02*
X7Y1238D01*
X4188Y1238D02*
X4195Y1238D01*
X0Y1237D02*
X7Y1237D01*
X4188Y1237D02*
X4195Y1237D01*
X0Y1236D02*
X7Y1236D01*
X4188Y1236D02*
X4195Y1236D01*
X0Y1235D02*
X7Y1235D01*
X4188Y1235D02*
X4195Y1235D01*
X0Y1234D02*
X7Y1234D01*
X4188Y1234D02*
X4195Y1234D01*
X0Y1233D02*
X7Y1233D01*
X4188Y1233D02*
X4195Y1233D01*
X0Y1232D02*
X7Y1232D01*
X4188Y1232D02*
X4195Y1232D01*
X0Y1231D02*
X7Y1231D01*
X4188Y1231D02*
X4195Y1231D01*
X0Y1230D02*
X7Y1230D01*
X4188Y1230D02*
X4195Y1230D01*
X0Y1229D02*
X7Y1229D01*
X4188Y1229D02*
X4195Y1229D01*
X0Y1228D02*
X7Y1228D01*
X4188Y1228D02*
X4195Y1228D01*
X0Y1227D02*
X7Y1227D01*
X4188Y1227D02*
X4195Y1227D01*
X0Y1226D02*
X7Y1226D01*
X4188Y1226D02*
X4195Y1226D01*
X0Y1225D02*
X7Y1225D01*
X4188Y1225D02*
X4195Y1225D01*
X0Y1224D02*
X7Y1224D01*
X4188Y1224D02*
X4195Y1224D01*
X0Y1223D02*
X7Y1223D01*
X4188Y1223D02*
X4195Y1223D01*
X0Y1222D02*
X7Y1222D01*
X4188Y1222D02*
X4195Y1222D01*
X0Y1221D02*
X7Y1221D01*
X4188Y1221D02*
X4195Y1221D01*
X0Y1220D02*
X7Y1220D01*
X4188Y1220D02*
X4195Y1220D01*
X0Y1219D02*
X7Y1219D01*
X4188Y1219D02*
X4195Y1219D01*
X0Y1218D02*
X7Y1218D01*
X4188Y1218D02*
X4195Y1218D01*
X0Y1217D02*
X7Y1217D01*
X4188Y1217D02*
X4195Y1217D01*
X0Y1216D02*
X7Y1216D01*
X4188Y1216D02*
X4195Y1216D01*
X0Y1215D02*
X7Y1215D01*
X4188Y1215D02*
X4195Y1215D01*
X0Y1214D02*
X7Y1214D01*
X4188Y1214D02*
X4195Y1214D01*
X0Y1213D02*
X7Y1213D01*
X4188Y1213D02*
X4195Y1213D01*
X0Y1212D02*
X7Y1212D01*
X4188Y1212D02*
X4195Y1212D01*
X0Y1211D02*
X7Y1211D01*
X4188Y1211D02*
X4195Y1211D01*
X0Y1210D02*
X7Y1210D01*
X4188Y1210D02*
X4195Y1210D01*
X0Y1209D02*
X7Y1209D01*
X4188Y1209D02*
X4195Y1209D01*
X0Y1208D02*
X7Y1208D01*
X4188Y1208D02*
X4195Y1208D01*
X0Y1207D02*
X7Y1207D01*
X4188Y1207D02*
X4195Y1207D01*
X0Y1206D02*
X7Y1206D01*
X4188Y1206D02*
X4195Y1206D01*
X0Y1205D02*
X7Y1205D01*
X4188Y1205D02*
X4195Y1205D01*
X0Y1204D02*
X7Y1204D01*
X4188Y1204D02*
X4195Y1204D01*
X0Y1203D02*
X7Y1203D01*
X4188Y1203D02*
X4195Y1203D01*
X0Y1202D02*
X7Y1202D01*
X4188Y1202D02*
X4195Y1202D01*
X0Y1201D02*
X7Y1201D01*
X4188Y1201D02*
X4195Y1201D01*
X0Y1200D02*
X7Y1200D01*
X4188Y1200D02*
X4195Y1200D01*
X0Y1199D02*
X7Y1199D01*
X4188Y1199D02*
X4195Y1199D01*
X0Y1198D02*
X7Y1198D01*
X4188Y1198D02*
X4195Y1198D01*
X0Y1197D02*
X7Y1197D01*
X4188Y1197D02*
X4195Y1197D01*
X0Y1196D02*
X7Y1196D01*
X4188Y1196D02*
X4195Y1196D01*
X0Y1195D02*
X7Y1195D01*
X4188Y1195D02*
X4195Y1195D01*
X0Y1194D02*
X7Y1194D01*
X4188Y1194D02*
X4195Y1194D01*
X0Y1193D02*
X7Y1193D01*
X4188Y1193D02*
X4195Y1193D01*
X0Y1192D02*
X7Y1192D01*
X4188Y1192D02*
X4195Y1192D01*
X0Y1191D02*
X7Y1191D01*
X4188Y1191D02*
X4195Y1191D01*
X0Y1190D02*
X7Y1190D01*
X4188Y1190D02*
X4195Y1190D01*
X0Y1189D02*
X7Y1189D01*
X4188Y1189D02*
X4195Y1189D01*
X0Y1188D02*
X7Y1188D01*
X4188Y1188D02*
X4195Y1188D01*
X0Y1187D02*
X7Y1187D01*
X4188Y1187D02*
X4195Y1187D01*
X0Y1186D02*
X7Y1186D01*
X4188Y1186D02*
X4195Y1186D01*
X0Y1185D02*
X7Y1185D01*
X4188Y1185D02*
X4195Y1185D01*
X0Y1184D02*
X7Y1184D01*
X4188Y1184D02*
X4195Y1184D01*
X0Y1183D02*
X7Y1183D01*
X4188Y1183D02*
X4195Y1183D01*
X0Y1182D02*
X7Y1182D01*
X4188Y1182D02*
X4195Y1182D01*
X0Y1181D02*
X7Y1181D01*
X4188Y1181D02*
X4195Y1181D01*
X0Y1180D02*
X7Y1180D01*
X4188Y1180D02*
X4195Y1180D01*
X0Y1179D02*
X7Y1179D01*
X4188Y1179D02*
X4195Y1179D01*
X0Y1178D02*
X7Y1178D01*
X4188Y1178D02*
X4195Y1178D01*
X0Y1177D02*
X7Y1177D01*
X4188Y1177D02*
X4195Y1177D01*
X0Y1176D02*
X7Y1176D01*
X4188Y1176D02*
X4195Y1176D01*
X0Y1175D02*
X7Y1175D01*
X4188Y1175D02*
X4195Y1175D01*
X0Y1174D02*
X7Y1174D01*
X4188Y1174D02*
X4195Y1174D01*
X0Y1173D02*
X7Y1173D01*
X4188Y1173D02*
X4195Y1173D01*
X0Y1172D02*
X7Y1172D01*
X4188Y1172D02*
X4195Y1172D01*
X0Y1171D02*
X7Y1171D01*
X4188Y1171D02*
X4195Y1171D01*
X0Y1170D02*
X7Y1170D01*
X4188Y1170D02*
X4195Y1170D01*
X0Y1169D02*
X7Y1169D01*
X4188Y1169D02*
X4195Y1169D01*
X0Y1168D02*
X7Y1168D01*
X4188Y1168D02*
X4195Y1168D01*
X0Y1167D02*
X7Y1167D01*
X4188Y1167D02*
X4195Y1167D01*
X0Y1166D02*
X7Y1166D01*
X4188Y1166D02*
X4195Y1166D01*
X0Y1165D02*
X7Y1165D01*
X4188Y1165D02*
X4195Y1165D01*
X0Y1164D02*
X7Y1164D01*
X4188Y1164D02*
X4195Y1164D01*
X0Y1163D02*
X7Y1163D01*
X4188Y1163D02*
X4195Y1163D01*
X0Y1162D02*
X7Y1162D01*
X4188Y1162D02*
X4195Y1162D01*
X0Y1161D02*
X7Y1161D01*
X4188Y1161D02*
X4195Y1161D01*
X0Y1160D02*
X7Y1160D01*
X4188Y1160D02*
X4195Y1160D01*
X0Y1159D02*
X7Y1159D01*
X4188Y1159D02*
X4195Y1159D01*
X0Y1158D02*
X7Y1158D01*
X4188Y1158D02*
X4195Y1158D01*
X0Y1157D02*
X7Y1157D01*
X4188Y1157D02*
X4195Y1157D01*
X0Y1156D02*
X7Y1156D01*
X4188Y1156D02*
X4195Y1156D01*
X0Y1155D02*
X7Y1155D01*
X4188Y1155D02*
X4195Y1155D01*
X0Y1154D02*
X7Y1154D01*
X4188Y1154D02*
X4195Y1154D01*
X0Y1153D02*
X7Y1153D01*
X4188Y1153D02*
X4195Y1153D01*
X0Y1152D02*
X7Y1152D01*
X4188Y1152D02*
X4195Y1152D01*
X0Y1151D02*
X7Y1151D01*
X4188Y1151D02*
X4195Y1151D01*
X0Y1150D02*
X7Y1150D01*
X4188Y1150D02*
X4195Y1150D01*
X0Y1149D02*
X7Y1149D01*
X4188Y1149D02*
X4195Y1149D01*
X0Y1148D02*
X7Y1148D01*
X4188Y1148D02*
X4195Y1148D01*
X0Y1147D02*
X7Y1147D01*
X4188Y1147D02*
X4195Y1147D01*
X0Y1146D02*
X7Y1146D01*
X4188Y1146D02*
X4195Y1146D01*
X0Y1145D02*
X7Y1145D01*
X4188Y1145D02*
X4195Y1145D01*
X0Y1144D02*
X7Y1144D01*
X4188Y1144D02*
X4195Y1144D01*
X0Y1143D02*
X7Y1143D01*
X4188Y1143D02*
X4195Y1143D01*
X0Y1142D02*
X7Y1142D01*
X4188Y1142D02*
X4195Y1142D01*
X0Y1141D02*
X7Y1141D01*
X4188Y1141D02*
X4195Y1141D01*
X0Y1140D02*
X7Y1140D01*
X4188Y1140D02*
X4195Y1140D01*
X0Y1139D02*
X7Y1139D01*
X4188Y1139D02*
X4195Y1139D01*
X0Y1138D02*
X7Y1138D01*
X4188Y1138D02*
X4195Y1138D01*
X0Y1137D02*
X7Y1137D01*
X4188Y1137D02*
X4195Y1137D01*
X0Y1136D02*
X7Y1136D01*
X4188Y1136D02*
X4195Y1136D01*
X0Y1135D02*
X7Y1135D01*
X4188Y1135D02*
X4195Y1135D01*
X0Y1134D02*
X7Y1134D01*
X4188Y1134D02*
X4195Y1134D01*
X0Y1133D02*
X7Y1133D01*
X4188Y1133D02*
X4195Y1133D01*
X0Y1132D02*
X7Y1132D01*
X4188Y1132D02*
X4195Y1132D01*
X0Y1131D02*
X7Y1131D01*
X4188Y1131D02*
X4195Y1131D01*
X0Y1130D02*
X7Y1130D01*
X4188Y1130D02*
X4195Y1130D01*
X0Y1129D02*
X7Y1129D01*
X4188Y1129D02*
X4195Y1129D01*
X0Y1128D02*
X7Y1128D01*
X4188Y1128D02*
X4195Y1128D01*
X0Y1127D02*
X7Y1127D01*
X4188Y1127D02*
X4195Y1127D01*
X0Y1126D02*
X7Y1126D01*
X4188Y1126D02*
X4195Y1126D01*
X0Y1125D02*
X7Y1125D01*
X4188Y1125D02*
X4195Y1125D01*
X0Y1124D02*
X7Y1124D01*
X4188Y1124D02*
X4195Y1124D01*
X0Y1123D02*
X7Y1123D01*
X4188Y1123D02*
X4195Y1123D01*
X0Y1122D02*
X7Y1122D01*
X4188Y1122D02*
X4195Y1122D01*
X0Y1121D02*
X7Y1121D01*
X4188Y1121D02*
X4195Y1121D01*
X0Y1120D02*
X7Y1120D01*
X4188Y1120D02*
X4195Y1120D01*
X0Y1119D02*
X7Y1119D01*
X4188Y1119D02*
X4195Y1119D01*
X0Y1118D02*
X7Y1118D01*
X4188Y1118D02*
X4195Y1118D01*
X0Y1117D02*
X7Y1117D01*
X4188Y1117D02*
X4195Y1117D01*
X0Y1116D02*
X7Y1116D01*
X4188Y1116D02*
X4195Y1116D01*
X0Y1115D02*
X7Y1115D01*
X4188Y1115D02*
X4195Y1115D01*
X0Y1114D02*
X7Y1114D01*
X4188Y1114D02*
X4195Y1114D01*
X0Y1113D02*
X7Y1113D01*
X4188Y1113D02*
X4195Y1113D01*
X0Y1112D02*
X7Y1112D01*
X4188Y1112D02*
X4195Y1112D01*
X0Y1111D02*
X7Y1111D01*
X4188Y1111D02*
X4195Y1111D01*
X0Y1110D02*
X7Y1110D01*
X4188Y1110D02*
X4195Y1110D01*
X0Y1109D02*
X7Y1109D01*
X4188Y1109D02*
X4195Y1109D01*
X0Y1108D02*
X7Y1108D01*
X4188Y1108D02*
X4195Y1108D01*
X0Y1107D02*
X7Y1107D01*
X4188Y1107D02*
X4195Y1107D01*
X0Y1106D02*
X7Y1106D01*
X4188Y1106D02*
X4195Y1106D01*
X0Y1105D02*
X7Y1105D01*
X4188Y1105D02*
X4195Y1105D01*
X0Y1104D02*
X7Y1104D01*
X4188Y1104D02*
X4195Y1104D01*
X0Y1103D02*
X7Y1103D01*
X4188Y1103D02*
X4195Y1103D01*
X0Y1102D02*
X7Y1102D01*
X4188Y1102D02*
X4195Y1102D01*
X0Y1101D02*
X7Y1101D01*
X4188Y1101D02*
X4195Y1101D01*
X0Y1100D02*
X7Y1100D01*
X4188Y1100D02*
X4195Y1100D01*
X0Y1099D02*
X7Y1099D01*
X4188Y1099D02*
X4195Y1099D01*
X0Y1098D02*
X7Y1098D01*
X4188Y1098D02*
X4195Y1098D01*
X0Y1097D02*
X7Y1097D01*
X4188Y1097D02*
X4195Y1097D01*
X0Y1096D02*
X7Y1096D01*
X4188Y1096D02*
X4195Y1096D01*
X0Y1095D02*
X7Y1095D01*
X4188Y1095D02*
X4195Y1095D01*
X0Y1094D02*
X7Y1094D01*
X4188Y1094D02*
X4195Y1094D01*
X0Y1093D02*
X7Y1093D01*
X4188Y1093D02*
X4195Y1093D01*
X0Y1092D02*
X7Y1092D01*
X4188Y1092D02*
X4195Y1092D01*
X0Y1091D02*
X7Y1091D01*
X4188Y1091D02*
X4195Y1091D01*
X0Y1090D02*
X7Y1090D01*
X4188Y1090D02*
X4195Y1090D01*
X0Y1089D02*
X7Y1089D01*
X4188Y1089D02*
X4195Y1089D01*
X0Y1088D02*
X7Y1088D01*
X4188Y1088D02*
X4195Y1088D01*
X0Y1087D02*
X7Y1087D01*
X4188Y1087D02*
X4195Y1087D01*
X0Y1086D02*
X7Y1086D01*
X4188Y1086D02*
X4195Y1086D01*
X0Y1085D02*
X7Y1085D01*
X4188Y1085D02*
X4195Y1085D01*
X0Y1084D02*
X7Y1084D01*
X4188Y1084D02*
X4195Y1084D01*
X0Y1083D02*
X7Y1083D01*
X4188Y1083D02*
X4195Y1083D01*
X0Y1082D02*
X7Y1082D01*
X4188Y1082D02*
X4195Y1082D01*
X0Y1081D02*
X7Y1081D01*
X4188Y1081D02*
X4195Y1081D01*
X0Y1080D02*
X7Y1080D01*
X4188Y1080D02*
X4195Y1080D01*
X0Y1079D02*
X7Y1079D01*
X4188Y1079D02*
X4195Y1079D01*
X0Y1078D02*
X7Y1078D01*
X4188Y1078D02*
X4195Y1078D01*
X0Y1077D02*
X7Y1077D01*
X4188Y1077D02*
X4195Y1077D01*
X0Y1076D02*
X7Y1076D01*
X4188Y1076D02*
X4195Y1076D01*
X0Y1075D02*
X7Y1075D01*
X4188Y1075D02*
X4195Y1075D01*
X0Y1074D02*
X7Y1074D01*
X4188Y1074D02*
X4195Y1074D01*
X0Y1073D02*
X7Y1073D01*
X4188Y1073D02*
X4195Y1073D01*
X0Y1072D02*
X7Y1072D01*
X4188Y1072D02*
X4195Y1072D01*
X0Y1071D02*
X7Y1071D01*
X4188Y1071D02*
X4195Y1071D01*
X0Y1070D02*
X7Y1070D01*
X4188Y1070D02*
X4195Y1070D01*
X0Y1069D02*
X7Y1069D01*
X4188Y1069D02*
X4195Y1069D01*
X0Y1068D02*
X7Y1068D01*
X4188Y1068D02*
X4195Y1068D01*
X0Y1067D02*
X7Y1067D01*
X4188Y1067D02*
X4195Y1067D01*
X0Y1066D02*
X7Y1066D01*
X4188Y1066D02*
X4195Y1066D01*
X0Y1065D02*
X7Y1065D01*
X4188Y1065D02*
X4195Y1065D01*
X0Y1064D02*
X7Y1064D01*
X4188Y1064D02*
X4195Y1064D01*
X0Y1063D02*
X7Y1063D01*
X4188Y1063D02*
X4195Y1063D01*
X0Y1062D02*
X7Y1062D01*
X4188Y1062D02*
X4195Y1062D01*
X0Y1061D02*
X7Y1061D01*
X4188Y1061D02*
X4195Y1061D01*
X0Y1060D02*
X7Y1060D01*
X4188Y1060D02*
X4195Y1060D01*
X0Y1059D02*
X7Y1059D01*
X4188Y1059D02*
X4195Y1059D01*
X0Y1058D02*
X7Y1058D01*
X4188Y1058D02*
X4195Y1058D01*
X0Y1057D02*
X7Y1057D01*
X4188Y1057D02*
X4195Y1057D01*
X0Y1056D02*
X7Y1056D01*
X4188Y1056D02*
X4195Y1056D01*
X0Y1055D02*
X7Y1055D01*
X4188Y1055D02*
X4195Y1055D01*
X0Y1054D02*
X7Y1054D01*
X4188Y1054D02*
X4195Y1054D01*
X0Y1053D02*
X7Y1053D01*
X4188Y1053D02*
X4195Y1053D01*
X0Y1052D02*
X7Y1052D01*
X4188Y1052D02*
X4195Y1052D01*
X0Y1051D02*
X7Y1051D01*
X4188Y1051D02*
X4195Y1051D01*
X0Y1050D02*
X7Y1050D01*
X4188Y1050D02*
X4195Y1050D01*
X0Y1049D02*
X7Y1049D01*
X4188Y1049D02*
X4195Y1049D01*
X0Y1048D02*
X7Y1048D01*
X4188Y1048D02*
X4195Y1048D01*
X0Y1047D02*
X7Y1047D01*
X4188Y1047D02*
X4195Y1047D01*
X0Y1046D02*
X7Y1046D01*
X4188Y1046D02*
X4195Y1046D01*
X0Y1045D02*
X7Y1045D01*
X4188Y1045D02*
X4195Y1045D01*
X0Y1044D02*
X7Y1044D01*
X4188Y1044D02*
X4195Y1044D01*
X0Y1043D02*
X7Y1043D01*
X4188Y1043D02*
X4195Y1043D01*
X0Y1042D02*
X7Y1042D01*
X4188Y1042D02*
X4195Y1042D01*
X0Y1041D02*
X7Y1041D01*
X4188Y1041D02*
X4195Y1041D01*
X0Y1040D02*
X7Y1040D01*
X4188Y1040D02*
X4195Y1040D01*
X0Y1039D02*
X7Y1039D01*
X4188Y1039D02*
X4195Y1039D01*
X0Y1038D02*
X7Y1038D01*
X4188Y1038D02*
X4195Y1038D01*
X0Y1037D02*
X7Y1037D01*
X4188Y1037D02*
X4195Y1037D01*
X0Y1036D02*
X7Y1036D01*
X4188Y1036D02*
X4195Y1036D01*
X0Y1035D02*
X7Y1035D01*
X4188Y1035D02*
X4195Y1035D01*
X0Y1034D02*
X7Y1034D01*
X4188Y1034D02*
X4195Y1034D01*
X0Y1033D02*
X7Y1033D01*
X4188Y1033D02*
X4195Y1033D01*
X0Y1032D02*
X7Y1032D01*
X4188Y1032D02*
X4195Y1032D01*
X0Y1031D02*
X7Y1031D01*
X4188Y1031D02*
X4195Y1031D01*
X0Y1030D02*
X7Y1030D01*
X4188Y1030D02*
X4195Y1030D01*
X0Y1029D02*
X7Y1029D01*
X4188Y1029D02*
X4195Y1029D01*
X0Y1028D02*
X7Y1028D01*
X4188Y1028D02*
X4195Y1028D01*
X0Y1027D02*
X7Y1027D01*
X4188Y1027D02*
X4195Y1027D01*
X0Y1026D02*
X7Y1026D01*
X4188Y1026D02*
X4195Y1026D01*
X0Y1025D02*
X7Y1025D01*
X4188Y1025D02*
X4195Y1025D01*
X0Y1024D02*
X7Y1024D01*
X4188Y1024D02*
X4195Y1024D01*
X0Y1023D02*
X7Y1023D01*
X4188Y1023D02*
X4195Y1023D01*
X0Y1022D02*
X7Y1022D01*
X4188Y1022D02*
X4195Y1022D01*
X0Y1021D02*
X7Y1021D01*
X4188Y1021D02*
X4195Y1021D01*
X0Y1020D02*
X7Y1020D01*
X4188Y1020D02*
X4195Y1020D01*
X0Y1019D02*
X7Y1019D01*
X4188Y1019D02*
X4195Y1019D01*
X0Y1018D02*
X7Y1018D01*
X4188Y1018D02*
X4195Y1018D01*
X0Y1017D02*
X7Y1017D01*
X4188Y1017D02*
X4195Y1017D01*
X0Y1016D02*
X7Y1016D01*
X4188Y1016D02*
X4195Y1016D01*
X0Y1015D02*
X7Y1015D01*
X4188Y1015D02*
X4195Y1015D01*
X0Y1014D02*
X7Y1014D01*
X4188Y1014D02*
X4195Y1014D01*
X0Y1013D02*
X7Y1013D01*
X4188Y1013D02*
X4195Y1013D01*
X0Y1012D02*
X7Y1012D01*
X4188Y1012D02*
X4195Y1012D01*
X0Y1011D02*
X7Y1011D01*
X4188Y1011D02*
X4195Y1011D01*
X0Y1010D02*
X7Y1010D01*
X4188Y1010D02*
X4195Y1010D01*
X0Y1009D02*
X7Y1009D01*
X4188Y1009D02*
X4195Y1009D01*
X0Y1008D02*
X7Y1008D01*
X4188Y1008D02*
X4195Y1008D01*
X0Y1007D02*
X7Y1007D01*
X4188Y1007D02*
X4195Y1007D01*
X0Y1006D02*
X7Y1006D01*
X4188Y1006D02*
X4195Y1006D01*
X0Y1005D02*
X7Y1005D01*
X4188Y1005D02*
X4195Y1005D01*
X0Y1004D02*
X7Y1004D01*
X4188Y1004D02*
X4195Y1004D01*
X0Y1003D02*
X7Y1003D01*
X4188Y1003D02*
X4195Y1003D01*
X0Y1002D02*
X7Y1002D01*
X4188Y1002D02*
X4195Y1002D01*
X0Y1001D02*
X7Y1001D01*
X4188Y1001D02*
X4195Y1001D01*
X0Y1000D02*
X7Y1000D01*
X4188Y1000D02*
X4195Y1000D01*
X0Y999D02*
X7Y999D01*
X4188Y999D02*
X4195Y999D01*
X0Y998D02*
X7Y998D01*
X4188Y998D02*
X4195Y998D01*
X0Y997D02*
X7Y997D01*
X4188Y997D02*
X4195Y997D01*
X0Y996D02*
X7Y996D01*
X4188Y996D02*
X4195Y996D01*
X0Y995D02*
X7Y995D01*
X4188Y995D02*
X4195Y995D01*
X0Y994D02*
X7Y994D01*
X4188Y994D02*
X4195Y994D01*
X0Y993D02*
X7Y993D01*
X4188Y993D02*
X4195Y993D01*
X0Y992D02*
X7Y992D01*
X4188Y992D02*
X4195Y992D01*
X0Y991D02*
X7Y991D01*
X4188Y991D02*
X4195Y991D01*
X0Y990D02*
X7Y990D01*
X4188Y990D02*
X4195Y990D01*
X0Y989D02*
X7Y989D01*
X4188Y989D02*
X4195Y989D01*
X0Y988D02*
X7Y988D01*
X4188Y988D02*
X4195Y988D01*
X0Y987D02*
X7Y987D01*
X4188Y987D02*
X4195Y987D01*
X0Y986D02*
X7Y986D01*
X4188Y986D02*
X4195Y986D01*
X0Y985D02*
X7Y985D01*
X4188Y985D02*
X4195Y985D01*
X0Y984D02*
X7Y984D01*
X4188Y984D02*
X4195Y984D01*
X0Y983D02*
X7Y983D01*
X4188Y983D02*
X4195Y983D01*
X0Y982D02*
X7Y982D01*
X4188Y982D02*
X4195Y982D01*
X0Y981D02*
X7Y981D01*
X4188Y981D02*
X4195Y981D01*
X0Y980D02*
X7Y980D01*
X4188Y980D02*
X4195Y980D01*
X0Y979D02*
X7Y979D01*
X4188Y979D02*
X4195Y979D01*
X0Y978D02*
X7Y978D01*
X4188Y978D02*
X4195Y978D01*
X0Y977D02*
X7Y977D01*
X4188Y977D02*
X4195Y977D01*
X0Y976D02*
X7Y976D01*
X4188Y976D02*
X4195Y976D01*
X0Y975D02*
X7Y975D01*
X4188Y975D02*
X4195Y975D01*
X0Y974D02*
X7Y974D01*
X4188Y974D02*
X4195Y974D01*
X0Y973D02*
X7Y973D01*
X4188Y973D02*
X4195Y973D01*
X0Y972D02*
X7Y972D01*
X4188Y972D02*
X4195Y972D01*
X0Y971D02*
X7Y971D01*
X4188Y971D02*
X4195Y971D01*
X0Y970D02*
X7Y970D01*
X4188Y970D02*
X4195Y970D01*
X0Y969D02*
X7Y969D01*
X4188Y969D02*
X4195Y969D01*
X0Y968D02*
X7Y968D01*
X4188Y968D02*
X4195Y968D01*
X0Y967D02*
X7Y967D01*
X4188Y967D02*
X4195Y967D01*
X0Y966D02*
X7Y966D01*
X4188Y966D02*
X4195Y966D01*
X0Y965D02*
X7Y965D01*
X4188Y965D02*
X4195Y965D01*
X0Y964D02*
X7Y964D01*
X4188Y964D02*
X4195Y964D01*
X0Y963D02*
X7Y963D01*
X4188Y963D02*
X4195Y963D01*
X0Y962D02*
X7Y962D01*
X4188Y962D02*
X4195Y962D01*
X0Y961D02*
X7Y961D01*
X4188Y961D02*
X4195Y961D01*
X0Y960D02*
X7Y960D01*
X4188Y960D02*
X4195Y960D01*
X0Y959D02*
X7Y959D01*
X4188Y959D02*
X4195Y959D01*
X0Y958D02*
X7Y958D01*
X4188Y958D02*
X4195Y958D01*
X0Y957D02*
X7Y957D01*
X4188Y957D02*
X4195Y957D01*
X0Y956D02*
X7Y956D01*
X4188Y956D02*
X4195Y956D01*
X0Y955D02*
X7Y955D01*
X4188Y955D02*
X4195Y955D01*
X0Y954D02*
X7Y954D01*
X4188Y954D02*
X4195Y954D01*
X0Y953D02*
X7Y953D01*
X4188Y953D02*
X4195Y953D01*
X0Y952D02*
X7Y952D01*
X4188Y952D02*
X4195Y952D01*
X0Y951D02*
X7Y951D01*
X4188Y951D02*
X4195Y951D01*
X0Y950D02*
X7Y950D01*
X4188Y950D02*
X4195Y950D01*
X0Y949D02*
X7Y949D01*
X4188Y949D02*
X4195Y949D01*
X0Y948D02*
X7Y948D01*
X4188Y948D02*
X4195Y948D01*
X0Y947D02*
X7Y947D01*
X4188Y947D02*
X4195Y947D01*
X0Y946D02*
X7Y946D01*
X4188Y946D02*
X4195Y946D01*
X0Y945D02*
X7Y945D01*
X4188Y945D02*
X4195Y945D01*
X0Y944D02*
X7Y944D01*
X4188Y944D02*
X4195Y944D01*
X0Y943D02*
X7Y943D01*
X4188Y943D02*
X4195Y943D01*
X0Y942D02*
X7Y942D01*
X4188Y942D02*
X4195Y942D01*
X0Y941D02*
X7Y941D01*
X4188Y941D02*
X4195Y941D01*
X0Y940D02*
X7Y940D01*
X4188Y940D02*
X4195Y940D01*
X0Y939D02*
X7Y939D01*
X4188Y939D02*
X4195Y939D01*
X0Y938D02*
X7Y938D01*
X4188Y938D02*
X4195Y938D01*
X0Y937D02*
X7Y937D01*
X4188Y937D02*
X4195Y937D01*
X0Y936D02*
X7Y936D01*
X4188Y936D02*
X4195Y936D01*
X0Y935D02*
X7Y935D01*
X4188Y935D02*
X4195Y935D01*
X0Y934D02*
X7Y934D01*
X4188Y934D02*
X4195Y934D01*
X0Y933D02*
X7Y933D01*
X4188Y933D02*
X4195Y933D01*
X0Y932D02*
X7Y932D01*
X4188Y932D02*
X4195Y932D01*
X0Y931D02*
X7Y931D01*
X4188Y931D02*
X4195Y931D01*
X0Y930D02*
X7Y930D01*
X4188Y930D02*
X4195Y930D01*
X0Y929D02*
X7Y929D01*
X4188Y929D02*
X4195Y929D01*
X0Y928D02*
X7Y928D01*
X4188Y928D02*
X4195Y928D01*
X0Y927D02*
X7Y927D01*
X4188Y927D02*
X4195Y927D01*
X0Y926D02*
X7Y926D01*
X4188Y926D02*
X4195Y926D01*
X0Y925D02*
X7Y925D01*
X4188Y925D02*
X4195Y925D01*
X0Y924D02*
X7Y924D01*
X4188Y924D02*
X4195Y924D01*
X0Y923D02*
X7Y923D01*
X4188Y923D02*
X4195Y923D01*
X0Y922D02*
X7Y922D01*
X4188Y922D02*
X4195Y922D01*
X0Y921D02*
X7Y921D01*
X4188Y921D02*
X4195Y921D01*
X0Y920D02*
X7Y920D01*
X4188Y920D02*
X4195Y920D01*
X0Y919D02*
X7Y919D01*
X4188Y919D02*
X4195Y919D01*
X0Y918D02*
X7Y918D01*
X4188Y918D02*
X4195Y918D01*
X0Y917D02*
X7Y917D01*
X4188Y917D02*
X4195Y917D01*
X0Y916D02*
X7Y916D01*
X4188Y916D02*
X4195Y916D01*
X0Y915D02*
X7Y915D01*
X4188Y915D02*
X4195Y915D01*
X0Y914D02*
X7Y914D01*
X4188Y914D02*
X4195Y914D01*
X0Y913D02*
X7Y913D01*
X4188Y913D02*
X4195Y913D01*
X0Y912D02*
X7Y912D01*
X4188Y912D02*
X4195Y912D01*
X0Y911D02*
X7Y911D01*
X4188Y911D02*
X4195Y911D01*
X0Y910D02*
X7Y910D01*
X4188Y910D02*
X4195Y910D01*
X0Y909D02*
X7Y909D01*
X4188Y909D02*
X4195Y909D01*
X0Y908D02*
X7Y908D01*
X4188Y908D02*
X4195Y908D01*
X0Y907D02*
X7Y907D01*
X4188Y907D02*
X4195Y907D01*
X0Y906D02*
X7Y906D01*
X4188Y906D02*
X4195Y906D01*
X0Y905D02*
X7Y905D01*
X4188Y905D02*
X4195Y905D01*
X0Y904D02*
X7Y904D01*
X4188Y904D02*
X4195Y904D01*
X0Y903D02*
X7Y903D01*
X4188Y903D02*
X4195Y903D01*
X0Y902D02*
X7Y902D01*
X4188Y902D02*
X4195Y902D01*
X0Y901D02*
X7Y901D01*
X4188Y901D02*
X4195Y901D01*
X0Y900D02*
X7Y900D01*
X4188Y900D02*
X4195Y900D01*
X0Y899D02*
X7Y899D01*
X4188Y899D02*
X4195Y899D01*
X0Y898D02*
X7Y898D01*
X4188Y898D02*
X4195Y898D01*
X0Y897D02*
X7Y897D01*
X4188Y897D02*
X4195Y897D01*
X0Y896D02*
X7Y896D01*
X4188Y896D02*
X4195Y896D01*
X0Y895D02*
X7Y895D01*
X4188Y895D02*
X4195Y895D01*
X0Y894D02*
X7Y894D01*
X4188Y894D02*
X4195Y894D01*
X0Y893D02*
X7Y893D01*
X4188Y893D02*
X4195Y893D01*
X0Y892D02*
X7Y892D01*
X4188Y892D02*
X4195Y892D01*
X0Y891D02*
X7Y891D01*
X4188Y891D02*
X4195Y891D01*
X0Y890D02*
X7Y890D01*
X4188Y890D02*
X4195Y890D01*
X0Y889D02*
X7Y889D01*
X4188Y889D02*
X4195Y889D01*
X0Y888D02*
X7Y888D01*
X4188Y888D02*
X4195Y888D01*
X0Y887D02*
X7Y887D01*
X4188Y887D02*
X4195Y887D01*
X0Y886D02*
X7Y886D01*
X4188Y886D02*
X4195Y886D01*
X0Y885D02*
X7Y885D01*
X4188Y885D02*
X4195Y885D01*
X0Y884D02*
X7Y884D01*
X4188Y884D02*
X4195Y884D01*
X0Y883D02*
X7Y883D01*
X4188Y883D02*
X4195Y883D01*
X0Y882D02*
X7Y882D01*
X4188Y882D02*
X4195Y882D01*
X0Y881D02*
X7Y881D01*
X4188Y881D02*
X4195Y881D01*
X0Y880D02*
X7Y880D01*
X4188Y880D02*
X4195Y880D01*
X0Y879D02*
X7Y879D01*
X4188Y879D02*
X4195Y879D01*
X0Y878D02*
X7Y878D01*
X4188Y878D02*
X4195Y878D01*
X0Y877D02*
X7Y877D01*
X4188Y877D02*
X4195Y877D01*
X0Y876D02*
X7Y876D01*
X4188Y876D02*
X4195Y876D01*
X0Y875D02*
X7Y875D01*
X4188Y875D02*
X4195Y875D01*
X0Y874D02*
X7Y874D01*
X4188Y874D02*
X4195Y874D01*
X0Y873D02*
X7Y873D01*
X4188Y873D02*
X4195Y873D01*
X0Y872D02*
X7Y872D01*
X4188Y872D02*
X4195Y872D01*
X0Y871D02*
X7Y871D01*
X4188Y871D02*
X4195Y871D01*
X0Y870D02*
X7Y870D01*
X4188Y870D02*
X4195Y870D01*
X0Y869D02*
X7Y869D01*
X4188Y869D02*
X4195Y869D01*
X0Y868D02*
X7Y868D01*
X4188Y868D02*
X4195Y868D01*
X0Y867D02*
X7Y867D01*
X4188Y867D02*
X4195Y867D01*
X0Y866D02*
X7Y866D01*
X4188Y866D02*
X4195Y866D01*
X0Y865D02*
X7Y865D01*
X4188Y865D02*
X4195Y865D01*
X0Y864D02*
X7Y864D01*
X4188Y864D02*
X4195Y864D01*
X0Y863D02*
X7Y863D01*
X4188Y863D02*
X4195Y863D01*
X0Y862D02*
X7Y862D01*
X4188Y862D02*
X4195Y862D01*
X0Y861D02*
X7Y861D01*
X4188Y861D02*
X4195Y861D01*
X0Y860D02*
X7Y860D01*
X4188Y860D02*
X4195Y860D01*
X0Y859D02*
X7Y859D01*
X4188Y859D02*
X4195Y859D01*
X0Y858D02*
X7Y858D01*
X4188Y858D02*
X4195Y858D01*
X0Y857D02*
X7Y857D01*
X4188Y857D02*
X4195Y857D01*
X0Y856D02*
X7Y856D01*
X4188Y856D02*
X4195Y856D01*
X0Y855D02*
X7Y855D01*
X4188Y855D02*
X4195Y855D01*
X0Y854D02*
X7Y854D01*
X4188Y854D02*
X4195Y854D01*
X0Y853D02*
X7Y853D01*
X4188Y853D02*
X4195Y853D01*
X0Y852D02*
X7Y852D01*
X4188Y852D02*
X4195Y852D01*
X0Y851D02*
X7Y851D01*
X4188Y851D02*
X4195Y851D01*
X0Y850D02*
X7Y850D01*
X4188Y850D02*
X4195Y850D01*
X0Y849D02*
X7Y849D01*
X4188Y849D02*
X4195Y849D01*
X0Y848D02*
X7Y848D01*
X4188Y848D02*
X4195Y848D01*
X0Y847D02*
X7Y847D01*
X4188Y847D02*
X4195Y847D01*
X0Y846D02*
X7Y846D01*
X4188Y846D02*
X4195Y846D01*
X0Y845D02*
X7Y845D01*
X4188Y845D02*
X4195Y845D01*
X0Y844D02*
X7Y844D01*
X4188Y844D02*
X4195Y844D01*
X0Y843D02*
X7Y843D01*
X4188Y843D02*
X4195Y843D01*
X0Y842D02*
X7Y842D01*
X4188Y842D02*
X4195Y842D01*
X0Y841D02*
X7Y841D01*
X4188Y841D02*
X4195Y841D01*
X0Y840D02*
X7Y840D01*
X4188Y840D02*
X4195Y840D01*
X0Y839D02*
X7Y839D01*
X4188Y839D02*
X4195Y839D01*
X0Y838D02*
X7Y838D01*
X4188Y838D02*
X4195Y838D01*
X0Y837D02*
X7Y837D01*
X4188Y837D02*
X4195Y837D01*
X0Y836D02*
X7Y836D01*
X4188Y836D02*
X4195Y836D01*
X0Y835D02*
X7Y835D01*
X4188Y835D02*
X4195Y835D01*
X0Y834D02*
X7Y834D01*
X4188Y834D02*
X4195Y834D01*
X0Y833D02*
X7Y833D01*
X4188Y833D02*
X4195Y833D01*
X0Y832D02*
X7Y832D01*
X4188Y832D02*
X4195Y832D01*
X0Y831D02*
X7Y831D01*
X4188Y831D02*
X4195Y831D01*
X0Y830D02*
X7Y830D01*
X4188Y830D02*
X4195Y830D01*
X0Y829D02*
X7Y829D01*
X4188Y829D02*
X4195Y829D01*
X0Y828D02*
X7Y828D01*
X4188Y828D02*
X4195Y828D01*
X0Y827D02*
X7Y827D01*
X4188Y827D02*
X4195Y827D01*
X0Y826D02*
X7Y826D01*
X4188Y826D02*
X4195Y826D01*
X0Y825D02*
X7Y825D01*
X4188Y825D02*
X4195Y825D01*
X0Y824D02*
X7Y824D01*
X4188Y824D02*
X4195Y824D01*
X0Y823D02*
X7Y823D01*
X4188Y823D02*
X4195Y823D01*
X0Y822D02*
X7Y822D01*
X4188Y822D02*
X4195Y822D01*
X0Y821D02*
X7Y821D01*
X4188Y821D02*
X4195Y821D01*
X0Y820D02*
X7Y820D01*
X4188Y820D02*
X4195Y820D01*
X0Y819D02*
X7Y819D01*
X4188Y819D02*
X4195Y819D01*
X0Y818D02*
X7Y818D01*
X4188Y818D02*
X4195Y818D01*
X0Y817D02*
X7Y817D01*
X4188Y817D02*
X4195Y817D01*
X0Y816D02*
X7Y816D01*
X4188Y816D02*
X4195Y816D01*
X0Y815D02*
X7Y815D01*
X4188Y815D02*
X4195Y815D01*
X0Y814D02*
X7Y814D01*
X4188Y814D02*
X4195Y814D01*
X0Y813D02*
X7Y813D01*
X4188Y813D02*
X4195Y813D01*
X0Y812D02*
X7Y812D01*
X4188Y812D02*
X4195Y812D01*
X0Y811D02*
X7Y811D01*
X4188Y811D02*
X4195Y811D01*
X0Y810D02*
X7Y810D01*
X4188Y810D02*
X4195Y810D01*
X0Y809D02*
X7Y809D01*
X4188Y809D02*
X4195Y809D01*
X0Y808D02*
X7Y808D01*
X4188Y808D02*
X4195Y808D01*
X0Y807D02*
X7Y807D01*
X4188Y807D02*
X4195Y807D01*
X0Y806D02*
X7Y806D01*
X4188Y806D02*
X4195Y806D01*
X0Y805D02*
X7Y805D01*
X4188Y805D02*
X4195Y805D01*
X0Y804D02*
X7Y804D01*
X4188Y804D02*
X4195Y804D01*
X0Y803D02*
X7Y803D01*
X4188Y803D02*
X4195Y803D01*
X0Y802D02*
X7Y802D01*
X4188Y802D02*
X4195Y802D01*
X0Y801D02*
X7Y801D01*
X4188Y801D02*
X4195Y801D01*
X0Y800D02*
X7Y800D01*
X4188Y800D02*
X4195Y800D01*
X0Y799D02*
X7Y799D01*
X4188Y799D02*
X4195Y799D01*
X0Y798D02*
X7Y798D01*
X4188Y798D02*
X4195Y798D01*
X0Y797D02*
X7Y797D01*
X4188Y797D02*
X4195Y797D01*
X0Y796D02*
X7Y796D01*
X4188Y796D02*
X4195Y796D01*
X0Y795D02*
X7Y795D01*
X4188Y795D02*
X4195Y795D01*
X0Y794D02*
X7Y794D01*
X4188Y794D02*
X4195Y794D01*
X0Y793D02*
X7Y793D01*
X4188Y793D02*
X4195Y793D01*
X0Y792D02*
X7Y792D01*
X4188Y792D02*
X4195Y792D01*
X0Y791D02*
X7Y791D01*
X4188Y791D02*
X4195Y791D01*
X0Y790D02*
X7Y790D01*
X4188Y790D02*
X4195Y790D01*
X0Y789D02*
X7Y789D01*
X4188Y789D02*
X4195Y789D01*
X0Y788D02*
X7Y788D01*
X4188Y788D02*
X4195Y788D01*
X0Y787D02*
X7Y787D01*
X4188Y787D02*
X4195Y787D01*
X0Y786D02*
X7Y786D01*
X4188Y786D02*
X4195Y786D01*
X0Y785D02*
X7Y785D01*
X4188Y785D02*
X4195Y785D01*
X0Y784D02*
X7Y784D01*
X4188Y784D02*
X4195Y784D01*
X0Y783D02*
X7Y783D01*
X4188Y783D02*
X4195Y783D01*
X0Y782D02*
X7Y782D01*
X4188Y782D02*
X4195Y782D01*
X0Y781D02*
X7Y781D01*
X4188Y781D02*
X4195Y781D01*
X0Y780D02*
X7Y780D01*
X4188Y780D02*
X4195Y780D01*
X0Y779D02*
X7Y779D01*
X4188Y779D02*
X4195Y779D01*
X0Y778D02*
X7Y778D01*
X4188Y778D02*
X4195Y778D01*
X0Y777D02*
X7Y777D01*
X4188Y777D02*
X4195Y777D01*
X0Y776D02*
X7Y776D01*
X4188Y776D02*
X4195Y776D01*
X0Y775D02*
X7Y775D01*
X4188Y775D02*
X4195Y775D01*
X0Y774D02*
X7Y774D01*
X4188Y774D02*
X4195Y774D01*
X0Y773D02*
X7Y773D01*
X4188Y773D02*
X4195Y773D01*
X0Y772D02*
X7Y772D01*
X4188Y772D02*
X4195Y772D01*
X0Y771D02*
X7Y771D01*
X4188Y771D02*
X4195Y771D01*
X0Y770D02*
X7Y770D01*
X4188Y770D02*
X4195Y770D01*
X0Y769D02*
X7Y769D01*
X4188Y769D02*
X4195Y769D01*
X0Y768D02*
X7Y768D01*
X4188Y768D02*
X4195Y768D01*
X0Y767D02*
X7Y767D01*
X4188Y767D02*
X4195Y767D01*
X0Y766D02*
X7Y766D01*
X4188Y766D02*
X4195Y766D01*
X0Y765D02*
X7Y765D01*
X4188Y765D02*
X4195Y765D01*
X0Y764D02*
X7Y764D01*
X4188Y764D02*
X4195Y764D01*
X0Y763D02*
X7Y763D01*
X4188Y763D02*
X4195Y763D01*
X0Y762D02*
X7Y762D01*
X4188Y762D02*
X4195Y762D01*
X0Y761D02*
X7Y761D01*
X4188Y761D02*
X4195Y761D01*
X0Y760D02*
X7Y760D01*
X4188Y760D02*
X4195Y760D01*
X0Y759D02*
X7Y759D01*
X4188Y759D02*
X4195Y759D01*
X0Y758D02*
X7Y758D01*
X4188Y758D02*
X4195Y758D01*
X0Y757D02*
X7Y757D01*
X4188Y757D02*
X4195Y757D01*
X0Y756D02*
X7Y756D01*
X4188Y756D02*
X4195Y756D01*
X0Y755D02*
X7Y755D01*
X4188Y755D02*
X4195Y755D01*
X0Y754D02*
X7Y754D01*
X4188Y754D02*
X4195Y754D01*
X0Y753D02*
X7Y753D01*
X4188Y753D02*
X4195Y753D01*
X0Y752D02*
X7Y752D01*
X4188Y752D02*
X4195Y752D01*
X0Y751D02*
X7Y751D01*
X4188Y751D02*
X4195Y751D01*
X0Y750D02*
X7Y750D01*
X4188Y750D02*
X4195Y750D01*
X0Y749D02*
X7Y749D01*
X4188Y749D02*
X4195Y749D01*
X0Y748D02*
X7Y748D01*
X4188Y748D02*
X4195Y748D01*
X0Y747D02*
X7Y747D01*
X4188Y747D02*
X4195Y747D01*
X0Y746D02*
X7Y746D01*
X4188Y746D02*
X4195Y746D01*
X0Y745D02*
X7Y745D01*
X4188Y745D02*
X4195Y745D01*
X0Y744D02*
X7Y744D01*
X4188Y744D02*
X4195Y744D01*
X0Y743D02*
X7Y743D01*
X4188Y743D02*
X4195Y743D01*
X0Y742D02*
X7Y742D01*
X4188Y742D02*
X4195Y742D01*
X0Y741D02*
X7Y741D01*
X4188Y741D02*
X4195Y741D01*
X0Y740D02*
X7Y740D01*
X4188Y740D02*
X4195Y740D01*
X0Y739D02*
X7Y739D01*
X4188Y739D02*
X4195Y739D01*
X0Y738D02*
X7Y738D01*
X4188Y738D02*
X4195Y738D01*
X0Y737D02*
X7Y737D01*
X4188Y737D02*
X4195Y737D01*
X0Y736D02*
X7Y736D01*
X4188Y736D02*
X4195Y736D01*
X0Y735D02*
X7Y735D01*
X4188Y735D02*
X4195Y735D01*
X0Y734D02*
X7Y734D01*
X4188Y734D02*
X4195Y734D01*
X0Y733D02*
X7Y733D01*
X4188Y733D02*
X4195Y733D01*
X0Y732D02*
X7Y732D01*
X4188Y732D02*
X4195Y732D01*
X0Y731D02*
X7Y731D01*
X4188Y731D02*
X4195Y731D01*
X0Y730D02*
X7Y730D01*
X4188Y730D02*
X4195Y730D01*
X0Y729D02*
X7Y729D01*
X4188Y729D02*
X4195Y729D01*
X0Y728D02*
X7Y728D01*
X4188Y728D02*
X4195Y728D01*
X0Y727D02*
X7Y727D01*
X4188Y727D02*
X4195Y727D01*
X0Y726D02*
X7Y726D01*
X4188Y726D02*
X4195Y726D01*
X0Y725D02*
X7Y725D01*
X4188Y725D02*
X4195Y725D01*
X0Y724D02*
X7Y724D01*
X4188Y724D02*
X4195Y724D01*
X0Y723D02*
X7Y723D01*
X4188Y723D02*
X4195Y723D01*
X0Y722D02*
X7Y722D01*
X4188Y722D02*
X4195Y722D01*
X0Y721D02*
X7Y721D01*
X4188Y721D02*
X4195Y721D01*
X0Y720D02*
X7Y720D01*
X4188Y720D02*
X4195Y720D01*
X0Y719D02*
X7Y719D01*
X4188Y719D02*
X4195Y719D01*
X0Y718D02*
X7Y718D01*
X4188Y718D02*
X4195Y718D01*
X0Y717D02*
X7Y717D01*
X4188Y717D02*
X4195Y717D01*
X0Y716D02*
X7Y716D01*
X4188Y716D02*
X4195Y716D01*
X0Y715D02*
X7Y715D01*
X4188Y715D02*
X4195Y715D01*
X0Y714D02*
X7Y714D01*
X4188Y714D02*
X4195Y714D01*
X0Y713D02*
X7Y713D01*
X4188Y713D02*
X4195Y713D01*
X0Y712D02*
X7Y712D01*
X4188Y712D02*
X4195Y712D01*
X0Y711D02*
X7Y711D01*
X4188Y711D02*
X4195Y711D01*
X0Y710D02*
X7Y710D01*
X4188Y710D02*
X4195Y710D01*
X0Y709D02*
X7Y709D01*
X4188Y709D02*
X4195Y709D01*
X0Y708D02*
X7Y708D01*
X4188Y708D02*
X4195Y708D01*
X0Y707D02*
X7Y707D01*
X4188Y707D02*
X4195Y707D01*
X0Y706D02*
X7Y706D01*
X4188Y706D02*
X4195Y706D01*
X0Y705D02*
X7Y705D01*
X4188Y705D02*
X4195Y705D01*
X0Y704D02*
X7Y704D01*
X4188Y704D02*
X4195Y704D01*
X0Y703D02*
X7Y703D01*
X4188Y703D02*
X4195Y703D01*
X0Y702D02*
X7Y702D01*
X4188Y702D02*
X4195Y702D01*
X0Y701D02*
X7Y701D01*
X4188Y701D02*
X4195Y701D01*
X0Y700D02*
X7Y700D01*
X4188Y700D02*
X4195Y700D01*
X0Y699D02*
X7Y699D01*
X4188Y699D02*
X4195Y699D01*
X0Y698D02*
X7Y698D01*
X4188Y698D02*
X4195Y698D01*
X0Y697D02*
X7Y697D01*
X4188Y697D02*
X4195Y697D01*
X0Y696D02*
X7Y696D01*
X4188Y696D02*
X4195Y696D01*
X0Y695D02*
X7Y695D01*
X4188Y695D02*
X4195Y695D01*
X0Y694D02*
X7Y694D01*
X4188Y694D02*
X4195Y694D01*
X0Y693D02*
X7Y693D01*
X4188Y693D02*
X4195Y693D01*
X0Y692D02*
X7Y692D01*
X4188Y692D02*
X4195Y692D01*
X0Y691D02*
X7Y691D01*
X4188Y691D02*
X4195Y691D01*
X0Y690D02*
X7Y690D01*
X4188Y690D02*
X4195Y690D01*
X0Y689D02*
X7Y689D01*
X4188Y689D02*
X4195Y689D01*
X0Y688D02*
X7Y688D01*
X4188Y688D02*
X4195Y688D01*
X0Y687D02*
X7Y687D01*
X4188Y687D02*
X4195Y687D01*
X0Y686D02*
X7Y686D01*
X4188Y686D02*
X4195Y686D01*
X0Y685D02*
X7Y685D01*
X4188Y685D02*
X4195Y685D01*
X0Y684D02*
X7Y684D01*
X4188Y684D02*
X4195Y684D01*
X0Y683D02*
X7Y683D01*
X4188Y683D02*
X4195Y683D01*
X0Y682D02*
X7Y682D01*
X4188Y682D02*
X4195Y682D01*
X0Y681D02*
X7Y681D01*
X4188Y681D02*
X4195Y681D01*
X0Y680D02*
X7Y680D01*
X4188Y680D02*
X4195Y680D01*
X0Y679D02*
X7Y679D01*
X4188Y679D02*
X4195Y679D01*
X0Y678D02*
X7Y678D01*
X4188Y678D02*
X4195Y678D01*
X0Y677D02*
X7Y677D01*
X4188Y677D02*
X4195Y677D01*
X0Y676D02*
X7Y676D01*
X4188Y676D02*
X4195Y676D01*
X0Y675D02*
X7Y675D01*
X4188Y675D02*
X4195Y675D01*
X0Y674D02*
X7Y674D01*
X4188Y674D02*
X4195Y674D01*
X0Y673D02*
X7Y673D01*
X4188Y673D02*
X4195Y673D01*
X0Y672D02*
X7Y672D01*
X4188Y672D02*
X4195Y672D01*
X0Y671D02*
X7Y671D01*
X4188Y671D02*
X4195Y671D01*
X0Y670D02*
X7Y670D01*
X4188Y670D02*
X4195Y670D01*
X0Y669D02*
X7Y669D01*
X4188Y669D02*
X4195Y669D01*
X0Y668D02*
X7Y668D01*
X4188Y668D02*
X4195Y668D01*
X0Y667D02*
X7Y667D01*
X4188Y667D02*
X4195Y667D01*
X0Y666D02*
X7Y666D01*
X4188Y666D02*
X4195Y666D01*
X0Y665D02*
X7Y665D01*
X4188Y665D02*
X4195Y665D01*
X0Y664D02*
X7Y664D01*
X4188Y664D02*
X4195Y664D01*
X0Y663D02*
X7Y663D01*
X4188Y663D02*
X4195Y663D01*
X0Y662D02*
X7Y662D01*
X4188Y662D02*
X4195Y662D01*
X0Y661D02*
X7Y661D01*
X4188Y661D02*
X4195Y661D01*
X0Y660D02*
X7Y660D01*
X4188Y660D02*
X4195Y660D01*
X0Y659D02*
X7Y659D01*
X4188Y659D02*
X4195Y659D01*
X0Y658D02*
X7Y658D01*
X4188Y658D02*
X4195Y658D01*
X0Y657D02*
X7Y657D01*
X4188Y657D02*
X4195Y657D01*
X0Y656D02*
X7Y656D01*
X4188Y656D02*
X4195Y656D01*
X0Y655D02*
X7Y655D01*
X4188Y655D02*
X4195Y655D01*
X0Y654D02*
X7Y654D01*
X4188Y654D02*
X4195Y654D01*
X0Y653D02*
X7Y653D01*
X4188Y653D02*
X4195Y653D01*
X0Y652D02*
X7Y652D01*
X4188Y652D02*
X4195Y652D01*
X0Y651D02*
X7Y651D01*
X4188Y651D02*
X4195Y651D01*
X0Y650D02*
X7Y650D01*
X4188Y650D02*
X4195Y650D01*
X0Y649D02*
X7Y649D01*
X4188Y649D02*
X4195Y649D01*
X0Y648D02*
X7Y648D01*
X4188Y648D02*
X4195Y648D01*
X0Y647D02*
X7Y647D01*
X4188Y647D02*
X4195Y647D01*
X0Y646D02*
X7Y646D01*
X4188Y646D02*
X4195Y646D01*
X0Y645D02*
X7Y645D01*
X4188Y645D02*
X4195Y645D01*
X0Y644D02*
X7Y644D01*
X4188Y644D02*
X4195Y644D01*
X0Y643D02*
X7Y643D01*
X4188Y643D02*
X4195Y643D01*
X0Y642D02*
X7Y642D01*
X4188Y642D02*
X4195Y642D01*
X0Y641D02*
X7Y641D01*
X4188Y641D02*
X4195Y641D01*
X0Y640D02*
X7Y640D01*
X4188Y640D02*
X4195Y640D01*
X0Y639D02*
X7Y639D01*
X4188Y639D02*
X4195Y639D01*
X0Y638D02*
X7Y638D01*
X4188Y638D02*
X4195Y638D01*
X0Y637D02*
X7Y637D01*
X4188Y637D02*
X4195Y637D01*
X0Y636D02*
X7Y636D01*
X4188Y636D02*
X4195Y636D01*
X0Y635D02*
X7Y635D01*
X4188Y635D02*
X4195Y635D01*
X0Y634D02*
X7Y634D01*
X4188Y634D02*
X4195Y634D01*
X0Y633D02*
X7Y633D01*
X4188Y633D02*
X4195Y633D01*
X0Y632D02*
X7Y632D01*
X4188Y632D02*
X4195Y632D01*
X0Y631D02*
X7Y631D01*
X4188Y631D02*
X4195Y631D01*
X0Y630D02*
X7Y630D01*
X4188Y630D02*
X4195Y630D01*
X0Y629D02*
X7Y629D01*
X4188Y629D02*
X4195Y629D01*
X0Y628D02*
X7Y628D01*
X4188Y628D02*
X4195Y628D01*
X0Y627D02*
X7Y627D01*
X4188Y627D02*
X4195Y627D01*
X0Y626D02*
X7Y626D01*
X4188Y626D02*
X4195Y626D01*
X0Y625D02*
X7Y625D01*
X4188Y625D02*
X4195Y625D01*
X0Y624D02*
X7Y624D01*
X4188Y624D02*
X4195Y624D01*
X0Y623D02*
X7Y623D01*
X4188Y623D02*
X4195Y623D01*
X0Y622D02*
X7Y622D01*
X4188Y622D02*
X4195Y622D01*
X0Y621D02*
X7Y621D01*
X4188Y621D02*
X4195Y621D01*
X0Y620D02*
X7Y620D01*
X4188Y620D02*
X4195Y620D01*
X0Y619D02*
X7Y619D01*
X4188Y619D02*
X4195Y619D01*
X0Y618D02*
X7Y618D01*
X4188Y618D02*
X4195Y618D01*
X0Y617D02*
X7Y617D01*
X4188Y617D02*
X4195Y617D01*
X0Y616D02*
X7Y616D01*
X4188Y616D02*
X4195Y616D01*
X0Y615D02*
X7Y615D01*
X4188Y615D02*
X4195Y615D01*
X0Y614D02*
X7Y614D01*
X4188Y614D02*
X4195Y614D01*
X0Y613D02*
X7Y613D01*
X4188Y613D02*
X4195Y613D01*
X0Y612D02*
X7Y612D01*
X4188Y612D02*
X4195Y612D01*
X0Y611D02*
X7Y611D01*
X4188Y611D02*
X4195Y611D01*
X0Y610D02*
X7Y610D01*
X4188Y610D02*
X4195Y610D01*
X0Y609D02*
X7Y609D01*
X4188Y609D02*
X4195Y609D01*
X0Y608D02*
X7Y608D01*
X4188Y608D02*
X4195Y608D01*
X0Y607D02*
X7Y607D01*
X4188Y607D02*
X4195Y607D01*
X0Y606D02*
X7Y606D01*
X4188Y606D02*
X4195Y606D01*
X0Y605D02*
X7Y605D01*
X4188Y605D02*
X4195Y605D01*
X0Y604D02*
X7Y604D01*
X4188Y604D02*
X4195Y604D01*
X0Y603D02*
X7Y603D01*
X4188Y603D02*
X4195Y603D01*
X0Y602D02*
X7Y602D01*
X4188Y602D02*
X4195Y602D01*
X0Y601D02*
X7Y601D01*
X4188Y601D02*
X4195Y601D01*
X0Y600D02*
X7Y600D01*
X4188Y600D02*
X4195Y600D01*
X0Y599D02*
X7Y599D01*
X4188Y599D02*
X4195Y599D01*
X0Y598D02*
X7Y598D01*
X4188Y598D02*
X4195Y598D01*
X0Y597D02*
X7Y597D01*
X4188Y597D02*
X4195Y597D01*
X0Y596D02*
X7Y596D01*
X4188Y596D02*
X4195Y596D01*
X0Y595D02*
X7Y595D01*
X4188Y595D02*
X4195Y595D01*
X0Y594D02*
X7Y594D01*
X4188Y594D02*
X4195Y594D01*
X0Y593D02*
X7Y593D01*
X4188Y593D02*
X4195Y593D01*
X0Y592D02*
X7Y592D01*
X4188Y592D02*
X4195Y592D01*
X0Y591D02*
X7Y591D01*
X4188Y591D02*
X4195Y591D01*
X0Y590D02*
X7Y590D01*
X4188Y590D02*
X4195Y590D01*
X0Y589D02*
X7Y589D01*
X4188Y589D02*
X4195Y589D01*
X0Y588D02*
X7Y588D01*
X4188Y588D02*
X4195Y588D01*
X0Y587D02*
X7Y587D01*
X4188Y587D02*
X4195Y587D01*
X0Y586D02*
X7Y586D01*
X4188Y586D02*
X4195Y586D01*
X0Y585D02*
X7Y585D01*
X4188Y585D02*
X4195Y585D01*
X0Y584D02*
X7Y584D01*
X4188Y584D02*
X4195Y584D01*
X0Y583D02*
X7Y583D01*
X4188Y583D02*
X4195Y583D01*
X0Y582D02*
X7Y582D01*
X4188Y582D02*
X4195Y582D01*
X0Y581D02*
X7Y581D01*
X4188Y581D02*
X4195Y581D01*
X0Y580D02*
X7Y580D01*
X4188Y580D02*
X4195Y580D01*
X0Y579D02*
X7Y579D01*
X4188Y579D02*
X4195Y579D01*
X0Y578D02*
X7Y578D01*
X4188Y578D02*
X4195Y578D01*
X0Y577D02*
X7Y577D01*
X4188Y577D02*
X4195Y577D01*
X0Y576D02*
X7Y576D01*
X4188Y576D02*
X4195Y576D01*
X0Y575D02*
X7Y575D01*
X4188Y575D02*
X4195Y575D01*
X0Y574D02*
X7Y574D01*
X4188Y574D02*
X4195Y574D01*
X0Y573D02*
X7Y573D01*
X4188Y573D02*
X4195Y573D01*
X0Y572D02*
X7Y572D01*
X4188Y572D02*
X4195Y572D01*
X0Y571D02*
X7Y571D01*
X4188Y571D02*
X4195Y571D01*
X0Y570D02*
X7Y570D01*
X4188Y570D02*
X4195Y570D01*
X0Y569D02*
X7Y569D01*
X4188Y569D02*
X4195Y569D01*
X0Y568D02*
X7Y568D01*
X4188Y568D02*
X4195Y568D01*
X0Y567D02*
X7Y567D01*
X4188Y567D02*
X4195Y567D01*
X0Y566D02*
X7Y566D01*
X4188Y566D02*
X4195Y566D01*
X0Y565D02*
X7Y565D01*
X4188Y565D02*
X4195Y565D01*
X0Y564D02*
X7Y564D01*
X4188Y564D02*
X4195Y564D01*
X0Y563D02*
X7Y563D01*
X4188Y563D02*
X4195Y563D01*
X0Y562D02*
X7Y562D01*
X4188Y562D02*
X4195Y562D01*
X0Y561D02*
X7Y561D01*
X4188Y561D02*
X4195Y561D01*
X0Y560D02*
X7Y560D01*
X4188Y560D02*
X4195Y560D01*
X0Y559D02*
X7Y559D01*
X4188Y559D02*
X4195Y559D01*
X0Y558D02*
X7Y558D01*
X4188Y558D02*
X4195Y558D01*
X0Y557D02*
X7Y557D01*
X4188Y557D02*
X4195Y557D01*
X0Y556D02*
X7Y556D01*
X4188Y556D02*
X4195Y556D01*
X0Y555D02*
X7Y555D01*
X4188Y555D02*
X4195Y555D01*
X0Y554D02*
X7Y554D01*
X4188Y554D02*
X4195Y554D01*
X0Y553D02*
X7Y553D01*
X4188Y553D02*
X4195Y553D01*
X0Y552D02*
X7Y552D01*
X4188Y552D02*
X4195Y552D01*
X0Y551D02*
X7Y551D01*
X4188Y551D02*
X4195Y551D01*
X0Y550D02*
X7Y550D01*
X4188Y550D02*
X4195Y550D01*
X0Y549D02*
X7Y549D01*
X4188Y549D02*
X4195Y549D01*
X0Y548D02*
X7Y548D01*
X4188Y548D02*
X4195Y548D01*
X0Y547D02*
X7Y547D01*
X4188Y547D02*
X4195Y547D01*
X0Y546D02*
X7Y546D01*
X4188Y546D02*
X4195Y546D01*
X0Y545D02*
X7Y545D01*
X4188Y545D02*
X4195Y545D01*
X0Y544D02*
X7Y544D01*
X4188Y544D02*
X4195Y544D01*
X0Y543D02*
X7Y543D01*
X4188Y543D02*
X4195Y543D01*
X0Y542D02*
X7Y542D01*
X4188Y542D02*
X4195Y542D01*
X0Y541D02*
X7Y541D01*
X4188Y541D02*
X4195Y541D01*
X0Y540D02*
X7Y540D01*
X4188Y540D02*
X4195Y540D01*
X0Y539D02*
X7Y539D01*
X4188Y539D02*
X4195Y539D01*
X0Y538D02*
X7Y538D01*
X4188Y538D02*
X4195Y538D01*
X0Y537D02*
X7Y537D01*
X4188Y537D02*
X4195Y537D01*
X0Y536D02*
X7Y536D01*
X4188Y536D02*
X4195Y536D01*
X0Y535D02*
X7Y535D01*
X4188Y535D02*
X4195Y535D01*
X0Y534D02*
X7Y534D01*
X4188Y534D02*
X4195Y534D01*
X0Y533D02*
X7Y533D01*
X4188Y533D02*
X4195Y533D01*
X0Y532D02*
X7Y532D01*
X4188Y532D02*
X4195Y532D01*
X0Y531D02*
X7Y531D01*
X4188Y531D02*
X4195Y531D01*
X0Y530D02*
X7Y530D01*
X4188Y530D02*
X4195Y530D01*
X0Y529D02*
X7Y529D01*
X4188Y529D02*
X4195Y529D01*
X0Y528D02*
X7Y528D01*
X4188Y528D02*
X4195Y528D01*
X0Y527D02*
X7Y527D01*
X4188Y527D02*
X4195Y527D01*
X0Y526D02*
X7Y526D01*
X4188Y526D02*
X4195Y526D01*
X0Y525D02*
X7Y525D01*
X4188Y525D02*
X4195Y525D01*
X0Y524D02*
X7Y524D01*
X4188Y524D02*
X4195Y524D01*
X0Y523D02*
X7Y523D01*
X4188Y523D02*
X4195Y523D01*
X0Y522D02*
X7Y522D01*
X4188Y522D02*
X4195Y522D01*
X0Y521D02*
X7Y521D01*
X4188Y521D02*
X4195Y521D01*
X0Y520D02*
X7Y520D01*
X4188Y520D02*
X4195Y520D01*
X0Y519D02*
X7Y519D01*
X4188Y519D02*
X4195Y519D01*
X0Y518D02*
X7Y518D01*
X4188Y518D02*
X4195Y518D01*
X0Y517D02*
X7Y517D01*
X4188Y517D02*
X4195Y517D01*
X0Y516D02*
X7Y516D01*
X4188Y516D02*
X4195Y516D01*
X0Y515D02*
X7Y515D01*
X4188Y515D02*
X4195Y515D01*
X0Y514D02*
X7Y514D01*
X4188Y514D02*
X4195Y514D01*
X0Y513D02*
X7Y513D01*
X4188Y513D02*
X4195Y513D01*
X0Y512D02*
X7Y512D01*
X4188Y512D02*
X4195Y512D01*
X0Y511D02*
X7Y511D01*
X4188Y511D02*
X4195Y511D01*
X0Y510D02*
X7Y510D01*
X4188Y510D02*
X4195Y510D01*
X0Y509D02*
X7Y509D01*
X4188Y509D02*
X4195Y509D01*
X0Y508D02*
X7Y508D01*
X4188Y508D02*
X4195Y508D01*
X0Y507D02*
X7Y507D01*
X4188Y507D02*
X4195Y507D01*
X0Y506D02*
X7Y506D01*
X4188Y506D02*
X4195Y506D01*
X0Y505D02*
X7Y505D01*
X4188Y505D02*
X4195Y505D01*
X0Y504D02*
X7Y504D01*
X4188Y504D02*
X4195Y504D01*
X0Y503D02*
X7Y503D01*
X4188Y503D02*
X4195Y503D01*
X0Y502D02*
X7Y502D01*
X4188Y502D02*
X4195Y502D01*
X0Y501D02*
X7Y501D01*
X4188Y501D02*
X4195Y501D01*
X0Y500D02*
X7Y500D01*
X4188Y500D02*
X4195Y500D01*
X0Y499D02*
X7Y499D01*
X4188Y499D02*
X4195Y499D01*
X0Y498D02*
X7Y498D01*
X4188Y498D02*
X4195Y498D01*
X0Y497D02*
X7Y497D01*
X4188Y497D02*
X4195Y497D01*
X0Y496D02*
X7Y496D01*
X4188Y496D02*
X4195Y496D01*
X0Y495D02*
X7Y495D01*
X4188Y495D02*
X4195Y495D01*
X0Y494D02*
X7Y494D01*
X4188Y494D02*
X4195Y494D01*
X0Y493D02*
X7Y493D01*
X4188Y493D02*
X4195Y493D01*
X0Y492D02*
X7Y492D01*
X4188Y492D02*
X4195Y492D01*
X0Y491D02*
X7Y491D01*
X4188Y491D02*
X4195Y491D01*
X0Y490D02*
X7Y490D01*
X4188Y490D02*
X4195Y490D01*
X0Y489D02*
X7Y489D01*
X4188Y489D02*
X4195Y489D01*
X0Y488D02*
X7Y488D01*
X4188Y488D02*
X4195Y488D01*
X0Y487D02*
X7Y487D01*
X4188Y487D02*
X4195Y487D01*
X0Y486D02*
X7Y486D01*
X4188Y486D02*
X4195Y486D01*
X0Y485D02*
X7Y485D01*
X4188Y485D02*
X4195Y485D01*
X0Y484D02*
X7Y484D01*
X4188Y484D02*
X4195Y484D01*
X0Y483D02*
X7Y483D01*
X4188Y483D02*
X4195Y483D01*
X0Y482D02*
X7Y482D01*
X4188Y482D02*
X4195Y482D01*
X0Y481D02*
X7Y481D01*
X4188Y481D02*
X4195Y481D01*
X0Y480D02*
X7Y480D01*
X4188Y480D02*
X4195Y480D01*
X0Y479D02*
X7Y479D01*
X4188Y479D02*
X4195Y479D01*
X0Y478D02*
X7Y478D01*
X4188Y478D02*
X4195Y478D01*
X0Y477D02*
X7Y477D01*
X4188Y477D02*
X4195Y477D01*
X0Y476D02*
X7Y476D01*
X4188Y476D02*
X4195Y476D01*
X0Y475D02*
X7Y475D01*
X4188Y475D02*
X4195Y475D01*
X0Y474D02*
X7Y474D01*
X4188Y474D02*
X4195Y474D01*
X0Y473D02*
X7Y473D01*
X4188Y473D02*
X4195Y473D01*
X0Y472D02*
X7Y472D01*
X4188Y472D02*
X4195Y472D01*
X0Y471D02*
X7Y471D01*
X4188Y471D02*
X4195Y471D01*
X0Y470D02*
X7Y470D01*
X4188Y470D02*
X4195Y470D01*
X0Y469D02*
X7Y469D01*
X4188Y469D02*
X4195Y469D01*
X0Y468D02*
X7Y468D01*
X4188Y468D02*
X4195Y468D01*
X0Y467D02*
X7Y467D01*
X4188Y467D02*
X4195Y467D01*
X0Y466D02*
X7Y466D01*
X4188Y466D02*
X4195Y466D01*
X0Y465D02*
X7Y465D01*
X4188Y465D02*
X4195Y465D01*
X0Y464D02*
X7Y464D01*
X4188Y464D02*
X4195Y464D01*
X0Y463D02*
X7Y463D01*
X4188Y463D02*
X4195Y463D01*
X0Y462D02*
X7Y462D01*
X4188Y462D02*
X4195Y462D01*
X0Y461D02*
X7Y461D01*
X4188Y461D02*
X4195Y461D01*
X0Y460D02*
X7Y460D01*
X4188Y460D02*
X4195Y460D01*
X0Y459D02*
X7Y459D01*
X4188Y459D02*
X4195Y459D01*
X0Y458D02*
X7Y458D01*
X4188Y458D02*
X4195Y458D01*
X0Y457D02*
X7Y457D01*
X4188Y457D02*
X4195Y457D01*
X0Y456D02*
X7Y456D01*
X4188Y456D02*
X4195Y456D01*
X0Y455D02*
X7Y455D01*
X4188Y455D02*
X4195Y455D01*
X0Y454D02*
X7Y454D01*
X4188Y454D02*
X4195Y454D01*
X0Y453D02*
X7Y453D01*
X4188Y453D02*
X4195Y453D01*
X0Y452D02*
X7Y452D01*
X4188Y452D02*
X4195Y452D01*
X0Y451D02*
X7Y451D01*
X4188Y451D02*
X4195Y451D01*
X0Y450D02*
X7Y450D01*
X4188Y450D02*
X4195Y450D01*
X0Y449D02*
X7Y449D01*
X4188Y449D02*
X4195Y449D01*
X0Y448D02*
X7Y448D01*
X4188Y448D02*
X4195Y448D01*
X0Y447D02*
X7Y447D01*
X4188Y447D02*
X4195Y447D01*
X0Y446D02*
X7Y446D01*
X4188Y446D02*
X4195Y446D01*
X0Y445D02*
X7Y445D01*
X4188Y445D02*
X4195Y445D01*
X0Y444D02*
X7Y444D01*
X4188Y444D02*
X4195Y444D01*
X0Y443D02*
X7Y443D01*
X4188Y443D02*
X4195Y443D01*
X0Y442D02*
X7Y442D01*
X4188Y442D02*
X4195Y442D01*
X0Y441D02*
X7Y441D01*
X4188Y441D02*
X4195Y441D01*
X0Y440D02*
X7Y440D01*
X4188Y440D02*
X4195Y440D01*
X0Y439D02*
X7Y439D01*
X4188Y439D02*
X4195Y439D01*
X0Y438D02*
X7Y438D01*
X4188Y438D02*
X4195Y438D01*
X0Y437D02*
X7Y437D01*
X4188Y437D02*
X4195Y437D01*
X0Y436D02*
X7Y436D01*
X4188Y436D02*
X4195Y436D01*
X0Y435D02*
X7Y435D01*
X4188Y435D02*
X4195Y435D01*
X0Y434D02*
X7Y434D01*
X4188Y434D02*
X4195Y434D01*
X0Y433D02*
X7Y433D01*
X4188Y433D02*
X4195Y433D01*
X0Y432D02*
X7Y432D01*
X4188Y432D02*
X4195Y432D01*
X0Y431D02*
X7Y431D01*
X4188Y431D02*
X4195Y431D01*
X0Y430D02*
X7Y430D01*
X4188Y430D02*
X4195Y430D01*
X0Y429D02*
X7Y429D01*
X4188Y429D02*
X4195Y429D01*
X0Y428D02*
X7Y428D01*
X4188Y428D02*
X4195Y428D01*
X0Y427D02*
X7Y427D01*
X4188Y427D02*
X4195Y427D01*
X0Y426D02*
X7Y426D01*
X4188Y426D02*
X4195Y426D01*
X0Y425D02*
X7Y425D01*
X4188Y425D02*
X4195Y425D01*
X0Y424D02*
X7Y424D01*
X4188Y424D02*
X4195Y424D01*
X0Y423D02*
X7Y423D01*
X4188Y423D02*
X4195Y423D01*
X0Y422D02*
X7Y422D01*
X4188Y422D02*
X4195Y422D01*
X0Y421D02*
X7Y421D01*
X4188Y421D02*
X4195Y421D01*
X0Y420D02*
X7Y420D01*
X4188Y420D02*
X4195Y420D01*
X0Y419D02*
X7Y419D01*
X4188Y419D02*
X4195Y419D01*
X0Y418D02*
X7Y418D01*
X4188Y418D02*
X4195Y418D01*
X0Y417D02*
X7Y417D01*
X4188Y417D02*
X4195Y417D01*
X0Y416D02*
X7Y416D01*
X4188Y416D02*
X4195Y416D01*
X0Y415D02*
X7Y415D01*
X4188Y415D02*
X4195Y415D01*
X0Y414D02*
X7Y414D01*
X4188Y414D02*
X4195Y414D01*
X0Y413D02*
X7Y413D01*
X4188Y413D02*
X4195Y413D01*
X0Y412D02*
X7Y412D01*
X4188Y412D02*
X4195Y412D01*
X0Y411D02*
X7Y411D01*
X4188Y411D02*
X4195Y411D01*
X0Y410D02*
X7Y410D01*
X4188Y410D02*
X4195Y410D01*
X0Y409D02*
X7Y409D01*
X4188Y409D02*
X4195Y409D01*
X0Y408D02*
X7Y408D01*
X4188Y408D02*
X4195Y408D01*
X0Y407D02*
X7Y407D01*
X4188Y407D02*
X4195Y407D01*
X0Y406D02*
X7Y406D01*
X4188Y406D02*
X4195Y406D01*
X0Y405D02*
X7Y405D01*
X4188Y405D02*
X4195Y405D01*
X0Y404D02*
X7Y404D01*
X4188Y404D02*
X4195Y404D01*
X0Y403D02*
X7Y403D01*
X4188Y403D02*
X4195Y403D01*
X0Y402D02*
X7Y402D01*
X4188Y402D02*
X4195Y402D01*
X0Y401D02*
X7Y401D01*
X4188Y401D02*
X4195Y401D01*
X0Y400D02*
X7Y400D01*
X4188Y400D02*
X4195Y400D01*
X0Y399D02*
X7Y399D01*
X4188Y399D02*
X4195Y399D01*
X0Y398D02*
X7Y398D01*
X4188Y398D02*
X4195Y398D01*
X0Y397D02*
X7Y397D01*
X4188Y397D02*
X4195Y397D01*
X0Y396D02*
X7Y396D01*
X4188Y396D02*
X4195Y396D01*
X0Y395D02*
X7Y395D01*
X4188Y395D02*
X4195Y395D01*
X0Y394D02*
X7Y394D01*
X4188Y394D02*
X4195Y394D01*
X0Y393D02*
X7Y393D01*
X4188Y393D02*
X4195Y393D01*
X0Y392D02*
X7Y392D01*
X4188Y392D02*
X4195Y392D01*
X0Y391D02*
X7Y391D01*
X4188Y391D02*
X4195Y391D01*
X0Y390D02*
X7Y390D01*
X4188Y390D02*
X4195Y390D01*
X0Y389D02*
X7Y389D01*
X4188Y389D02*
X4195Y389D01*
X0Y388D02*
X7Y388D01*
X4188Y388D02*
X4195Y388D01*
X0Y387D02*
X7Y387D01*
X4188Y387D02*
X4195Y387D01*
X0Y386D02*
X7Y386D01*
X4188Y386D02*
X4195Y386D01*
X0Y385D02*
X7Y385D01*
X4188Y385D02*
X4195Y385D01*
X0Y384D02*
X7Y384D01*
X4188Y384D02*
X4195Y384D01*
X0Y383D02*
X7Y383D01*
X4188Y383D02*
X4195Y383D01*
X0Y382D02*
X7Y382D01*
X4188Y382D02*
X4195Y382D01*
X0Y381D02*
X7Y381D01*
X4188Y381D02*
X4195Y381D01*
X0Y380D02*
X7Y380D01*
X4188Y380D02*
X4195Y380D01*
X0Y379D02*
X7Y379D01*
X4188Y379D02*
X4195Y379D01*
X0Y378D02*
X7Y378D01*
X4188Y378D02*
X4195Y378D01*
X0Y377D02*
X7Y377D01*
X4188Y377D02*
X4195Y377D01*
X0Y376D02*
X7Y376D01*
X4188Y376D02*
X4195Y376D01*
X0Y375D02*
X7Y375D01*
X4188Y375D02*
X4195Y375D01*
X0Y374D02*
X7Y374D01*
X4188Y374D02*
X4195Y374D01*
X0Y373D02*
X7Y373D01*
X4188Y373D02*
X4195Y373D01*
X0Y372D02*
X7Y372D01*
X4188Y372D02*
X4195Y372D01*
X0Y371D02*
X7Y371D01*
X4188Y371D02*
X4195Y371D01*
X0Y370D02*
X7Y370D01*
X4188Y370D02*
X4195Y370D01*
X0Y369D02*
X7Y369D01*
X4188Y369D02*
X4195Y369D01*
X0Y368D02*
X7Y368D01*
X4188Y368D02*
X4195Y368D01*
X0Y367D02*
X7Y367D01*
X4188Y367D02*
X4195Y367D01*
X0Y366D02*
X7Y366D01*
X4188Y366D02*
X4195Y366D01*
X0Y365D02*
X7Y365D01*
X4188Y365D02*
X4195Y365D01*
X0Y364D02*
X7Y364D01*
X4188Y364D02*
X4195Y364D01*
X0Y363D02*
X7Y363D01*
X4188Y363D02*
X4195Y363D01*
X0Y362D02*
X7Y362D01*
X4188Y362D02*
X4195Y362D01*
X0Y361D02*
X7Y361D01*
X4188Y361D02*
X4195Y361D01*
X0Y360D02*
X7Y360D01*
X4188Y360D02*
X4195Y360D01*
X0Y359D02*
X7Y359D01*
X4188Y359D02*
X4195Y359D01*
X0Y358D02*
X7Y358D01*
X4188Y358D02*
X4195Y358D01*
X0Y357D02*
X7Y357D01*
X4188Y357D02*
X4195Y357D01*
X0Y356D02*
X7Y356D01*
X4188Y356D02*
X4195Y356D01*
X0Y355D02*
X7Y355D01*
X4188Y355D02*
X4195Y355D01*
X0Y354D02*
X7Y354D01*
X4188Y354D02*
X4195Y354D01*
X0Y353D02*
X7Y353D01*
X4188Y353D02*
X4195Y353D01*
X0Y352D02*
X7Y352D01*
X4188Y352D02*
X4195Y352D01*
X0Y351D02*
X7Y351D01*
X4188Y351D02*
X4195Y351D01*
X0Y350D02*
X7Y350D01*
X4188Y350D02*
X4195Y350D01*
X0Y349D02*
X7Y349D01*
X4188Y349D02*
X4195Y349D01*
X0Y348D02*
X7Y348D01*
X4188Y348D02*
X4195Y348D01*
X0Y347D02*
X7Y347D01*
X4188Y347D02*
X4195Y347D01*
X0Y346D02*
X7Y346D01*
X4188Y346D02*
X4195Y346D01*
X0Y345D02*
X7Y345D01*
X4188Y345D02*
X4195Y345D01*
X0Y344D02*
X7Y344D01*
X4188Y344D02*
X4195Y344D01*
X0Y343D02*
X7Y343D01*
X4188Y343D02*
X4195Y343D01*
X0Y342D02*
X7Y342D01*
X4188Y342D02*
X4195Y342D01*
X0Y341D02*
X7Y341D01*
X4188Y341D02*
X4195Y341D01*
X0Y340D02*
X7Y340D01*
X4188Y340D02*
X4195Y340D01*
X0Y339D02*
X7Y339D01*
X4188Y339D02*
X4195Y339D01*
X0Y338D02*
X7Y338D01*
X4188Y338D02*
X4195Y338D01*
X0Y337D02*
X7Y337D01*
X4188Y337D02*
X4195Y337D01*
X0Y336D02*
X7Y336D01*
X4188Y336D02*
X4195Y336D01*
X0Y335D02*
X7Y335D01*
X4188Y335D02*
X4195Y335D01*
X0Y334D02*
X7Y334D01*
X4188Y334D02*
X4195Y334D01*
X0Y333D02*
X7Y333D01*
X4188Y333D02*
X4195Y333D01*
X0Y332D02*
X7Y332D01*
X4188Y332D02*
X4195Y332D01*
X0Y331D02*
X7Y331D01*
X4188Y331D02*
X4195Y331D01*
X0Y330D02*
X7Y330D01*
X4188Y330D02*
X4195Y330D01*
X0Y329D02*
X7Y329D01*
X4188Y329D02*
X4195Y329D01*
X0Y328D02*
X7Y328D01*
X4188Y328D02*
X4195Y328D01*
X0Y327D02*
X7Y327D01*
X4188Y327D02*
X4195Y327D01*
X0Y326D02*
X7Y326D01*
X4188Y326D02*
X4195Y326D01*
X0Y325D02*
X7Y325D01*
X4188Y325D02*
X4195Y325D01*
X0Y324D02*
X7Y324D01*
X4188Y324D02*
X4195Y324D01*
X0Y323D02*
X7Y323D01*
X4188Y323D02*
X4195Y323D01*
X0Y322D02*
X7Y322D01*
X4188Y322D02*
X4195Y322D01*
X0Y321D02*
X7Y321D01*
X4188Y321D02*
X4195Y321D01*
X0Y320D02*
X7Y320D01*
X4188Y320D02*
X4195Y320D01*
X0Y319D02*
X7Y319D01*
X4188Y319D02*
X4195Y319D01*
X0Y318D02*
X7Y318D01*
X4188Y318D02*
X4195Y318D01*
X0Y317D02*
X7Y317D01*
X4188Y317D02*
X4195Y317D01*
X0Y316D02*
X7Y316D01*
X4188Y316D02*
X4195Y316D01*
X0Y315D02*
X7Y315D01*
X4188Y315D02*
X4195Y315D01*
X0Y314D02*
X7Y314D01*
X4188Y314D02*
X4195Y314D01*
X0Y313D02*
X7Y313D01*
X4188Y313D02*
X4195Y313D01*
X0Y312D02*
X7Y312D01*
X4188Y312D02*
X4195Y312D01*
X0Y311D02*
X7Y311D01*
X4188Y311D02*
X4195Y311D01*
X0Y310D02*
X7Y310D01*
X4188Y310D02*
X4195Y310D01*
X0Y309D02*
X7Y309D01*
X4188Y309D02*
X4195Y309D01*
X0Y308D02*
X7Y308D01*
X4188Y308D02*
X4195Y308D01*
X0Y307D02*
X7Y307D01*
X4188Y307D02*
X4195Y307D01*
X0Y306D02*
X7Y306D01*
X4188Y306D02*
X4195Y306D01*
X0Y305D02*
X7Y305D01*
X4188Y305D02*
X4195Y305D01*
X0Y304D02*
X7Y304D01*
X4188Y304D02*
X4195Y304D01*
X0Y303D02*
X7Y303D01*
X4188Y303D02*
X4195Y303D01*
X0Y302D02*
X7Y302D01*
X4188Y302D02*
X4195Y302D01*
X0Y301D02*
X7Y301D01*
X4188Y301D02*
X4195Y301D01*
X0Y300D02*
X7Y300D01*
X4188Y300D02*
X4195Y300D01*
X0Y299D02*
X7Y299D01*
X4188Y299D02*
X4195Y299D01*
X0Y298D02*
X7Y298D01*
X4188Y298D02*
X4195Y298D01*
X0Y297D02*
X7Y297D01*
X4188Y297D02*
X4195Y297D01*
X0Y296D02*
X7Y296D01*
X4188Y296D02*
X4195Y296D01*
X0Y295D02*
X7Y295D01*
X4188Y295D02*
X4195Y295D01*
X0Y294D02*
X7Y294D01*
X4188Y294D02*
X4195Y294D01*
X0Y293D02*
X7Y293D01*
X4188Y293D02*
X4195Y293D01*
X0Y292D02*
X7Y292D01*
X4188Y292D02*
X4195Y292D01*
X0Y291D02*
X7Y291D01*
X4188Y291D02*
X4195Y291D01*
X0Y290D02*
X7Y290D01*
X4188Y290D02*
X4195Y290D01*
X0Y289D02*
X7Y289D01*
X4188Y289D02*
X4195Y289D01*
X0Y288D02*
X7Y288D01*
X4188Y288D02*
X4195Y288D01*
X0Y287D02*
X7Y287D01*
X4188Y287D02*
X4195Y287D01*
X0Y286D02*
X7Y286D01*
X4188Y286D02*
X4195Y286D01*
X0Y285D02*
X7Y285D01*
X4188Y285D02*
X4195Y285D01*
X0Y284D02*
X7Y284D01*
X4188Y284D02*
X4195Y284D01*
X0Y283D02*
X7Y283D01*
X4188Y283D02*
X4195Y283D01*
X0Y282D02*
X7Y282D01*
X4188Y282D02*
X4195Y282D01*
X0Y281D02*
X7Y281D01*
X4188Y281D02*
X4195Y281D01*
X0Y280D02*
X7Y280D01*
X4188Y280D02*
X4195Y280D01*
X0Y279D02*
X7Y279D01*
X4188Y279D02*
X4195Y279D01*
X0Y278D02*
X7Y278D01*
X4188Y278D02*
X4195Y278D01*
X0Y277D02*
X7Y277D01*
X4188Y277D02*
X4195Y277D01*
X0Y276D02*
X7Y276D01*
X4188Y276D02*
X4195Y276D01*
X0Y275D02*
X7Y275D01*
X4188Y275D02*
X4195Y275D01*
X0Y274D02*
X7Y274D01*
X4188Y274D02*
X4195Y274D01*
X0Y273D02*
X7Y273D01*
X4188Y273D02*
X4195Y273D01*
X0Y272D02*
X7Y272D01*
X4188Y272D02*
X4195Y272D01*
X0Y271D02*
X7Y271D01*
X4188Y271D02*
X4195Y271D01*
X0Y270D02*
X7Y270D01*
X4188Y270D02*
X4195Y270D01*
X0Y269D02*
X7Y269D01*
X4188Y269D02*
X4195Y269D01*
X0Y268D02*
X7Y268D01*
X4188Y268D02*
X4195Y268D01*
X0Y267D02*
X7Y267D01*
X4188Y267D02*
X4195Y267D01*
X0Y266D02*
X7Y266D01*
X4188Y266D02*
X4195Y266D01*
X0Y265D02*
X7Y265D01*
X4188Y265D02*
X4195Y265D01*
X0Y264D02*
X7Y264D01*
X4188Y264D02*
X4195Y264D01*
X0Y263D02*
X7Y263D01*
X4188Y263D02*
X4195Y263D01*
X0Y262D02*
X7Y262D01*
X4188Y262D02*
X4195Y262D01*
X0Y261D02*
X7Y261D01*
X4188Y261D02*
X4195Y261D01*
X0Y260D02*
X7Y260D01*
X4188Y260D02*
X4195Y260D01*
X0Y259D02*
X7Y259D01*
X4188Y259D02*
X4195Y259D01*
X0Y258D02*
X7Y258D01*
X4188Y258D02*
X4195Y258D01*
X0Y257D02*
X7Y257D01*
X4188Y257D02*
X4195Y257D01*
X0Y256D02*
X7Y256D01*
X4188Y256D02*
X4195Y256D01*
X0Y255D02*
X7Y255D01*
X4188Y255D02*
X4195Y255D01*
X0Y254D02*
X7Y254D01*
X4188Y254D02*
X4195Y254D01*
X0Y253D02*
X7Y253D01*
X4188Y253D02*
X4195Y253D01*
X0Y252D02*
X7Y252D01*
X4188Y252D02*
X4195Y252D01*
X0Y251D02*
X7Y251D01*
X4188Y251D02*
X4195Y251D01*
X0Y250D02*
X7Y250D01*
X4188Y250D02*
X4195Y250D01*
X0Y249D02*
X7Y249D01*
X4188Y249D02*
X4195Y249D01*
X0Y248D02*
X7Y248D01*
X4188Y248D02*
X4195Y248D01*
X0Y247D02*
X7Y247D01*
X4188Y247D02*
X4195Y247D01*
X0Y246D02*
X7Y246D01*
X4188Y246D02*
X4195Y246D01*
X0Y245D02*
X7Y245D01*
X4188Y245D02*
X4195Y245D01*
X0Y244D02*
X7Y244D01*
X4188Y244D02*
X4195Y244D01*
X0Y243D02*
X7Y243D01*
X4188Y243D02*
X4195Y243D01*
X0Y242D02*
X7Y242D01*
X4188Y242D02*
X4195Y242D01*
X0Y241D02*
X7Y241D01*
X4188Y241D02*
X4195Y241D01*
X0Y240D02*
X7Y240D01*
X4188Y240D02*
X4195Y240D01*
X0Y239D02*
X7Y239D01*
X4188Y239D02*
X4195Y239D01*
X0Y238D02*
X7Y238D01*
X4188Y238D02*
X4195Y238D01*
X0Y237D02*
X7Y237D01*
X4188Y237D02*
X4195Y237D01*
X0Y236D02*
X7Y236D01*
X4188Y236D02*
X4195Y236D01*
X0Y235D02*
X7Y235D01*
X4188Y235D02*
X4195Y235D01*
X0Y234D02*
X7Y234D01*
X4188Y234D02*
X4195Y234D01*
X0Y233D02*
X7Y233D01*
X4188Y233D02*
X4195Y233D01*
X0Y232D02*
X7Y232D01*
X4188Y232D02*
X4195Y232D01*
X0Y231D02*
X7Y231D01*
X4188Y231D02*
X4195Y231D01*
X0Y230D02*
X7Y230D01*
X4188Y230D02*
X4195Y230D01*
X0Y229D02*
X7Y229D01*
X4188Y229D02*
X4195Y229D01*
X0Y228D02*
X7Y228D01*
X4188Y228D02*
X4195Y228D01*
X0Y227D02*
X7Y227D01*
X4188Y227D02*
X4195Y227D01*
X0Y226D02*
X7Y226D01*
X4188Y226D02*
X4195Y226D01*
X0Y225D02*
X7Y225D01*
X4188Y225D02*
X4195Y225D01*
X0Y224D02*
X7Y224D01*
X4188Y224D02*
X4195Y224D01*
X0Y223D02*
X7Y223D01*
X4188Y223D02*
X4195Y223D01*
X0Y222D02*
X7Y222D01*
X4188Y222D02*
X4195Y222D01*
X0Y221D02*
X7Y221D01*
X4188Y221D02*
X4195Y221D01*
X0Y220D02*
X7Y220D01*
X4188Y220D02*
X4195Y220D01*
X0Y219D02*
X7Y219D01*
X4188Y219D02*
X4195Y219D01*
X0Y218D02*
X7Y218D01*
X4188Y218D02*
X4195Y218D01*
X0Y217D02*
X7Y217D01*
X4188Y217D02*
X4195Y217D01*
X0Y216D02*
X7Y216D01*
X4188Y216D02*
X4195Y216D01*
X0Y215D02*
X7Y215D01*
X4188Y215D02*
X4195Y215D01*
X0Y214D02*
X7Y214D01*
X4188Y214D02*
X4195Y214D01*
X0Y213D02*
X7Y213D01*
X4188Y213D02*
X4195Y213D01*
X0Y212D02*
X7Y212D01*
X4188Y212D02*
X4195Y212D01*
X0Y211D02*
X7Y211D01*
X4188Y211D02*
X4195Y211D01*
X0Y210D02*
X7Y210D01*
X4188Y210D02*
X4195Y210D01*
X0Y209D02*
X7Y209D01*
X4188Y209D02*
X4195Y209D01*
X0Y208D02*
X7Y208D01*
X4188Y208D02*
X4195Y208D01*
X0Y207D02*
X7Y207D01*
X4188Y207D02*
X4195Y207D01*
X0Y206D02*
X7Y206D01*
X4188Y206D02*
X4195Y206D01*
X0Y205D02*
X7Y205D01*
X4188Y205D02*
X4195Y205D01*
X0Y204D02*
X7Y204D01*
X4188Y204D02*
X4195Y204D01*
X0Y203D02*
X7Y203D01*
X4188Y203D02*
X4195Y203D01*
X0Y202D02*
X7Y202D01*
X4188Y202D02*
X4195Y202D01*
X0Y201D02*
X7Y201D01*
X4188Y201D02*
X4195Y201D01*
X0Y200D02*
X7Y200D01*
X4188Y200D02*
X4195Y200D01*
X0Y199D02*
X7Y199D01*
X4188Y199D02*
X4195Y199D01*
X0Y198D02*
X7Y198D01*
X4188Y198D02*
X4195Y198D01*
X0Y197D02*
X7Y197D01*
X4188Y197D02*
X4195Y197D01*
X0Y196D02*
X7Y196D01*
X4188Y196D02*
X4195Y196D01*
X0Y195D02*
X7Y195D01*
X4188Y195D02*
X4195Y195D01*
X0Y194D02*
X7Y194D01*
X4188Y194D02*
X4195Y194D01*
X0Y193D02*
X7Y193D01*
X4188Y193D02*
X4195Y193D01*
X0Y192D02*
X7Y192D01*
X4188Y192D02*
X4195Y192D01*
X0Y191D02*
X7Y191D01*
X4188Y191D02*
X4195Y191D01*
X0Y190D02*
X7Y190D01*
X4188Y190D02*
X4195Y190D01*
X0Y189D02*
X7Y189D01*
X4188Y189D02*
X4195Y189D01*
X0Y188D02*
X7Y188D01*
X4188Y188D02*
X4195Y188D01*
X0Y187D02*
X7Y187D01*
X4188Y187D02*
X4195Y187D01*
X0Y186D02*
X7Y186D01*
X4188Y186D02*
X4195Y186D01*
X0Y185D02*
X7Y185D01*
X4188Y185D02*
X4195Y185D01*
X0Y184D02*
X7Y184D01*
X4188Y184D02*
X4195Y184D01*
X0Y183D02*
X7Y183D01*
X4188Y183D02*
X4195Y183D01*
X0Y182D02*
X7Y182D01*
X4188Y182D02*
X4195Y182D01*
X0Y181D02*
X7Y181D01*
X4188Y181D02*
X4195Y181D01*
X0Y180D02*
X7Y180D01*
X4188Y180D02*
X4195Y180D01*
X0Y179D02*
X7Y179D01*
X4188Y179D02*
X4195Y179D01*
X0Y178D02*
X7Y178D01*
X4188Y178D02*
X4195Y178D01*
X0Y177D02*
X7Y177D01*
X4188Y177D02*
X4195Y177D01*
X0Y176D02*
X7Y176D01*
X4188Y176D02*
X4195Y176D01*
X0Y175D02*
X7Y175D01*
X4188Y175D02*
X4195Y175D01*
X0Y174D02*
X7Y174D01*
X4188Y174D02*
X4195Y174D01*
X0Y173D02*
X7Y173D01*
X4188Y173D02*
X4195Y173D01*
X0Y172D02*
X7Y172D01*
X4188Y172D02*
X4195Y172D01*
X0Y171D02*
X7Y171D01*
X4188Y171D02*
X4195Y171D01*
X0Y170D02*
X7Y170D01*
X4188Y170D02*
X4195Y170D01*
X0Y169D02*
X7Y169D01*
X4188Y169D02*
X4195Y169D01*
X0Y168D02*
X7Y168D01*
X4188Y168D02*
X4195Y168D01*
X0Y167D02*
X7Y167D01*
X4188Y167D02*
X4195Y167D01*
X0Y166D02*
X7Y166D01*
X4188Y166D02*
X4195Y166D01*
X0Y165D02*
X7Y165D01*
X4188Y165D02*
X4195Y165D01*
X0Y164D02*
X7Y164D01*
X4188Y164D02*
X4195Y164D01*
X0Y163D02*
X7Y163D01*
X4188Y163D02*
X4195Y163D01*
X0Y162D02*
X7Y162D01*
X4188Y162D02*
X4195Y162D01*
X0Y161D02*
X7Y161D01*
X4188Y161D02*
X4195Y161D01*
X0Y160D02*
X7Y160D01*
X4188Y160D02*
X4195Y160D01*
X0Y159D02*
X7Y159D01*
X4188Y159D02*
X4195Y159D01*
X0Y158D02*
X7Y158D01*
X4188Y158D02*
X4195Y158D01*
X0Y157D02*
X7Y157D01*
X4188Y157D02*
X4195Y157D01*
X0Y156D02*
X7Y156D01*
X4188Y156D02*
X4195Y156D01*
X0Y155D02*
X7Y155D01*
X4188Y155D02*
X4195Y155D01*
X0Y154D02*
X7Y154D01*
X4188Y154D02*
X4195Y154D01*
X0Y153D02*
X7Y153D01*
X4188Y153D02*
X4195Y153D01*
X0Y152D02*
X7Y152D01*
X4188Y152D02*
X4195Y152D01*
X0Y151D02*
X7Y151D01*
X4188Y151D02*
X4195Y151D01*
X0Y150D02*
X7Y150D01*
X4188Y150D02*
X4195Y150D01*
X0Y149D02*
X7Y149D01*
X4188Y149D02*
X4195Y149D01*
X0Y148D02*
X7Y148D01*
X4188Y148D02*
X4195Y148D01*
X0Y147D02*
X7Y147D01*
X4188Y147D02*
X4195Y147D01*
X0Y146D02*
X7Y146D01*
X4188Y146D02*
X4195Y146D01*
X0Y145D02*
X7Y145D01*
X4188Y145D02*
X4195Y145D01*
X0Y144D02*
X7Y144D01*
X4188Y144D02*
X4195Y144D01*
X0Y143D02*
X7Y143D01*
X4188Y143D02*
X4195Y143D01*
X0Y142D02*
X7Y142D01*
X4188Y142D02*
X4195Y142D01*
X0Y141D02*
X7Y141D01*
X4188Y141D02*
X4195Y141D01*
X0Y140D02*
X7Y140D01*
X4188Y140D02*
X4195Y140D01*
X0Y139D02*
X7Y139D01*
X4188Y139D02*
X4195Y139D01*
X0Y138D02*
X7Y138D01*
X4188Y138D02*
X4195Y138D01*
X0Y137D02*
X7Y137D01*
X4188Y137D02*
X4195Y137D01*
X0Y136D02*
X7Y136D01*
X4188Y136D02*
X4195Y136D01*
X0Y135D02*
X7Y135D01*
X4188Y135D02*
X4195Y135D01*
X0Y134D02*
X7Y134D01*
X4188Y134D02*
X4195Y134D01*
X0Y133D02*
X7Y133D01*
X4188Y133D02*
X4195Y133D01*
X0Y132D02*
X7Y132D01*
X4188Y132D02*
X4195Y132D01*
X0Y131D02*
X7Y131D01*
X4188Y131D02*
X4195Y131D01*
X0Y130D02*
X7Y130D01*
X4188Y130D02*
X4195Y130D01*
X0Y129D02*
X7Y129D01*
X4188Y129D02*
X4195Y129D01*
X0Y128D02*
X7Y128D01*
X4188Y128D02*
X4195Y128D01*
X0Y127D02*
X7Y127D01*
X4188Y127D02*
X4195Y127D01*
X0Y126D02*
X7Y126D01*
X4188Y126D02*
X4195Y126D01*
X0Y125D02*
X7Y125D01*
X4188Y125D02*
X4195Y125D01*
X0Y124D02*
X7Y124D01*
X4188Y124D02*
X4195Y124D01*
X0Y123D02*
X7Y123D01*
X4188Y123D02*
X4195Y123D01*
X0Y122D02*
X7Y122D01*
X4188Y122D02*
X4195Y122D01*
X0Y121D02*
X7Y121D01*
X4188Y121D02*
X4195Y121D01*
X0Y120D02*
X7Y120D01*
X4188Y120D02*
X4195Y120D01*
X0Y119D02*
X7Y119D01*
X4188Y119D02*
X4195Y119D01*
X0Y118D02*
X7Y118D01*
X4188Y118D02*
X4195Y118D01*
X0Y117D02*
X7Y117D01*
X4188Y117D02*
X4195Y117D01*
X0Y116D02*
X7Y116D01*
X4188Y116D02*
X4195Y116D01*
X0Y115D02*
X7Y115D01*
X4188Y115D02*
X4195Y115D01*
X0Y114D02*
X7Y114D01*
X4188Y114D02*
X4195Y114D01*
X0Y113D02*
X7Y113D01*
X4188Y113D02*
X4195Y113D01*
X0Y112D02*
X7Y112D01*
X4188Y112D02*
X4195Y112D01*
X0Y111D02*
X7Y111D01*
X4188Y111D02*
X4195Y111D01*
X0Y110D02*
X7Y110D01*
X4188Y110D02*
X4195Y110D01*
X0Y109D02*
X7Y109D01*
X4188Y109D02*
X4195Y109D01*
X0Y108D02*
X7Y108D01*
X4188Y108D02*
X4195Y108D01*
X0Y107D02*
X7Y107D01*
X4188Y107D02*
X4195Y107D01*
X0Y106D02*
X7Y106D01*
X4188Y106D02*
X4195Y106D01*
X0Y105D02*
X7Y105D01*
X4188Y105D02*
X4195Y105D01*
X0Y104D02*
X7Y104D01*
X4188Y104D02*
X4195Y104D01*
X0Y103D02*
X7Y103D01*
X4188Y103D02*
X4195Y103D01*
X0Y102D02*
X7Y102D01*
X4188Y102D02*
X4195Y102D01*
X0Y101D02*
X7Y101D01*
X4188Y101D02*
X4195Y101D01*
X0Y100D02*
X7Y100D01*
X4188Y100D02*
X4195Y100D01*
X0Y99D02*
X7Y99D01*
X4188Y99D02*
X4195Y99D01*
X0Y98D02*
X7Y98D01*
X4188Y98D02*
X4195Y98D01*
X0Y97D02*
X7Y97D01*
X4188Y97D02*
X4195Y97D01*
X0Y96D02*
X7Y96D01*
X4188Y96D02*
X4195Y96D01*
X0Y95D02*
X7Y95D01*
X4188Y95D02*
X4195Y95D01*
X0Y94D02*
X7Y94D01*
X4188Y94D02*
X4195Y94D01*
X0Y93D02*
X7Y93D01*
X4188Y93D02*
X4195Y93D01*
X0Y92D02*
X7Y92D01*
X4188Y92D02*
X4195Y92D01*
X0Y91D02*
X7Y91D01*
X4188Y91D02*
X4195Y91D01*
X0Y90D02*
X7Y90D01*
X4188Y90D02*
X4195Y90D01*
X0Y89D02*
X7Y89D01*
X4188Y89D02*
X4195Y89D01*
X0Y88D02*
X7Y88D01*
X4188Y88D02*
X4195Y88D01*
X0Y87D02*
X7Y87D01*
X4188Y87D02*
X4195Y87D01*
X0Y86D02*
X7Y86D01*
X4188Y86D02*
X4195Y86D01*
X0Y85D02*
X7Y85D01*
X4188Y85D02*
X4195Y85D01*
X0Y84D02*
X7Y84D01*
X4188Y84D02*
X4195Y84D01*
X0Y83D02*
X7Y83D01*
X4188Y83D02*
X4195Y83D01*
X0Y82D02*
X7Y82D01*
X4188Y82D02*
X4195Y82D01*
X0Y81D02*
X7Y81D01*
X4188Y81D02*
X4195Y81D01*
X0Y80D02*
X7Y80D01*
X4188Y80D02*
X4195Y80D01*
X0Y79D02*
X7Y79D01*
X4188Y79D02*
X4195Y79D01*
X0Y78D02*
X7Y78D01*
X4188Y78D02*
X4195Y78D01*
X0Y77D02*
X7Y77D01*
X4188Y77D02*
X4195Y77D01*
X0Y76D02*
X7Y76D01*
X4188Y76D02*
X4195Y76D01*
X0Y75D02*
X7Y75D01*
X4188Y75D02*
X4195Y75D01*
X0Y74D02*
X7Y74D01*
X4188Y74D02*
X4195Y74D01*
X0Y73D02*
X7Y73D01*
X4188Y73D02*
X4195Y73D01*
X0Y72D02*
X7Y72D01*
X4188Y72D02*
X4195Y72D01*
X0Y71D02*
X7Y71D01*
X4188Y71D02*
X4195Y71D01*
X0Y70D02*
X7Y70D01*
X4188Y70D02*
X4195Y70D01*
X0Y69D02*
X7Y69D01*
X4188Y69D02*
X4195Y69D01*
X0Y68D02*
X7Y68D01*
X4188Y68D02*
X4195Y68D01*
X0Y67D02*
X7Y67D01*
X4188Y67D02*
X4195Y67D01*
X0Y66D02*
X7Y66D01*
X4188Y66D02*
X4195Y66D01*
X0Y65D02*
X7Y65D01*
X4188Y65D02*
X4195Y65D01*
X0Y64D02*
X7Y64D01*
X4188Y64D02*
X4195Y64D01*
X0Y63D02*
X7Y63D01*
X4188Y63D02*
X4195Y63D01*
X0Y62D02*
X7Y62D01*
X4188Y62D02*
X4195Y62D01*
X0Y61D02*
X7Y61D01*
X4188Y61D02*
X4195Y61D01*
X0Y60D02*
X7Y60D01*
X4188Y60D02*
X4195Y60D01*
X0Y59D02*
X7Y59D01*
X4188Y59D02*
X4195Y59D01*
X0Y58D02*
X7Y58D01*
X4188Y58D02*
X4195Y58D01*
X0Y57D02*
X7Y57D01*
X4188Y57D02*
X4195Y57D01*
X0Y56D02*
X7Y56D01*
X4188Y56D02*
X4195Y56D01*
X0Y55D02*
X7Y55D01*
X4188Y55D02*
X4195Y55D01*
X0Y54D02*
X7Y54D01*
X4188Y54D02*
X4195Y54D01*
X0Y53D02*
X7Y53D01*
X4188Y53D02*
X4195Y53D01*
X0Y52D02*
X7Y52D01*
X4188Y52D02*
X4195Y52D01*
X0Y51D02*
X7Y51D01*
X4188Y51D02*
X4195Y51D01*
X0Y50D02*
X7Y50D01*
X4188Y50D02*
X4195Y50D01*
X0Y49D02*
X7Y49D01*
X4188Y49D02*
X4195Y49D01*
X0Y48D02*
X7Y48D01*
X4188Y48D02*
X4195Y48D01*
X0Y47D02*
X7Y47D01*
X4188Y47D02*
X4195Y47D01*
X0Y46D02*
X7Y46D01*
X4188Y46D02*
X4195Y46D01*
X0Y45D02*
X7Y45D01*
X4188Y45D02*
X4195Y45D01*
X0Y44D02*
X7Y44D01*
X4188Y44D02*
X4195Y44D01*
X0Y43D02*
X7Y43D01*
X4188Y43D02*
X4195Y43D01*
X0Y42D02*
X7Y42D01*
X4188Y42D02*
X4195Y42D01*
X0Y41D02*
X7Y41D01*
X4188Y41D02*
X4195Y41D01*
X0Y40D02*
X7Y40D01*
X4188Y40D02*
X4195Y40D01*
X0Y39D02*
X7Y39D01*
X4188Y39D02*
X4195Y39D01*
X0Y38D02*
X7Y38D01*
X4188Y38D02*
X4195Y38D01*
X0Y37D02*
X7Y37D01*
X4188Y37D02*
X4195Y37D01*
X0Y36D02*
X7Y36D01*
X4188Y36D02*
X4195Y36D01*
X0Y35D02*
X7Y35D01*
X4188Y35D02*
X4195Y35D01*
X0Y34D02*
X7Y34D01*
X4188Y34D02*
X4195Y34D01*
X0Y33D02*
X7Y33D01*
X4188Y33D02*
X4195Y33D01*
X0Y32D02*
X7Y32D01*
X4188Y32D02*
X4195Y32D01*
X0Y31D02*
X7Y31D01*
X4188Y31D02*
X4195Y31D01*
X0Y30D02*
X7Y30D01*
X4188Y30D02*
X4195Y30D01*
X0Y29D02*
X7Y29D01*
X4188Y29D02*
X4195Y29D01*
X0Y28D02*
X7Y28D01*
X4188Y28D02*
X4195Y28D01*
X0Y27D02*
X7Y27D01*
X4188Y27D02*
X4195Y27D01*
X0Y26D02*
X7Y26D01*
X4188Y26D02*
X4195Y26D01*
X0Y25D02*
X7Y25D01*
X4188Y25D02*
X4195Y25D01*
X0Y24D02*
X7Y24D01*
X4188Y24D02*
X4195Y24D01*
X0Y23D02*
X7Y23D01*
X4188Y23D02*
X4195Y23D01*
X0Y22D02*
X7Y22D01*
X4188Y22D02*
X4195Y22D01*
X0Y21D02*
X7Y21D01*
X4188Y21D02*
X4195Y21D01*
X0Y20D02*
X7Y20D01*
X4188Y20D02*
X4195Y20D01*
X0Y19D02*
X7Y19D01*
X4188Y19D02*
X4195Y19D01*
X0Y18D02*
X7Y18D01*
X4188Y18D02*
X4195Y18D01*
X0Y17D02*
X7Y17D01*
X4188Y17D02*
X4195Y17D01*
X0Y16D02*
X7Y16D01*
X4188Y16D02*
X4195Y16D01*
X0Y15D02*
X7Y15D01*
X4188Y15D02*
X4195Y15D01*
X0Y14D02*
X7Y14D01*
X4188Y14D02*
X4195Y14D01*
X0Y13D02*
X7Y13D01*
X4188Y13D02*
X4195Y13D01*
X0Y12D02*
X7Y12D01*
X4188Y12D02*
X4195Y12D01*
X0Y11D02*
X7Y11D01*
X4188Y11D02*
X4195Y11D01*
X0Y10D02*
X7Y10D01*
X4188Y10D02*
X4195Y10D01*
X0Y9D02*
X7Y9D01*
X4188Y9D02*
X4195Y9D01*
X0Y8D02*
X4195Y8D01*
X0Y7D02*
X4195Y7D01*
X0Y6D02*
X4195Y6D01*
X0Y5D02*
X4195Y5D01*
X0Y4D02*
X4195Y4D01*
X0Y3D02*
X4195Y3D01*
X0Y2D02*
X4195Y2D01*
X0Y1D02*
X4195Y1D01*
D02*
G04 End of Silk0*
M02*